{"glyphs":{"0":{"ha":556,"x_min":-1,"x_max":556,"o":"m 3 175 q 11 303 -1 233 q 50 440 24 372 q 115 569 76 507 q 200 676 153 631 q 303 744 247 721 q 419 758 358 768 q 519 697 488 747 q 553 581 550 646 q 540 467 556 531 q 496 335 525 403 q 427 205 467 268 q 340 93 388 142 q 241 18 293 44 q 138 -1 189 -8 q 39 59 71 8 q 3 175 7 110 m 264 107 q 334 194 299 142 q 398 308 369 247 q 444 430 426 368 q 463 542 463 492 q 434 653 463 622 q 365 678 406 685 q 279 632 325 672 q 199 529 233 592 q 119 347 146 435 q 93 167 93 258 q 108 96 93 122 q 147 61 122 69 q 201 64 171 53 q 264 107 232 75 z "},"1":{"ha":336,"x_min":-4,"x_max":335,"o":"m 325 744 q 334 721 333 738 q 331 693 335 704 l 107 131 l 69 36 q 47 3 63 13 q 0 0 32 -7 q 80 280 39 139 q 161 560 121 421 q 116 542 139 551 q 69 526 93 533 q 17 524 31 515 q -4 571 4 532 q 3 576 -1 576 q 129 638 75 594 q 231 733 183 681 q 247 749 238 740 q 267 758 256 757 q 298 756 282 758 q 325 744 314 753 z "},"2":{"ha":460,"x_min":3,"x_max":528,"o":"m 450 753 q 508 722 488 746 q 528 665 528 699 q 515 596 528 632 q 484 526 503 560 q 442 460 465 492 q 400 401 419 428 q 340 323 372 365 q 272 239 307 281 q 204 160 238 197 q 143 93 171 122 q 226 101 182 97 q 313 106 271 104 q 390 108 354 108 q 449 106 425 108 q 454 71 454 88 q 407 33 454 33 q 242 28 322 33 q 79 0 161 24 q 67 -1 75 -1 q 46 5 57 -1 q 25 20 35 11 q 9 40 15 29 q 3 61 3 51 q 10 81 3 72 q 26 99 18 90 q 179 260 103 179 q 318 438 256 342 q 343 475 324 447 q 383 537 363 503 q 419 603 403 571 q 435 656 435 636 q 428 671 435 665 q 412 677 421 676 q 392 676 403 678 q 376 674 382 675 q 269 603 318 651 q 165 490 219 554 q 142 457 150 472 q 118 442 133 442 q 108 443 115 442 q 94 449 101 444 q 82 463 88 454 q 76 485 76 471 q 78 507 76 496 q 83 524 81 518 q 135 606 101 564 q 212 681 169 647 q 303 737 254 715 q 401 758 353 758 q 426 757 414 758 q 450 753 439 756 z "},"3":{"ha":539,"x_min":-3,"x_max":535,"o":"m 151 660 q 205 694 169 675 q 283 730 240 714 q 369 755 325 746 q 451 757 414 764 q 511 724 488 750 q 535 644 535 699 q 515 569 535 604 q 467 507 496 535 q 403 458 438 479 q 339 421 369 436 q 421 369 386 407 q 457 286 456 332 q 431 176 458 231 q 355 79 403 121 q 243 15 307 38 q 108 0 179 -8 q 28 33 60 6 q -3 104 -3 61 q 8 143 -3 133 q 35 129 19 153 q 78 89 53 101 q 128 71 104 76 q 214 77 169 63 q 294 122 258 92 q 349 195 329 153 q 361 286 369 238 q 337 330 357 311 q 289 363 317 349 q 229 383 261 376 q 169 390 197 390 q 165 399 167 390 q 171 410 164 407 q 297 473 233 433 q 407 563 360 513 q 431 599 421 578 q 439 640 440 621 q 422 669 438 658 q 372 672 407 679 q 257 633 311 660 q 167 571 203 606 q 139 563 150 556 q 124 585 128 569 q 123 620 119 601 q 139 647 126 639 q 144 653 142 650 q 151 660 147 657 z "},"4":{"ha":560,"x_min":-7,"x_max":557,"o":"m 386 289 q 444 285 417 285 q 494 282 471 285 q 492 265 494 278 q 492 247 489 251 q 472 241 486 244 q 438 234 457 238 q 400 228 419 231 q 365 224 381 225 q 343 169 354 199 q 322 113 332 140 q 302 63 311 86 q 286 28 293 40 q 264 3 276 11 q 225 3 251 -4 q 253 112 236 53 q 281 225 269 171 q 256 225 269 225 q 226 225 242 225 q 197 225 211 225 q 172 225 182 225 q 113 226 143 226 q 56 233 83 226 q 4 261 15 244 q 25 311 -7 278 q 85 373 53 343 q 147 435 118 403 q 217 510 181 472 q 293 588 254 549 q 369 667 332 628 q 440 743 407 706 q 455 754 446 750 q 472 760 464 758 q 510 758 490 760 q 557 754 531 757 q 471 519 513 638 q 386 289 429 401 m 293 289 q 329 406 314 347 q 368 528 344 464 q 238 411 303 467 q 114 299 172 356 q 207 294 156 296 q 293 289 258 292 z "},"5":{"ha":518,"x_min":-46,"x_max":496,"o":"m 474 743 q 494 726 494 740 q 491 688 496 703 q 478 666 486 674 q 459 656 469 658 q 438 653 449 653 q 365 656 404 653 q 294 660 326 660 q 272 642 282 660 q 251 599 261 624 q 232 547 240 574 q 215 501 224 519 q 263 503 239 501 q 310 501 286 504 q 404 458 372 497 q 439 368 436 419 q 418 235 442 303 q 350 114 394 168 q 244 27 306 60 q 108 -1 182 -6 q 58 8 85 0 q 10 31 32 17 q -28 65 -12 46 q -44 108 -43 85 q -34 139 -46 131 q -4 128 -22 147 q 53 90 19 106 q 131 69 86 74 q 219 94 178 65 q 292 168 261 124 q 341 265 324 213 q 357 361 358 318 q 332 413 354 393 q 271 433 310 433 q 211 427 239 433 q 164 397 183 421 q 138 383 150 383 q 108 397 122 383 q 94 424 94 411 q 97 443 93 432 q 135 558 117 501 q 172 674 154 615 q 186 717 181 700 q 199 742 192 733 q 219 755 207 751 q 251 758 231 758 q 367 753 307 758 q 474 743 428 747 z "},"6":{"ha":436,"x_min":-6,"x_max":443,"o":"m 326 504 q 387 481 364 500 q 422 436 410 461 q 439 385 435 411 q 443 340 443 358 q 420 233 443 294 q 357 118 397 172 q 259 26 317 64 q 133 -11 201 -11 q 31 34 67 -11 q -6 151 -6 79 q 15 295 -6 226 q 64 432 36 364 q 110 523 79 468 q 178 629 140 578 q 253 717 215 681 q 324 754 292 754 q 360 751 343 754 q 376 740 376 749 q 365 718 376 733 q 323 661 346 692 q 277 598 300 631 q 233 533 254 565 q 196 469 213 500 q 252 493 224 481 q 308 506 281 506 q 317 505 313 506 q 326 504 321 504 m 144 53 q 222 83 183 53 q 289 156 260 113 q 335 251 318 200 q 351 344 353 301 q 325 412 350 386 q 246 432 300 438 q 177 397 208 428 q 124 320 146 365 q 91 223 103 275 q 79 128 79 171 q 92 78 79 103 q 144 53 106 53 z "},"7":{"ha":538,"x_min":44,"x_max":485,"o":"m 410 754 q 470 722 456 749 q 465 661 485 694 q 365 484 410 576 q 271 303 319 392 q 205 172 236 240 q 146 38 174 103 q 139 25 143 31 q 132 13 135 19 q 115 -1 126 0 q 90 4 103 -3 q 79 21 76 11 q 85 40 82 31 q 192 352 125 200 q 340 643 260 504 q 348 657 343 650 q 353 675 353 664 q 288 668 313 671 q 242 663 263 665 q 197 655 221 660 q 135 642 172 650 q 81 640 99 635 q 54 669 63 646 q 56 709 44 696 q 97 728 67 722 q 185 744 146 738 q 262 755 225 751 q 334 758 299 758 q 410 754 369 758 z "},"8":{"ha":582,"x_min":0,"x_max":579,"o":"m 515 679 q 539 686 525 686 q 565 675 550 686 q 579 649 579 664 q 551 618 579 640 q 482 568 522 596 q 399 513 442 540 q 328 465 357 485 q 386 367 368 408 q 411 279 404 325 q 393 181 417 231 q 327 90 369 131 q 229 25 285 50 q 115 0 174 0 q 33 32 65 0 q 0 113 0 64 q 4 143 0 126 q 37 231 15 190 q 85 310 58 272 q 144 383 113 347 q 207 453 175 418 q 177 490 193 471 q 148 528 161 510 q 126 565 135 547 q 117 600 117 583 q 143 663 117 633 q 209 713 169 692 q 294 747 249 735 q 379 758 340 758 q 442 749 424 758 q 460 713 460 740 q 458 690 460 697 q 453 678 457 682 q 442 675 449 675 q 426 675 436 675 q 301 659 360 672 q 206 608 242 646 l 286 515 q 398 601 343 560 q 515 679 453 643 m 117 65 q 233 92 185 58 q 303 178 282 126 q 315 290 324 231 q 260 394 306 350 q 229 358 244 375 q 200 324 214 342 q 163 276 183 301 q 124 222 142 250 q 93 164 106 193 q 81 106 81 135 q 117 65 81 69 z "},"9":{"ha":503,"x_min":6,"x_max":499,"o":"m 400 736 q 433 731 415 732 q 464 724 450 729 q 488 709 478 719 q 499 678 497 699 q 431 488 469 582 q 353 308 393 393 q 275 149 313 222 q 211 21 238 75 q 188 2 204 7 q 158 0 172 -3 q 147 14 143 3 q 158 49 150 25 l 268 332 q 238 314 256 322 q 201 299 221 306 q 163 288 182 292 q 129 283 144 283 q 42 319 78 283 q 6 411 6 356 q 38 536 6 474 q 121 649 71 599 q 231 730 171 699 q 344 761 290 761 q 379 756 364 761 q 400 736 394 751 m 369 600 q 371 617 371 606 q 328 661 371 661 q 246 639 286 661 q 174 583 206 617 q 122 507 142 549 q 103 426 103 465 q 117 374 103 390 q 154 358 132 358 q 199 371 175 358 q 313 465 272 408 q 369 600 353 522 z "},"B":{"ha":804,"x_min":-22,"x_max":786,"o":"m 729 108 q 735 101 729 106 q 747 92 740 97 q 759 82 753 88 q 765 68 765 76 q 758 44 767 50 q 740 38 750 38 q 711 43 725 38 q 683 49 697 49 q 652 42 665 49 q 624 26 639 36 q 537 -19 583 1 q 441 -53 490 -39 q 342 -74 392 -67 q 246 -82 292 -82 q 178 -77 214 -82 q 111 -60 142 -72 q 60 -31 81 -49 q 38 15 39 -12 q 64 64 35 43 q 215 132 131 113 q 386 151 300 151 q 482 147 435 151 q 576 135 529 142 q 597 132 590 132 q 634 146 618 132 q 660 181 650 160 q 674 224 669 201 q 676 264 678 247 q 602 385 672 343 q 407 428 532 428 q 384 426 397 428 q 359 426 371 425 q 338 435 347 428 q 329 457 329 442 q 357 489 329 482 q 432 505 382 493 q 531 538 482 517 q 617 590 581 558 q 650 667 653 621 q 627 713 649 693 q 577 744 606 732 q 519 759 549 756 q 472 757 490 763 q 456 738 467 756 q 433 694 446 721 q 405 636 419 668 q 377 574 390 604 q 352 516 364 543 q 333 474 340 489 q 329 468 331 469 q 290 383 313 428 q 246 295 268 338 q 203 215 224 253 q 168 151 182 176 q 153 129 160 136 q 131 118 146 122 q 113 117 119 114 q 103 128 104 118 q 106 154 101 139 q 116 188 110 169 q 128 222 122 206 q 173 352 150 289 q 220 478 196 415 q 270 608 244 542 q 324 749 296 675 q 222 727 278 742 q 119 697 165 713 l 38 664 q 16 656 26 660 q -3 669 6 653 q -7 726 -22 706 q 46 757 8 746 l 75 767 q 160 794 111 781 q 263 817 208 808 q 378 831 318 826 q 500 835 439 836 q 597 819 551 832 q 676 783 643 806 q 730 731 710 761 q 753 667 750 701 q 746 616 754 639 q 721 572 738 593 q 679 528 704 550 q 622 479 654 506 q 656 463 636 474 q 676 453 675 453 q 698 438 683 447 q 728 412 713 428 q 758 375 743 396 q 781 326 772 354 l 781 322 l 781 326 q 784 310 783 318 q 786 292 785 301 l 786 272 q 785 266 786 269 q 785 260 785 263 l 785 257 l 785 260 q 776 218 782 238 q 774 210 774 213 l 767 190 q 728 117 753 156 l 725 113 l 728 110 l 728 108 l 729 108 l 728 108 l 729 108 m 111 10 q 165 -18 128 -10 q 247 -26 201 -26 q 333 -20 289 -26 q 417 -3 378 -14 q 489 23 457 8 q 538 56 521 38 q 429 56 483 56 q 321 53 375 57 q 214 40 267 50 q 111 10 161 31 z "},"C":{"ha":514,"x_min":0,"x_max":639,"o":"m 538 861 q 618 801 597 850 q 621 679 639 753 q 601 624 615 656 q 569 561 588 592 q 533 508 551 531 q 500 483 514 486 q 469 481 488 481 q 439 485 451 481 q 422 501 426 490 q 433 532 418 513 q 462 571 446 549 q 492 617 478 593 q 516 667 507 642 q 524 717 525 692 q 513 750 519 736 q 481 763 506 764 q 398 728 442 760 q 312 645 354 696 q 231 529 269 594 q 163 397 193 464 q 115 264 133 329 q 96 146 97 199 q 99 83 96 113 q 113 30 101 53 q 144 -8 124 7 q 201 -29 165 -24 q 311 -18 257 -37 q 413 38 365 1 q 497 122 460 74 q 553 218 533 169 q 578 217 572 218 q 582 210 585 217 q 521 90 560 147 q 430 -10 482 32 q 315 -76 378 -53 q 186 -94 253 -100 q 100 -72 135 -90 q 43 -23 65 -53 q 11 47 21 7 q 1 133 1 88 q 10 240 0 185 q 38 351 19 296 q 81 462 56 407 q 138 567 107 517 q 201 658 163 607 q 288 755 240 710 q 392 831 336 800 q 506 863 447 863 q 521 863 513 863 q 538 861 529 863 z "},"D":{"ha":769,"x_min":-1,"x_max":829,"o":"m 758 751 q 809 675 794 717 q 826 585 824 633 q 813 438 829 513 q 763 292 797 363 q 679 158 729 221 q 565 49 629 96 q 424 -26 501 1 q 258 -56 346 -54 q 160 -49 206 -56 q 79 -35 114 -43 q 25 -17 44 -26 q 4 -3 6 -8 q 16 33 -1 18 q 56 49 33 47 q 71 47 65 49 q 161 26 115 36 q 253 17 207 15 q 383 44 321 18 q 499 115 446 71 q 596 215 553 158 q 669 335 639 272 q 717 462 700 397 q 735 586 733 526 q 726 655 735 621 q 697 714 717 689 q 644 752 676 739 q 568 758 613 765 q 531 747 546 756 q 504 714 515 738 q 440 574 474 647 q 373 426 407 501 q 306 278 339 351 q 242 136 272 204 q 221 96 231 113 q 182 79 211 79 q 157 82 167 79 q 149 96 147 85 q 153 114 147 101 q 257 400 204 258 q 361 686 310 542 l 388 746 q 207 665 289 711 l 140 622 q 122 612 133 618 q 100 619 111 606 q 83 665 79 644 l 83 668 q 85 671 83 668 q 100 695 88 685 q 132 717 113 706 q 201 758 160 736 q 293 797 242 779 q 403 824 344 814 q 528 833 463 835 q 648 815 590 833 q 758 751 706 797 z "},"E":{"ha":588,"x_min":-4,"x_max":654,"o":"m 318 -26 q 415 -4 369 -25 q 499 51 461 17 q 568 131 538 86 q 621 225 599 176 q 647 224 640 225 q 651 217 654 224 q 524 19 601 96 q 339 -78 447 -58 q 202 -82 264 -90 q 97 -48 140 -74 q 28 17 53 -22 q 0 107 3 57 q 31 238 -4 178 q 120 347 65 299 q 242 429 175 394 q 372 483 310 464 q 316 557 336 519 q 296 643 296 594 q 313 713 296 678 q 357 774 329 747 q 420 818 385 801 q 493 835 456 835 q 558 818 529 835 q 606 774 586 801 q 635 714 625 747 q 646 646 646 681 q 643 613 646 631 q 635 578 640 594 q 622 549 629 561 q 604 536 614 538 q 582 540 593 533 q 557 551 571 546 q 578 601 571 572 q 580 658 585 631 q 557 706 575 686 q 503 725 539 725 q 469 715 483 725 q 444 691 454 706 q 428 658 433 676 q 422 624 422 640 q 438 572 422 596 q 477 525 453 547 q 531 483 501 503 q 590 442 561 463 q 541 425 563 431 q 499 415 519 419 q 457 405 479 411 q 406 389 435 399 q 310 344 364 374 q 210 276 257 315 q 131 192 163 238 q 100 101 99 147 q 113 51 100 75 q 152 10 126 28 q 217 -17 178 -7 q 310 -26 257 -28 l 318 -26 z "},"F":{"ha":374,"x_min":-3,"x_max":765,"o":"m 394 307 l 294 294 q 267 223 283 263 q 232 142 250 183 q 197 61 214 100 q 168 -8 181 22 q 156 -35 163 -22 q 118 -49 149 -49 q 108 -42 110 -49 q 106 -27 106 -36 q 108 -8 106 -18 q 113 8 110 1 q 151 141 129 74 q 192 278 172 208 q 130 270 154 274 q 90 265 106 267 q 63 261 74 263 q 43 260 53 260 q 13 267 21 257 q 1 308 4 278 q 39 372 -3 365 q 126 383 79 379 q 222 390 174 386 l 339 744 q 234 736 286 740 q 129 729 182 732 q 115 731 122 728 q 104 738 107 733 q 97 763 96 749 q 106 791 99 778 q 124 814 113 804 q 150 825 136 824 q 225 831 188 828 q 300 833 263 833 q 513 834 407 835 q 725 835 618 833 q 757 826 749 835 q 765 793 765 817 q 765 765 765 775 q 760 751 764 756 q 749 745 757 746 q 729 744 742 744 q 612 744 667 744 q 494 744 557 743 q 472 741 481 744 q 457 722 463 738 q 392 555 425 642 q 325 381 360 468 l 332 381 q 351 380 343 381 q 365 379 358 379 l 483 375 q 503 372 499 375 q 515 360 508 368 q 519 347 521 353 q 515 325 519 339 q 506 311 510 311 l 394 307 z "},"G":{"ha":747,"x_min":7,"x_max":842,"o":"m 599 840 q 649 846 621 846 q 664 846 656 846 q 681 844 672 846 q 761 785 740 833 q 764 663 782 736 q 744 607 758 639 q 713 544 731 575 q 676 492 694 514 q 643 467 657 469 q 613 464 631 464 q 582 469 594 464 q 565 485 569 474 q 576 515 561 496 q 603 557 586 529 q 636 616 621 585 q 662 678 651 647 q 667 727 672 708 q 640 749 663 746 q 567 728 617 751 q 456 664 513 703 q 347 576 400 625 q 249 469 294 526 q 169 350 203 413 q 119 222 136 288 q 106 89 101 156 q 136 13 108 43 q 210 -18 164 -18 q 324 10 269 -18 q 428 81 379 38 q 518 177 476 124 q 594 283 560 231 q 572 282 596 286 q 516 271 549 278 q 449 256 483 264 q 393 244 414 249 q 377 250 385 243 q 363 269 369 257 q 353 295 357 281 q 350 325 350 310 q 372 350 347 346 q 581 374 479 369 q 783 379 682 379 q 825 372 811 379 q 840 346 839 365 q 813 315 842 322 q 707 296 785 308 l 706 296 q 648 115 678 211 q 593 -65 618 18 q 561 -94 582 -94 q 535 -86 543 -94 q 528 -71 528 -78 q 529 -56 526 -64 q 533 -42 532 -49 l 574 149 q 526 83 560 122 q 444 6 492 43 q 338 -58 396 -32 q 219 -85 279 -85 q 146 -73 182 -85 q 81 -36 110 -61 q 33 26 51 -11 q 11 115 14 64 q 53 341 7 231 q 177 546 100 451 q 351 713 254 640 q 543 824 447 785 q 599 840 567 833 z "},"H":{"ha":715,"x_min":-36,"x_max":868,"o":"m 744 393 q 764 381 763 390 q 765 367 765 371 q 758 344 764 356 q 744 332 751 332 l 675 324 q 654 267 667 301 q 627 197 642 233 q 600 128 613 161 q 579 75 588 94 l 542 -21 q 511 -49 531 -49 q 489 -43 503 -49 q 510 68 496 13 q 540 181 525 124 q 559 251 550 215 q 576 324 568 288 l 521 321 q 426 314 469 318 q 351 306 382 310 q 301 298 319 301 q 283 294 283 294 l 221 146 q 178 42 199 93 q 133 -61 157 -10 q 133 -63 133 -62 q 132 -65 132 -64 q 118 -79 125 -78 q 104 -76 111 -81 q 93 -61 97 -71 q 89 -39 89 -51 q 90 -26 89 -35 q 97 13 90 -17 q 119 103 104 43 q 164 268 135 163 l 169 289 l 125 283 q 72 278 97 281 q 19 275 46 275 q -22 288 -8 275 q -36 335 -36 301 q 18 389 -36 385 l 68 393 q 97 396 79 394 q 133 398 114 397 q 169 400 151 399 q 200 401 188 401 l 229 483 q 245 531 238 508 q 260 577 253 554 q 277 625 268 600 q 297 679 286 650 l 308 710 q 323 749 315 728 q 338 789 331 771 q 353 819 346 807 q 364 831 360 831 q 390 827 371 831 q 428 818 408 824 q 463 807 447 813 q 478 796 478 801 q 471 771 478 789 q 469 767 471 769 q 468 764 468 765 q 428 669 446 714 q 393 582 410 625 l 317 400 l 599 400 q 663 600 629 496 q 728 800 696 704 q 740 820 733 813 q 760 828 747 828 q 841 823 814 828 q 868 799 868 818 q 865 785 868 794 q 860 768 863 776 l 807 646 q 756 524 781 583 q 708 396 732 464 q 726 396 717 396 q 744 393 736 396 z "},"I":{"ha":206,"x_min":19,"x_max":389,"o":"m 65 -69 q 46 -70 54 -69 q 31 -67 38 -71 q 19 -46 19 -60 q 22 -21 19 -32 q 47 90 31 22 q 82 233 63 157 q 123 388 101 310 q 165 532 144 467 q 196 638 181 579 q 226 744 211 697 q 205 750 219 751 q 189 756 190 749 q 200 791 192 775 q 215 826 208 807 q 224 833 218 831 q 238 835 231 835 q 343 835 289 836 q 380 817 371 835 q 376 771 389 799 q 293 563 335 667 q 213 353 251 458 q 138 147 174 250 q 65 -60 101 44 l 65 -69 z "},"J":{"ha":539,"x_min":17,"x_max":740,"o":"m 667 835 q 728 817 717 832 q 721 763 740 803 q 590 453 654 606 q 456 144 525 300 q 400 43 432 92 q 321 -46 368 -6 q 226 -81 279 -79 q 129 -50 174 -83 q 62 17 89 -21 q 18 97 35 54 q 18 110 17 104 q 21 122 19 115 q 63 69 46 89 q 93 35 79 49 q 120 12 107 21 q 149 -7 133 3 q 210 -30 183 -31 q 260 -12 238 -29 q 299 31 282 4 q 332 88 317 58 q 428 306 388 190 q 506 535 469 422 l 569 743 q 511 702 538 724 q 471 669 485 681 q 458 668 467 665 q 440 678 449 671 q 424 694 432 685 q 414 713 417 704 q 410 732 407 725 q 419 747 414 739 q 508 812 449 789 q 638 835 567 835 l 667 835 l 667 835 z "},"K":{"ha":660,"x_min":4,"x_max":946,"o":"m 694 131 q 725 118 715 124 q 733 100 735 113 q 728 69 732 88 q 718 33 724 51 q 704 -5 713 14 q 686 -36 696 -24 q 650 -65 669 -58 q 603 -65 631 -72 q 529 -30 567 -56 q 457 28 492 -4 q 324 149 369 106 q 256 216 278 193 q 230 247 235 239 q 219 260 225 254 l 183 188 q 149 116 171 161 q 103 27 126 71 q 58 -49 79 -17 q 26 -81 36 -81 q 11 -74 18 -81 q 4 -53 4 -68 q 6 -44 4 -47 q 62 107 33 32 q 118 258 90 182 q 124 275 118 261 q 135 301 129 289 q 113 285 125 294 q 90 268 101 276 q 70 254 79 260 q 57 249 61 249 q 28 265 42 249 q 17 301 14 282 q 33 325 18 311 q 72 353 49 339 q 123 380 96 367 q 175 403 150 393 l 306 746 l 188 746 q 169 747 176 746 q 158 751 163 747 q 153 765 154 756 q 151 793 151 775 q 163 819 151 810 q 192 831 175 828 q 230 833 210 833 q 267 833 250 833 q 322 833 292 833 q 381 831 353 833 q 427 820 408 828 q 446 799 446 813 q 440 771 446 786 q 403 681 422 725 q 364 592 383 636 l 294 433 q 328 450 313 443 q 360 465 344 457 q 599 626 489 536 q 806 828 710 717 q 822 838 811 835 q 842 840 832 840 q 910 831 883 840 q 946 815 936 822 q 639 532 810 650 q 261 339 468 414 q 435 174 353 261 q 613 11 517 88 q 624 3 617 7 q 638 0 631 0 q 651 5 644 0 q 661 24 657 10 l 694 131 m 142 321 q 140 319 140 321 l 140 317 q 142 321 142 318 z "},"L":{"ha":581,"x_min":-29,"x_max":704,"o":"m 581 -79 q 542 -76 568 -81 q 481 -64 517 -72 q 401 -44 444 -56 q 313 -19 358 -33 l 283 -46 q 190 -82 243 -81 q 92 -50 136 -83 q 24 17 51 -21 q -19 97 -3 54 q -20 99 -19 99 q -21 101 -21 100 q -26 116 -29 107 q -14 133 -24 125 q 10 144 -4 140 q 42 143 25 149 q 143 114 76 132 q 289 76 210 96 l 294 88 q 391 306 350 190 q 468 535 432 422 l 536 747 q 478 706 504 728 q 438 674 451 685 q 424 672 433 669 q 406 682 415 675 q 389 699 396 689 q 381 717 382 708 q 378 738 378 732 q 386 751 379 744 q 473 812 415 785 q 601 839 531 839 l 631 839 q 692 822 681 836 q 685 767 704 807 q 553 455 618 610 q 418 144 488 300 q 397 99 407 121 q 372 57 386 78 q 513 29 444 42 q 633 14 581 17 q 640 0 640 14 q 633 -31 640 -14 q 612 -62 625 -47 q 581 -79 599 -78 m 111 -7 q 184 -28 153 -35 q 239 3 215 -22 q 110 46 171 24 q 10 86 50 68 q 39 51 26 65 q 63 27 51 38 q 86 9 75 17 q 111 -7 97 1 z "},"M":{"ha":701,"x_min":-7,"x_max":903,"o":"m 69 -25 q 44 -58 63 -46 q -7 -58 26 -71 q 7 -12 -1 -35 q 24 32 15 10 l 26 42 q 148 390 88 217 q 274 739 208 564 q 292 789 283 768 q 315 822 301 810 q 348 835 328 833 q 400 831 368 838 q 435 813 429 824 q 438 775 440 803 q 433 671 435 731 q 429 549 431 611 q 427 428 428 486 q 426 329 426 371 q 522 460 482 403 q 595 565 563 517 q 656 655 628 613 q 715 742 683 697 q 756 795 735 769 q 813 829 776 821 l 833 835 q 896 825 889 840 q 879 757 903 810 q 803 587 842 678 q 724 399 764 496 q 643 202 683 303 q 564 4 603 101 q 540 -29 553 -21 q 493 -25 526 -37 q 502 2 500 -8 q 511 33 504 13 q 556 178 536 108 q 597 316 576 249 q 637 449 617 383 q 682 583 657 515 q 663 559 678 579 q 627 509 649 539 q 581 442 606 479 q 533 371 557 406 q 488 306 508 336 q 456 260 468 276 q 419 213 436 232 q 388 189 403 194 q 342 178 357 178 q 326 213 328 179 q 322 380 319 297 q 326 551 324 463 q 313 522 318 536 q 201 272 256 396 q 90 21 147 147 l 69 -25 z "},"N":{"ha":561,"x_min":-15,"x_max":735,"o":"m 289 799 q 323 824 306 819 q 365 833 340 828 q 427 822 422 839 q 406 754 432 806 q 334 609 369 686 q 264 453 299 532 q 195 295 229 374 q 129 146 161 217 q 185 226 147 178 q 282 344 224 275 q 419 501 340 413 q 597 704 497 590 q 629 740 615 729 q 656 752 643 751 q 683 746 669 753 q 711 726 696 739 q 718 676 735 707 l 636 529 q 581 419 608 476 q 532 306 554 363 q 492 194 510 249 q 467 96 475 140 q 463 60 464 79 q 466 25 461 40 q 483 1 471 10 q 519 0 496 -7 q 488 -28 507 -19 q 451 -33 469 -36 q 417 -16 432 -31 q 394 26 401 -1 q 387 135 382 76 q 406 252 392 194 q 441 363 421 310 q 479 454 461 415 q 369 353 426 408 q 258 236 313 297 q 155 110 204 175 q 67 -19 106 46 q 56 -35 63 -26 q 40 -51 49 -44 q 23 -60 32 -57 q 4 -57 14 -62 q -11 -28 -15 -46 q -1 4 -7 -10 l 204 578 l 289 799 z "},"O":{"ha":647,"x_min":4,"x_max":800,"o":"m 800 374 q 763 299 782 332 q 718 242 744 267 q 656 200 692 217 q 569 175 621 183 q 567 172 567 175 q 389 -35 482 33 q 199 -93 296 -104 q 121 -65 156 -87 q 61 -4 86 -42 q 22 81 36 33 q 7 185 8 129 q 20 340 4 260 q 63 495 36 419 q 124 638 89 571 q 194 753 158 704 l 194 757 l 126 715 q 108 717 118 713 q 89 728 99 721 q 73 743 79 735 q 67 756 67 751 q 71 765 67 761 q 164 826 114 804 q 275 851 214 849 q 358 840 315 854 q 374 831 372 836 q 364 811 376 826 q 187 535 253 675 q 103 224 121 396 q 101 157 100 197 q 113 77 103 117 q 146 7 124 38 q 208 -31 168 -24 q 283 -21 243 -37 q 362 27 324 -4 q 433 101 400 58 q 485 192 465 144 q 395 224 436 201 q 323 278 354 246 q 272 352 292 311 q 247 439 253 393 q 262 570 240 500 q 327 697 283 640 q 433 787 371 754 q 572 807 496 819 q 657 762 628 797 q 695 676 686 726 q 697 565 704 625 q 674 442 690 504 q 635 324 657 381 q 592 226 613 268 q 637 233 613 224 q 685 261 661 242 q 733 310 710 281 q 772 378 756 340 l 800 374 m 536 718 q 474 699 507 718 q 413 646 442 679 q 366 566 385 613 q 346 465 347 519 q 353 402 346 433 q 378 341 360 371 q 427 285 396 311 q 504 238 458 258 l 504 236 q 538 312 521 265 q 567 412 554 358 q 587 520 579 465 q 592 619 594 575 q 577 690 590 663 q 536 718 564 718 z "},"P":{"ha":711,"x_min":-7,"x_max":831,"o":"m 685 794 q 803 683 775 757 q 793 518 831 610 q 685 367 756 424 q 524 274 614 310 q 377 229 453 246 q 222 206 301 213 q 197 147 211 178 q 169 84 183 115 q 141 22 154 53 q 118 -35 128 -8 q 106 -60 113 -50 q 81 -65 99 -69 q 62 -48 61 -60 q 65 -22 63 -36 q 94 88 78 33 q 125 203 111 143 q 92 202 107 203 q 57 203 76 201 q 9 221 25 206 q 0 264 -7 236 q 13 293 4 282 q 47 296 21 304 q 98 285 67 289 q 154 282 129 282 q 191 388 172 332 q 229 503 210 444 q 268 618 249 561 q 304 725 288 675 q 303 732 304 725 q 192 706 247 721 q 83 676 136 692 q 40 713 28 661 q 49 740 44 728 q 61 760 53 751 q 84 776 69 769 q 122 789 99 782 q 312 826 214 813 q 517 833 410 839 q 603 822 560 831 q 685 794 646 813 m 689 529 q 693 636 706 585 q 628 713 681 688 q 545 741 586 733 q 458 746 504 749 q 445 740 451 744 q 436 729 439 735 q 388 622 411 681 q 342 504 365 564 q 297 387 319 444 q 249 279 274 329 q 372 305 304 289 q 504 349 440 321 q 618 420 568 376 q 689 529 668 464 z "},"Q":{"ha":649,"x_min":-3,"x_max":707,"o":"m 707 592 q 678 428 707 511 q 600 269 649 346 q 488 127 551 193 q 353 14 424 61 q 474 -49 413 -31 q 600 -68 535 -68 q 700 -58 653 -68 q 683 -94 696 -82 q 652 -114 669 -107 q 614 -122 635 -121 q 574 -124 593 -124 q 427 -107 496 -124 q 290 -43 358 -90 q 251 -29 269 -29 q 221 -33 236 -29 q 190 -36 206 -36 q 52 26 103 -36 q -1 193 1 89 q 14 331 -3 258 q 63 474 31 403 q 143 609 96 544 q 248 722 190 674 q 374 800 306 771 q 517 829 442 829 q 625 800 586 829 q 682 731 664 771 q 703 652 700 692 q 707 592 707 613 m 328 85 q 435 191 383 132 q 526 317 486 250 q 591 454 567 383 q 615 594 615 525 q 585 688 615 663 q 509 711 554 714 q 415 686 464 708 q 328 636 365 664 q 228 542 274 594 q 151 428 183 489 q 101 301 119 368 q 79 164 82 233 q 105 65 76 106 q 192 25 133 25 q 206 25 199 25 q 221 28 214 25 q 192 154 192 92 q 258 325 192 242 q 299 305 286 313 q 311 282 311 297 q 308 258 311 274 q 300 224 304 243 q 292 184 296 206 q 289 142 289 163 q 292 108 289 126 q 306 72 296 90 q 318 79 313 76 q 328 85 324 82 z "},"R":{"ha":808,"x_min":3,"x_max":885,"o":"m 557 832 q 719 793 649 824 q 831 713 790 763 q 878 596 872 663 q 846 449 885 529 q 770 358 814 394 q 673 297 726 321 q 558 259 619 272 q 429 239 497 246 q 496 196 463 217 q 561 151 529 175 q 684 64 624 108 q 806 -24 744 19 q 824 -47 821 -35 q 821 -72 826 -58 q 802 -87 814 -90 q 781 -78 790 -83 q 668 -12 724 -46 q 557 56 613 22 q 495 92 529 72 q 426 132 461 111 q 358 173 392 153 q 294 211 324 193 q 266 144 282 181 q 234 71 250 107 q 203 4 218 35 q 181 -43 189 -26 q 169 -56 175 -54 q 144 -54 164 -57 q 129 -37 126 -51 q 135 -12 132 -24 q 169 108 154 49 q 207 238 183 167 q 166 258 194 244 q 110 285 138 272 q 75 311 82 299 q 75 347 68 324 q 99 384 82 371 q 142 390 117 397 q 191 369 169 383 q 243 344 213 354 q 308 540 272 433 q 376 749 344 646 q 291 734 331 742 q 212 717 251 726 q 131 698 172 708 q 43 675 90 688 q 11 676 19 668 q 6 708 3 685 q 17 753 7 739 q 60 776 28 768 q 172 803 111 790 q 298 824 233 815 q 428 835 363 832 q 557 832 494 838 m 633 371 q 719 442 682 396 q 764 542 757 488 q 758 623 769 585 q 722 689 747 661 q 656 733 696 717 q 565 749 615 749 q 529 744 547 749 q 504 721 511 739 q 463 622 483 675 q 422 516 442 569 q 383 411 401 463 q 347 317 364 360 q 498 325 431 314 q 633 371 565 336 z "},"S":{"ha":576,"x_min":3,"x_max":664,"o":"m 535 857 q 629 821 594 851 q 664 738 664 790 q 654 675 664 706 q 636 627 647 653 q 611 579 625 601 q 582 542 597 557 q 551 525 567 526 q 518 524 535 524 q 491 528 501 524 q 479 544 481 533 q 493 575 478 556 q 540 647 519 610 q 561 715 561 683 q 500 758 561 758 q 410 745 457 758 q 325 706 364 732 q 261 644 286 681 q 236 560 236 607 q 281 461 236 506 q 364 378 319 421 q 447 288 408 335 q 510 192 485 242 q 535 92 535 143 q 508 11 535 46 q 442 -47 482 -24 q 354 -81 401 -69 q 265 -92 307 -92 q 177 -76 224 -92 q 92 -34 131 -61 q 28 28 53 -7 q 3 103 3 63 q 10 149 3 125 q 35 194 18 174 q 80 228 53 215 q 147 242 107 242 q 232 231 189 242 q 310 201 275 221 q 368 155 346 182 q 390 94 390 128 q 381 64 390 76 q 361 51 371 51 q 356 54 358 51 q 321 83 343 67 q 270 115 299 100 q 209 142 242 131 q 146 153 176 153 q 96 138 111 153 q 81 103 81 124 q 95 53 81 78 q 136 11 110 29 q 201 -18 163 -7 q 285 -29 239 -29 q 342 -24 314 -29 q 391 -5 369 -18 q 426 28 413 8 q 439 78 439 49 q 429 124 439 99 q 405 174 419 149 q 372 224 390 200 q 336 268 353 249 q 269 337 304 303 q 204 406 235 371 q 154 479 174 442 q 135 561 135 517 q 169 678 135 624 q 256 772 203 732 q 372 835 308 813 q 496 858 436 858 q 515 858 506 858 q 535 857 524 858 z "},"T":{"ha":238,"x_min":3,"x_max":726,"o":"m 233 381 q 143 153 183 253 q 78 -8 103 53 q 65 -35 72 -22 q 28 -49 58 -49 q 17 -42 19 -49 q 15 -27 15 -36 q 17 -8 15 -18 q 22 8 19 1 q 40 76 31 40 q 61 156 49 111 q 90 257 74 200 q 131 390 107 314 q 188 572 157 476 q 243 744 219 667 q 139 736 190 740 q 35 729 88 732 q 20 731 28 728 q 10 738 13 733 q 4 763 3 749 q 13 791 6 778 q 31 814 19 804 q 56 825 42 824 q 131 831 93 828 q 206 833 168 833 q 320 833 258 833 q 446 833 382 833 q 572 834 510 833 q 686 835 633 835 q 718 826 710 835 q 726 793 726 817 q 725 765 726 775 q 720 751 724 756 q 709 745 717 746 q 689 744 701 744 q 621 744 658 744 q 544 743 583 743 q 467 743 504 743 q 399 743 429 743 q 376 739 385 743 q 363 719 368 735 q 300 553 332 639 q 233 381 268 468 z "},"U":{"ha":568,"x_min":-1,"x_max":721,"o":"m 624 742 q 635 742 631 742 q 647 743 640 743 q 670 744 657 743 q 695 743 683 744 q 714 737 707 742 q 718 722 721 732 q 641 528 676 622 q 572 342 606 433 q 506 160 539 250 q 435 -24 472 69 q 422 -42 429 -32 q 408 -50 415 -51 q 389 -36 392 -49 q 388 -17 386 -24 q 393 30 388 -4 q 408 106 399 64 q 427 190 417 147 q 447 263 438 233 q 402 176 433 228 q 329 76 371 124 q 238 -7 288 28 q 135 -42 188 -42 q 71 -24 97 -42 q 28 26 44 -6 q 6 102 13 58 q 1 196 -1 146 q 21 338 4 257 q 63 505 38 419 q 119 671 88 590 q 182 810 150 751 q 217 835 194 835 q 265 828 238 835 q 311 799 292 822 q 243 655 279 733 q 175 491 207 576 q 119 315 143 406 q 89 135 96 224 q 90 101 88 119 q 98 66 92 82 q 115 38 104 50 q 144 26 126 26 q 223 56 183 25 q 298 131 263 86 q 363 227 333 176 q 415 318 393 278 q 505 509 467 411 q 588 711 543 607 q 602 731 590 721 q 624 742 614 742 z "},"V":{"ha":379,"x_min":0,"x_max":722,"o":"m 661 843 q 690 860 679 860 q 722 836 701 860 q 409 417 544 631 q 174 -36 274 204 q 162 -70 167 -53 q 133 -87 157 -87 q 71 -79 103 -87 q 29 -39 39 -71 q 5 104 10 25 q 5 267 0 183 q 21 433 10 350 q 45 588 32 517 q 70 715 58 660 q 88 797 82 769 q 114 829 93 822 q 159 833 135 836 q 203 824 183 831 q 228 813 224 817 q 229 802 232 808 q 224 789 226 796 q 136 489 167 636 q 92 178 106 342 q 93 88 88 129 q 106 -10 99 46 q 222 225 164 108 q 347 451 281 342 q 489 660 413 561 q 661 843 565 760 z "},"W":{"ha":775,"x_min":4,"x_max":944,"o":"m 885 640 q 823 488 853 569 q 763 326 793 406 q 701 172 732 246 q 636 44 669 99 q 567 -40 603 -10 q 492 -65 531 -71 q 405 -15 433 -57 q 368 83 376 28 q 365 199 360 139 q 376 300 369 258 q 266 138 328 221 q 154 -36 204 54 q 138 -70 144 -53 q 107 -87 131 -87 q 47 -79 76 -87 q 11 -39 18 -71 q 6 60 4 6 q 18 176 8 115 q 52 362 31 268 q 98 539 74 456 q 146 689 122 622 q 188 792 169 756 q 250 829 207 829 q 311 817 289 829 q 331 801 333 806 q 328 792 331 797 q 324 783 325 788 q 251 633 283 707 q 194 485 219 560 q 147 335 168 411 q 104 178 125 258 q 87 87 93 132 q 81 -7 81 42 q 244 255 167 125 q 394 522 322 385 q 432 568 413 554 q 482 582 451 582 q 556 572 535 582 q 576 550 576 561 q 549 476 564 518 q 519 384 533 433 q 491 278 504 335 q 472 164 478 222 q 468 128 471 153 q 465 78 465 104 q 471 29 465 51 q 493 1 476 7 q 541 22 518 -6 q 588 102 564 49 q 636 231 611 156 q 689 394 661 306 q 748 578 717 482 q 815 771 779 675 q 838 797 821 786 q 874 811 854 807 q 911 811 893 815 q 940 794 929 807 q 943 780 944 789 q 939 764 942 771 l 885 640 z "},"X":{"ha":608,"x_min":-10,"x_max":826,"o":"m 668 499 q 540 348 610 418 q 390 213 469 278 q 474 90 424 136 q 613 43 525 43 q 589 8 606 17 q 553 0 572 0 q 474 11 508 0 q 412 44 440 22 q 359 97 383 65 q 311 167 335 128 q 231 110 271 138 q 153 53 192 82 q 78 -10 114 24 q 13 -82 43 -43 q -10 -46 -10 -65 q 4 -13 -10 -33 q 38 28 18 7 q 79 71 57 50 q 117 106 101 92 q 163 141 135 122 q 216 179 190 160 q 260 216 242 199 q 278 246 278 233 q 275 263 278 249 q 256 367 263 315 q 249 468 249 418 q 253 540 249 500 q 265 620 257 579 q 286 701 274 661 q 316 770 299 740 q 356 819 333 800 q 406 838 378 838 q 458 825 431 838 q 382 634 408 726 q 356 433 356 542 q 360 370 356 407 q 367 306 364 333 q 380 315 374 311 q 390 324 386 319 q 483 424 432 363 q 581 552 533 486 q 665 680 628 618 q 717 782 703 742 q 738 791 721 793 q 774 780 756 789 q 808 759 793 771 q 825 740 824 747 q 817 715 826 732 q 794 674 808 697 q 761 626 779 651 q 726 576 743 600 q 692 531 708 551 q 668 499 676 510 z "},"Y":{"ha":607,"x_min":-181,"x_max":676,"o":"m 582 758 q 593 759 589 758 q 604 760 597 760 q 626 760 613 760 q 650 759 639 760 q 669 755 661 758 q 674 743 676 751 q 586 490 622 610 q 510 249 550 371 l 511 247 l 478 146 l 463 106 q 511 102 486 104 q 581 96 536 100 q 637 81 619 92 q 643 35 654 71 q 625 19 636 17 q 603 22 614 21 l 451 47 q 373 -55 418 -15 q 276 -117 328 -94 q 169 -147 224 -139 q 61 -156 114 -156 q 11 -152 36 -156 q -37 -140 -14 -149 q -119 -105 -90 -124 q -161 -68 -147 -86 q -177 -35 -175 -50 q -181 -10 -179 -19 l -181 -4 q -127 69 -181 44 q 10 100 -74 93 q 190 109 96 107 q 369 106 283 111 l 424 300 q 380 237 406 269 q 324 178 354 204 q 257 134 293 151 q 182 117 221 117 q 72 172 108 117 q 29 311 35 228 q 34 428 25 361 q 60 565 43 494 q 100 700 76 635 q 149 814 124 765 q 179 835 157 835 q 226 830 199 835 q 274 806 254 825 q 221 688 249 751 q 170 553 193 624 q 133 409 147 483 q 121 261 118 335 q 124 233 121 249 q 135 205 128 218 q 156 182 143 192 q 185 172 168 172 q 257 196 222 171 q 322 258 292 221 q 377 337 353 294 q 419 411 401 379 q 488 567 460 488 q 549 733 517 647 q 562 749 551 740 q 582 758 572 758 m -69 -64 q 75 -99 -6 -99 q 160 -88 117 -99 q 242 -58 204 -78 q 308 -12 279 -39 q 347 47 336 14 q 201 48 281 47 q 51 44 121 49 q -66 27 -19 40 q -112 -12 -112 14 q -69 -64 -112 -42 z "},"Z":{"ha":765,"x_min":-17,"x_max":807,"o":"m 789 793 q 771 713 807 749 q 538 467 653 597 q 306 222 422 338 q 219 126 261 179 q 129 24 178 72 q 218 39 178 29 q 299 54 258 49 q 413 67 353 61 q 531 75 472 72 q 642 77 589 78 q 739 72 696 76 q 756 69 751 71 q 763 64 761 67 q 763 56 764 61 q 763 44 763 51 q 757 16 764 28 q 732 4 750 4 q 595 3 663 3 q 458 -1 528 3 q 353 -11 407 -4 q 247 -28 299 -18 q 147 -52 194 -39 q 61 -81 99 -65 q 25 -81 42 -87 q -4 -56 8 -74 q -11 -20 -17 -36 q 8 11 -6 -4 q 151 185 81 94 q 293 365 221 275 q 440 542 365 456 q 593 706 514 629 l 610 724 q 596 726 601 725 q 585 726 590 726 l 201 714 q 165 721 174 713 q 154 760 157 729 q 160 813 151 800 q 196 828 169 826 l 719 835 q 761 826 743 835 q 789 793 779 818 z "},"a":{"ha":426,"x_min":-7,"x_max":472,"o":"m 232 49 q 230 67 231 54 q 229 85 229 79 q 192 47 214 65 q 149 17 171 29 q 95 1 121 1 q 49 12 69 0 q 14 47 28 24 q -1 101 0 69 q 20 254 -7 185 q 92 390 47 324 q 219 531 144 468 q 258 550 238 547 q 297 544 279 553 q 328 517 315 536 q 346 472 342 499 q 404 492 375 486 q 461 482 433 497 q 472 472 472 475 q 465 457 472 469 q 391 317 422 385 q 342 197 360 250 q 322 108 325 143 q 331 68 318 74 q 362 75 344 61 q 395 108 379 89 q 424 149 411 128 q 440 178 436 169 q 449 171 440 179 q 458 161 458 163 l 458 158 q 433 105 449 133 q 397 53 417 76 q 354 15 376 31 q 311 -1 332 -1 q 263 6 282 -3 q 233 44 244 15 q 233 47 233 46 q 232 49 232 47 m 240 207 q 289 334 265 269 q 336 464 313 399 q 265 433 304 467 q 189 348 225 399 q 126 238 153 297 q 94 129 100 178 q 98 79 90 93 q 121 67 106 65 q 161 83 143 68 q 194 117 179 97 q 220 162 208 138 q 240 207 232 186 z "},"b":{"ha":432,"x_min":-21,"x_max":503,"o":"m 240 536 q 324 545 289 558 q 384 500 360 532 q 420 426 408 468 q 433 349 432 383 l 503 339 l 503 319 l 436 313 q 414 210 429 263 q 371 115 399 158 q 301 39 343 71 q 196 -3 258 7 l 193 -3 q 149 3 172 1 q 113 18 126 6 q 99 36 101 26 q 99 57 97 46 q 105 79 100 68 q 114 99 110 90 q 154 163 129 129 q 209 227 179 196 q 272 285 239 258 q 338 331 304 311 q 323 395 333 361 q 292 453 313 429 q 253 469 276 468 q 218 451 229 469 q 186 385 199 418 q 160 317 174 353 q 113 176 135 246 q 69 35 92 106 q 56 13 65 22 q 34 0 46 4 q 10 -2 22 -4 q -11 8 -3 0 q -18 22 -17 13 q -21 39 -19 32 q 19 199 -4 114 q 71 374 42 285 q 133 551 100 463 q 204 718 167 639 l 236 785 q 260 813 244 801 q 294 830 276 825 q 331 833 313 835 q 364 824 349 832 q 373 810 374 817 q 367 793 372 804 l 368 793 l 365 788 l 240 536 m 161 54 q 231 70 196 51 q 294 122 267 89 q 338 199 322 156 q 347 288 353 243 q 237 181 285 243 q 161 54 189 118 z "},"c":{"ha":350,"x_min":0,"x_max":400,"o":"m 96 142 q 115 76 94 99 q 169 50 136 53 q 245 58 211 47 q 306 89 279 69 q 350 133 332 108 q 378 181 368 157 q 390 174 379 182 q 400 164 400 165 l 399 161 q 365 97 386 128 q 313 42 343 67 q 247 3 283 18 q 171 -12 211 -11 q 49 26 96 -15 q 0 146 3 67 q 22 278 0 207 q 82 410 44 349 q 167 512 119 471 q 265 554 215 553 q 335 521 308 556 q 358 429 361 486 q 349 374 358 407 q 327 311 340 340 q 297 263 314 282 q 264 250 281 244 q 238 264 249 256 q 231 281 228 272 q 241 312 235 293 q 253 352 247 331 q 263 395 258 374 q 268 436 267 417 q 268 449 268 443 q 265 465 268 456 q 206 404 235 440 q 153 325 176 368 q 113 235 129 282 q 96 142 97 189 z "},"d":{"ha":465,"x_min":-4,"x_max":592,"o":"m 360 96 q 368 68 360 81 l 369 68 q 401 75 383 61 q 434 108 418 89 q 463 149 450 128 q 479 178 475 169 q 488 171 479 179 q 497 161 497 163 l 497 158 q 472 105 488 133 q 435 53 456 76 q 393 15 415 31 q 350 -1 371 -1 q 302 6 321 -3 q 272 44 283 15 q 272 47 272 46 q 271 49 271 47 l 271 50 q 263 82 264 65 q 260 113 261 99 q 237 84 251 103 q 203 47 222 65 q 160 14 183 28 q 110 0 136 0 l 90 0 q 31 25 56 1 q 0 89 7 49 q -1 100 -1 94 q -1 113 -1 106 q 22 259 -4 192 q 92 390 47 326 q 130 441 106 410 q 184 499 154 472 q 244 541 214 526 q 301 542 275 556 q 331 513 324 524 q 343 479 338 503 q 399 631 369 556 q 457 782 429 706 q 505 829 471 818 q 575 821 539 840 q 589 802 592 813 q 581 781 586 792 q 526 660 553 719 q 474 539 499 600 q 434 430 451 485 q 401 319 417 375 q 374 213 388 265 q 360 96 360 160 m 301 328 q 318 397 308 363 q 339 467 328 431 q 277 440 311 467 q 210 372 243 414 q 148 281 176 331 q 106 183 119 231 q 99 149 101 168 q 95 113 96 131 q 97 83 94 96 q 110 68 100 71 q 115 67 111 67 l 121 67 q 158 81 139 68 q 195 113 178 94 q 228 155 213 132 q 257 199 244 178 q 283 263 272 231 q 301 328 294 296 z "},"e":{"ha":329,"x_min":-6,"x_max":367,"o":"m 161 -1 q 94 8 122 -1 q 48 33 67 17 q 19 72 29 50 q 4 117 8 93 q -1 208 -6 161 q 18 302 3 256 q 57 391 33 349 q 111 469 81 433 q 149 507 128 488 q 196 538 171 526 q 249 551 221 550 q 308 536 278 553 q 353 480 340 519 q 356 403 367 440 q 269 273 332 315 q 100 226 206 231 q 88 171 89 199 q 95 121 88 143 q 119 83 103 99 q 160 67 136 68 q 263 92 213 63 q 342 178 314 122 q 351 171 342 179 q 360 161 360 163 l 360 158 q 285 46 338 92 q 161 -1 233 0 m 253 468 q 214 435 236 460 q 171 379 192 411 q 132 313 150 347 q 106 249 114 278 q 181 283 149 260 q 231 336 213 306 q 256 401 250 367 q 253 468 261 435 z "},"f":{"ha":374,"x_min":-42,"x_max":515,"o":"m 151 -243 q 108 -263 131 -258 q 63 -262 85 -268 q 22 -240 40 -256 q -11 -201 3 -225 q -37 -117 -33 -160 q -36 -31 -42 -74 q 49 333 -12 160 q 194 674 111 506 q 226 740 210 707 q 263 806 243 774 q 311 832 278 829 q 367 814 344 835 q 375 801 374 807 q 375 789 376 794 q 369 778 374 783 q 363 768 365 774 q 324 690 346 735 q 280 598 303 646 q 235 503 257 550 q 196 421 214 457 l 201 421 q 258 424 222 422 q 331 426 293 425 q 405 429 369 428 q 460 433 440 431 q 487 436 474 436 q 515 438 500 436 q 490 394 510 410 q 440 375 471 379 q 360 360 407 368 q 276 346 313 353 q 338 194 328 278 q 327 29 349 111 q 259 -125 306 -53 q 151 -243 213 -197 m 76 -218 q 144 -171 111 -212 q 202 -69 178 -129 q 238 59 226 -10 q 239 186 249 128 q 212 269 232 228 q 157 335 192 310 q 124 238 140 285 q 97 144 108 192 q 76 49 85 97 q 60 -47 68 1 q 55 -92 57 -67 q 53 -143 53 -118 q 60 -189 54 -168 q 76 -218 65 -210 z "},"g":{"ha":404,"x_min":-354,"x_max":801,"o":"m 207 17 q 212 35 210 26 q 217 50 214 43 q 156 18 185 35 q 92 1 126 1 q 21 40 43 1 q -1 131 -1 78 q 18 247 -1 192 q 68 353 38 301 q 110 417 86 382 q 161 481 135 451 q 214 531 188 511 q 263 551 240 551 q 344 488 304 551 l 350 481 l 357 486 q 406 500 375 500 q 435 497 418 500 q 453 472 453 494 q 449 450 453 460 q 416 361 433 410 q 380 260 399 313 q 343 151 361 207 q 307 42 325 96 l 286 -21 q 460 -33 369 -28 q 643 -49 551 -37 l 653 -50 q 690 -56 672 -53 q 728 -61 708 -58 q 784 -79 767 -64 q 790 -131 801 -94 q 772 -147 783 -149 q 750 -143 761 -144 l 688 -129 q 492 -103 592 -117 q 274 -76 392 -90 q 122 -228 214 -183 q -112 -275 29 -274 q -187 -266 -146 -275 q -267 -238 -229 -257 q -329 -191 -304 -219 q -354 -124 -354 -162 q -301 -51 -354 -75 q -164 -19 -247 -26 q 16 -13 -78 -12 q 196 -19 110 -14 l 207 17 m -243 -183 q -84 -218 -172 -222 q 83 -169 4 -214 q 139 -126 115 -150 q 174 -72 163 -101 q 27 -72 107 -72 q -123 -75 -53 -71 q -240 -92 -193 -79 q -286 -132 -286 -106 q -243 -183 -286 -161 m 240 207 q 290 334 268 269 q 336 464 313 399 q 265 433 304 467 q 189 347 225 399 q 126 234 153 294 q 94 125 100 174 q 94 78 90 92 q 108 64 99 64 q 134 75 118 64 q 169 104 150 86 q 210 152 193 125 q 240 207 228 179 z "},"h":{"ha":447,"x_min":-22,"x_max":489,"o":"m 349 451 q 247 374 301 432 q 133 215 192 317 q 94 125 110 175 q 68 31 79 75 q 58 4 65 15 q 31 -7 50 -7 q -6 9 10 -6 q -21 40 -22 24 q -12 107 -18 74 q 1 172 -7 140 q 45 329 21 254 q 98 476 69 404 q 157 621 126 549 q 221 771 188 693 q 243 797 226 786 q 279 811 260 807 q 317 811 299 815 q 346 794 335 807 q 349 780 350 789 q 344 764 347 771 l 186 418 q 165 369 175 396 q 144 311 156 342 l 143 308 q 195 384 165 343 q 260 462 225 425 q 335 524 296 499 q 417 550 375 549 q 458 538 442 551 q 476 504 474 525 q 468 474 474 489 q 417 335 444 410 q 371 196 390 260 q 363 169 368 189 q 355 126 358 149 q 352 87 351 104 q 361 67 353 69 q 394 76 376 63 q 426 108 411 89 q 454 148 442 128 q 472 176 467 168 q 481 169 472 175 q 489 161 489 163 l 489 158 q 463 105 479 133 q 427 53 447 76 q 385 15 407 31 q 342 -1 363 -1 q 290 8 310 -1 q 262 37 271 18 q 251 81 253 56 q 254 139 250 107 q 270 213 260 172 q 294 297 281 254 q 322 379 308 339 q 349 451 336 419 z "},"i":{"ha":185,"x_min":-6,"x_max":281,"o":"m 88 425 l 96 446 q 122 465 103 460 q 157 472 142 469 q 190 474 172 475 q 225 461 208 472 q 233 453 233 457 q 228 443 233 450 q 189 375 207 408 q 156 310 171 342 q 120 221 136 265 q 97 128 104 176 q 104 71 90 76 q 135 77 118 64 q 169 110 153 90 q 197 151 185 131 q 214 179 210 171 q 223 172 214 181 q 232 163 232 164 l 232 160 q 206 107 222 135 q 171 56 190 79 q 129 17 151 32 q 86 0 107 1 q 61 0 75 -3 q 13 28 28 4 q -3 85 -1 51 q 1 157 -6 118 q 18 229 8 196 q 19 231 18 231 q 19 235 19 232 l 24 246 q 38 288 29 264 q 54 335 46 311 q 70 382 63 360 q 85 419 78 404 l 88 425 m 190 518 q 156 541 163 517 q 157 595 149 565 q 185 649 165 625 q 232 674 206 674 q 265 667 254 676 q 278 639 275 657 q 274 599 281 621 q 256 560 268 578 q 226 530 243 542 q 190 518 208 518 z "},"j":{"ha":147,"x_min":-607,"x_max":549,"o":"m 188 429 q 128 265 156 347 q 72 100 100 183 l 74 101 l 54 42 l 33 -21 q 208 -33 117 -28 q 390 -49 299 -37 l 400 -50 q 438 -56 419 -53 q 475 -61 456 -58 q 531 -79 514 -64 q 538 -131 549 -94 q 519 -147 531 -149 q 497 -143 508 -144 l 435 -129 q 239 -103 339 -117 q 21 -76 139 -90 q -57 -178 -12 -139 q -153 -238 -101 -217 q -258 -267 -204 -260 q -365 -275 -312 -275 q -440 -266 -399 -275 q -519 -239 -482 -257 q -582 -193 -557 -221 q -607 -129 -607 -165 l -607 -124 q -553 -51 -607 -75 q -417 -19 -500 -26 q -236 -11 -332 -12 q -56 -15 -140 -10 q -18 108 -35 49 q 15 225 -1 168 q 49 338 32 282 q 88 450 67 393 q 94 470 92 461 q 102 486 97 479 q 116 497 107 493 q 143 501 125 501 q 185 493 172 501 q 197 468 197 485 q 194 450 197 460 q 188 429 192 440 m -496 -183 q -351 -218 -432 -218 q -266 -208 -310 -218 q -185 -178 -222 -197 q -119 -132 -147 -158 q -79 -72 -90 -106 q -226 -72 -146 -72 q -376 -75 -306 -71 q -492 -92 -446 -79 q -539 -132 -539 -106 q -496 -183 -539 -161 m 163 553 q 128 576 135 551 q 129 630 121 600 q 158 684 138 660 q 204 708 178 708 q 237 701 226 711 q 250 674 247 692 q 247 634 253 656 q 228 594 240 613 q 198 565 215 576 q 163 553 181 553 z "},"k":{"ha":389,"x_min":-35,"x_max":469,"o":"m 333 76 q 360 99 347 85 q 382 128 372 113 q 399 158 392 144 q 410 178 407 171 q 419 171 410 179 q 428 161 428 163 l 428 158 q 406 106 421 132 q 374 58 392 79 q 335 21 356 36 q 293 1 314 6 q 233 2 264 -4 q 175 28 201 8 q 130 83 149 49 q 108 167 111 117 q 85 99 97 138 q 65 33 74 60 q 42 6 58 14 q 7 0 26 -3 q -22 10 -10 1 q -28 42 -35 19 q -11 106 -28 54 q 31 229 6 157 q 86 385 56 301 q 146 544 117 468 q 199 681 175 621 q 235 769 222 742 q 258 795 242 785 q 294 810 275 806 q 331 810 313 814 q 360 793 349 806 q 363 778 364 788 q 358 763 361 769 q 276 578 317 671 q 194 394 236 486 l 185 372 q 218 421 197 397 q 265 464 239 444 q 318 499 290 483 q 374 524 346 514 q 400 531 386 528 q 428 533 414 535 q 449 525 438 532 q 463 511 460 518 q 461 481 469 490 q 442 468 453 472 q 399 448 414 457 q 363 429 383 439 q 299 394 329 413 q 243 353 268 375 q 200 301 218 331 q 174 235 182 272 q 181 172 168 206 q 219 110 194 138 q 274 72 243 83 q 333 76 304 60 z "},"l":{"ha":207,"x_min":-10,"x_max":351,"o":"m 218 497 q 178 400 197 444 q 138 303 158 356 q 123 264 132 290 q 106 208 114 238 q 94 148 99 178 q 92 97 89 118 q 92 93 92 93 q 92 90 92 90 q 93 86 93 89 q 94 84 93 85 q 94 82 94 83 q 99 74 97 78 q 106 68 101 71 q 137 75 118 63 q 175 107 156 88 q 210 147 194 126 q 233 175 226 167 q 240 168 233 176 q 246 158 247 160 l 244 156 q 213 103 232 131 q 170 52 193 75 q 123 15 147 29 q 75 0 99 0 q -7 83 -1 0 q -4 150 -10 114 q 10 220 1 186 q 28 284 18 254 q 44 333 38 314 q 97 487 69 415 q 157 642 125 558 q 188 717 176 692 q 211 763 200 743 q 271 813 232 799 q 340 808 310 826 q 350 795 351 801 q 344 776 349 789 q 282 640 318 707 q 218 497 246 572 z "},"m":{"ha":621,"x_min":-18,"x_max":654,"o":"m 418 139 q 438 215 425 175 q 464 294 450 256 l 472 318 q 429 263 456 297 q 375 190 403 229 q 322 110 347 151 q 283 35 297 69 q 264 10 275 17 q 235 3 253 4 q 201 12 215 3 q 189 38 188 21 q 203 169 196 108 q 226 289 211 231 q 192 235 211 265 q 153 174 172 206 q 114 113 133 143 q 81 56 94 82 q 59 17 75 32 q 13 1 43 1 q -8 10 1 1 q -15 43 -18 19 q -1 129 -8 86 q 17 213 6 172 q 36 290 26 256 q 56 358 46 325 q 78 422 67 390 q 101 489 89 453 q 122 515 107 506 q 154 528 136 525 q 190 528 172 532 q 222 513 208 524 q 228 497 226 508 q 228 479 231 486 q 179 380 200 424 q 138 283 158 336 q 117 219 126 254 q 265 419 210 350 q 331 508 319 489 q 354 528 339 525 q 386 529 369 532 q 425 511 418 525 q 421 469 432 497 q 300 178 358 324 l 300 175 q 376 283 336 229 q 454 389 417 336 q 495 446 474 418 q 540 500 517 474 q 560 516 547 508 q 583 524 572 524 q 624 512 608 525 q 642 478 639 499 q 638 463 640 471 q 632 447 635 456 q 581 322 606 383 q 536 196 557 260 q 528 169 533 189 q 519 126 522 149 q 515 87 515 104 q 524 67 515 69 q 556 76 538 63 q 590 108 574 89 q 619 148 606 128 q 638 176 632 168 q 646 169 638 175 q 654 161 654 163 l 654 158 q 626 105 643 133 q 589 53 610 76 q 545 15 568 31 q 501 -1 522 -1 q 451 8 469 -1 q 423 37 432 18 q 414 81 414 56 q 418 139 414 107 z "},"n":{"ha":446,"x_min":-11,"x_max":492,"o":"m 344 -1 q 294 8 313 -1 q 267 37 275 18 q 258 81 258 56 q 261 139 257 107 q 278 214 267 172 q 303 298 289 256 q 331 381 317 340 q 358 454 346 422 q 306 426 335 444 q 248 381 278 408 q 188 313 218 353 q 132 222 158 274 q 110 162 121 200 q 90 88 100 124 q 66 25 79 51 q 35 -1 53 -1 q 0 10 8 0 q -11 38 -8 19 q -10 53 -10 43 q 113 503 19 285 q 136 526 119 518 q 172 532 153 533 q 193 529 181 532 q 216 519 206 526 q 231 502 226 513 q 231 479 236 492 q 201 422 215 450 q 172 363 186 393 q 219 422 190 389 q 281 482 247 454 q 351 529 315 510 q 421 550 388 549 q 462 538 446 551 q 481 504 478 525 q 472 474 478 489 q 421 335 449 410 q 374 196 393 260 q 366 169 371 189 q 358 126 361 149 q 355 87 354 104 q 364 67 356 69 q 397 76 379 63 q 429 108 414 89 q 457 148 444 128 q 475 176 469 168 q 483 169 475 175 q 492 161 492 163 l 492 158 q 466 105 482 133 q 430 53 450 76 q 388 15 410 31 q 344 -1 365 -1 z "},"o":{"ha":381,"x_min":0,"x_max":483,"o":"m 482 353 q 471 321 479 339 q 447 286 463 303 q 408 256 432 269 q 350 239 383 243 q 310 157 335 203 q 254 72 286 111 q 181 10 222 33 q 93 -4 140 -14 q 22 53 43 6 q 0 175 0 101 q 18 292 0 226 q 67 417 36 358 q 137 517 97 476 q 217 558 176 558 q 243 554 232 558 q 269 546 254 550 q 342 506 319 535 q 369 439 364 476 q 369 362 375 401 q 357 289 364 322 q 394 294 376 288 q 429 310 413 300 q 459 333 446 321 q 481 357 472 346 q 483 356 481 357 l 482 353 m 126 43 q 156 54 142 42 q 183 83 171 67 q 206 118 196 100 q 219 146 215 136 q 260 250 244 194 q 208 279 226 260 q 181 320 189 299 q 173 364 172 342 q 178 401 174 386 q 118 269 144 339 q 90 139 92 199 q 99 76 90 108 q 126 43 107 44 m 268 453 q 253 451 261 457 q 238 424 244 446 q 234 392 233 411 q 239 354 235 372 q 252 322 243 336 q 274 306 261 307 q 278 386 278 343 q 268 453 278 429 z "},"p":{"ha":443,"x_min":-104,"x_max":550,"o":"m 550 304 q 524 292 542 300 q 487 274 507 283 q 449 255 467 264 q 422 240 431 246 q 388 158 410 199 q 334 85 365 118 q 263 28 303 51 q 176 0 224 6 q 131 17 143 -4 q 132 71 118 39 q 209 178 160 136 q 319 254 258 221 q 331 345 329 300 q 328 424 333 390 q 303 472 321 464 q 257 449 285 479 q 190 356 221 410 q 135 243 160 303 q 92 120 111 183 q 61 -1 74 57 q 38 -113 50 -54 q 15 -239 25 -172 q -15 -274 11 -267 q -72 -274 -42 -282 q -94 -229 -104 -264 q -43 -41 -68 -132 q 6 138 -18 50 q 57 314 31 226 q 115 492 83 401 q 236 532 146 588 l 217 492 q 251 515 236 503 q 282 535 267 528 q 351 549 324 553 q 397 527 379 546 q 423 478 414 508 q 434 415 432 449 q 434 349 436 382 q 428 290 432 315 q 487 320 451 304 q 546 351 522 336 l 550 304 m 188 67 q 180 46 181 51 q 184 40 179 40 q 197 44 189 40 q 214 56 204 49 q 276 119 253 79 q 311 190 300 158 q 285 172 301 183 q 251 146 269 161 q 216 110 233 131 q 188 67 199 90 z "},"q":{"ha":419,"x_min":-7,"x_max":626,"o":"m 311 -1 q 271 3 288 -1 q 260 -41 265 -19 q 250 -82 254 -62 q 374 -44 308 -54 q 501 -35 439 -35 q 548 -37 525 -35 q 588 -46 571 -39 q 616 -65 606 -53 q 625 -96 626 -76 q 614 -106 625 -104 q 584 -108 603 -108 q 538 -106 565 -107 q 479 -106 511 -104 q 310 -141 375 -110 q 199 -244 246 -172 q 149 -271 183 -271 q 128 -271 135 -271 q 119 -266 121 -271 q 119 -248 117 -261 q 128 -208 121 -235 q 142 -156 133 -187 q 160 -87 150 -124 q 180 -15 169 -51 q 199 51 190 21 q 149 17 176 33 q 95 1 121 1 q 49 12 69 0 q 14 47 28 24 q -1 101 0 69 q 20 254 -7 185 q 92 390 47 324 q 219 531 144 468 q 258 550 238 547 q 297 544 279 553 q 328 517 315 536 q 346 472 342 499 q 404 492 375 486 q 461 482 433 497 q 472 472 472 475 q 465 457 472 469 q 391 317 422 385 q 342 197 360 250 q 322 108 325 143 q 331 68 318 74 q 362 75 344 61 q 395 108 379 89 q 424 149 411 128 q 440 178 436 169 q 449 171 440 179 q 458 161 458 163 l 458 158 q 433 105 449 133 q 397 53 417 76 q 354 15 376 31 q 311 -1 332 -1 m 240 207 q 289 334 265 269 q 336 464 313 399 q 265 433 304 467 q 189 348 225 399 q 126 238 153 297 q 94 129 100 178 q 98 79 90 93 q 121 67 106 65 q 161 83 143 68 q 194 117 179 97 q 220 162 208 138 q 240 207 232 186 z "},"r":{"ha":325,"x_min":-11,"x_max":357,"o":"m 129 60 q 128 130 125 93 q 140 203 132 167 q 159 271 149 239 q 178 325 169 303 q 172 353 185 340 q 140 376 160 365 q 87 264 107 307 q 53 193 67 221 q 28 146 39 165 q 6 106 18 126 q -1 106 6 100 q -11 115 -8 113 q 44 256 17 185 q 82 379 71 326 q 87 395 85 388 q 88 410 89 403 q 74 454 88 425 q 49 517 60 483 q 52 531 44 526 q 72 538 60 536 q 97 540 83 540 q 117 540 110 540 q 172 534 146 540 q 200 501 199 528 q 217 428 203 456 q 268 374 232 401 q 293 336 293 356 q 282 299 293 324 q 258 241 268 265 q 240 197 247 217 q 229 159 233 176 q 222 122 225 142 q 222 119 222 121 q 221 117 221 118 q 229 68 214 75 q 260 75 243 61 q 294 108 278 89 q 322 149 310 128 q 339 178 335 169 q 348 171 339 179 q 357 161 357 163 l 357 158 q 331 106 347 133 q 295 55 315 78 q 253 17 275 32 q 210 -1 231 1 q 155 12 176 -6 q 129 60 133 29 z "},"s":{"ha":315,"x_min":-76,"x_max":410,"o":"m 410 317 q 372 294 393 306 q 326 269 350 282 q 279 244 303 257 q 238 218 256 231 q 240 210 238 217 q 247 195 243 203 q 253 181 250 188 q 256 174 256 175 q 269 135 264 154 q 275 97 275 117 q 260 50 275 72 q 223 11 246 28 q 173 -15 200 -6 q 121 -25 146 -25 q 40 0 65 -25 q 15 61 15 25 q 51 150 18 110 q 125 225 85 190 q 123 248 128 244 q 117 246 118 251 l -58 19 q -68 24 -64 22 q -76 26 -72 25 q 12 170 -36 97 q 104 306 60 243 q 100 369 100 356 q 126 478 100 428 q 197 553 151 529 q 214 558 204 556 q 231 561 224 561 q 268 533 261 561 q 266 467 275 506 q 236 385 257 428 q 190 311 215 342 q 199 286 196 303 q 210 261 203 269 q 311 299 265 285 q 410 339 357 314 l 410 317 m 86 38 q 98 25 88 28 q 124 28 108 22 q 158 57 144 35 q 165 114 171 79 q 158 150 163 133 q 106 84 126 115 q 86 38 85 53 m 192 469 q 169 456 181 468 q 153 421 158 443 q 153 367 146 383 l 192 469 z "},"t":{"ha":201,"x_min":-31,"x_max":749,"o":"m 235 542 q 195 449 214 492 q 160 365 176 406 q 131 284 144 325 q 103 196 117 243 q 92 157 99 186 q 85 103 86 128 q 86 82 83 94 q 103 67 89 69 q 160 96 126 63 q 197 144 183 119 q 217 178 211 168 l 218 176 l 218 178 q 227 171 218 179 q 236 161 236 163 l 236 158 q 208 105 226 133 q 167 53 190 76 q 120 15 144 31 q 75 -1 96 -1 l 68 -1 q -8 39 7 0 q -14 139 -22 78 l -6 183 q 22 290 6 238 q 56 390 39 343 q 86 475 72 436 q 108 540 100 514 q 71 541 89 542 q 35 543 53 540 q -4 551 15 546 q -28 578 -24 556 q -24 608 -31 593 q -12 635 -17 624 q 17 632 -3 632 q 60 632 38 632 q 106 633 83 632 q 144 635 129 635 q 158 663 149 646 q 181 703 168 679 q 232 751 200 739 q 300 747 264 764 q 315 729 318 740 q 308 707 313 718 l 278 640 q 292 639 286 639 q 303 639 297 639 q 504 639 403 639 q 706 636 606 639 q 720 636 713 638 q 732 632 728 635 q 746 608 743 621 q 725 590 749 594 q 606 578 668 583 q 481 566 544 572 q 356 553 418 560 q 235 542 293 547 z "},"u":{"ha":442,"x_min":-1,"x_max":475,"o":"m 229 486 q 199 435 218 475 q 162 349 181 396 q 126 258 143 301 q 104 194 110 214 q 97 167 101 186 q 88 128 92 149 q 86 91 85 108 q 99 68 88 74 q 152 80 124 56 q 207 143 181 104 q 253 226 233 182 q 282 294 274 269 l 293 331 l 336 481 q 344 500 338 492 q 361 513 351 508 q 380 521 371 518 q 394 524 389 524 q 435 512 419 525 q 454 478 451 499 q 446 447 451 463 q 399 322 422 383 q 357 196 376 260 q 349 169 354 189 q 341 126 344 149 q 338 87 338 104 q 347 67 339 69 q 380 76 363 63 q 413 108 397 89 q 440 148 428 128 q 458 176 453 168 q 467 169 458 175 q 475 161 475 163 l 475 158 q 449 105 465 133 q 413 53 433 76 q 371 15 393 31 q 328 -1 349 -1 q 252 29 269 -3 q 238 114 235 61 q 208 68 228 93 q 162 24 188 43 q 106 -1 136 6 q 47 11 76 -7 q 9 55 19 28 q 1 111 -1 82 q 10 185 6 153 q 23 249 15 218 q 40 310 31 279 q 64 381 50 342 l 67 386 l 81 424 l 100 469 q 133 499 110 492 q 179 504 157 506 q 217 497 201 503 q 229 486 233 490 z "},"v":{"ha":336,"x_min":1,"x_max":439,"o":"m 89 64 q 169 162 129 103 q 242 285 210 221 q 296 411 275 350 q 318 515 317 472 q 340 547 319 543 q 383 540 360 550 q 422 511 406 529 q 433 478 439 493 q 383 362 413 421 q 317 247 353 303 q 243 139 282 190 q 165 49 204 88 q 91 0 122 6 q 40 17 60 -6 q 10 86 19 40 q 3 190 1 132 q 15 286 4 235 q 40 383 25 338 q 72 458 54 428 q 103 488 89 488 q 179 480 151 490 q 199 454 207 469 q 162 380 186 426 q 117 278 138 333 q 85 167 96 224 q 89 64 75 111 z "},"w":{"ha":475,"x_min":-3,"x_max":565,"o":"m 231 10 q 219 40 224 15 q 216 101 215 64 q 222 183 217 138 q 238 275 226 229 q 210 219 229 254 q 167 146 190 185 q 119 70 143 107 q 81 10 96 33 q 64 1 78 4 q 32 3 50 -1 q 10 24 18 6 q 0 68 3 42 q -2 126 -3 94 q 1 189 -1 158 q 19 283 6 233 q 49 375 32 332 q 84 447 65 418 q 118 481 103 476 q 186 483 165 493 q 197 450 207 472 q 164 384 186 425 q 120 292 142 343 q 82 183 99 242 q 65 65 65 125 l 72 76 l 271 465 l 332 444 q 351 410 350 438 q 342 338 351 382 q 317 238 332 294 q 292 119 303 182 q 343 206 317 156 q 395 313 369 256 q 443 431 421 371 q 481 546 465 490 q 532 543 514 550 q 558 524 550 536 q 565 495 565 511 q 560 465 564 479 q 526 384 547 431 q 478 288 504 338 q 422 190 451 239 q 365 101 393 142 q 315 33 338 61 q 276 -3 292 6 q 260 -3 274 -4 q 231 10 246 -3 z "},"x":{"ha":311,"x_min":-96,"x_max":393,"o":"m 282 -10 q 173 22 217 -24 q 106 154 129 67 l -85 -33 q -94 -26 -92 -33 q -95 -8 -96 -18 q -92 14 -94 3 q -87 31 -90 25 q -63 66 -85 39 q -14 127 -42 93 q 42 194 14 161 q 85 249 69 228 q 77 307 82 272 q 67 378 72 342 q 57 451 61 415 q 51 513 53 488 q 85 517 67 515 q 115 519 103 519 q 149 485 149 521 q 157 408 151 447 q 165 324 163 368 l 339 528 q 363 522 350 531 q 385 497 376 513 q 392 462 393 482 q 374 424 390 442 q 333 381 356 404 q 286 333 310 357 q 240 286 263 310 q 203 242 218 263 q 197 190 192 226 q 218 116 201 154 q 260 45 235 78 q 315 7 286 13 q 303 -1 306 1 q 299 -5 300 -4 q 294 -7 297 -6 q 282 -10 292 -8 z "},"y":{"ha":404,"x_min":-353,"x_max":803,"o":"m 481 483 q 415 328 468 454 q 288 -21 363 203 q 462 -33 371 -28 q 644 -49 553 -37 l 654 -50 q 692 -56 674 -53 q 729 -61 710 -58 q 785 -79 768 -64 q 792 -131 803 -94 q 774 -147 785 -149 q 751 -143 763 -144 l 689 -129 q 493 -103 593 -117 q 275 -76 393 -90 q 123 -228 215 -183 q -111 -275 31 -274 q -186 -266 -144 -275 q -265 -238 -228 -257 q -328 -191 -303 -219 q -353 -124 -353 -162 q -299 -51 -353 -75 q -162 -19 -246 -26 q 17 -13 -76 -12 q 197 -19 111 -14 l 208 17 q 212 32 210 25 q 217 46 214 39 l 217 49 l 229 88 q 201 57 217 72 q 166 29 185 42 q 126 8 147 17 q 86 0 106 0 q 33 20 58 0 q 3 79 8 40 q 11 214 -6 139 q 55 357 28 289 q 111 473 82 425 q 158 526 140 521 q 178 527 165 528 q 205 523 190 526 q 233 514 219 519 q 257 503 247 508 q 217 435 242 478 q 166 341 192 393 q 119 231 140 289 q 90 118 99 174 q 99 69 85 76 q 137 72 114 61 q 183 106 160 83 q 219 144 207 128 q 276 241 254 192 q 313 339 297 290 q 338 412 325 375 q 361 478 350 449 q 381 528 372 508 q 393 550 389 547 q 422 553 406 556 q 452 542 438 550 q 476 524 467 535 q 486 506 486 514 q 481 483 486 496 m -242 -183 q -83 -218 -171 -222 q 85 -169 6 -214 q 140 -126 117 -150 q 175 -72 164 -101 q 28 -72 108 -72 q -122 -75 -51 -71 q -238 -92 -192 -79 q -285 -132 -285 -106 q -242 -183 -285 -161 z "},"z":{"ha":286,"x_min":-40,"x_max":343,"o":"m 328 450 q 263 360 299 408 q 192 260 228 311 q 119 160 156 210 q 53 69 83 111 l 297 61 q 314 56 304 61 q 321 35 324 51 q 312 22 319 26 q 297 17 304 17 q 153 6 225 10 q 11 0 82 1 q -16 8 -4 0 q -34 31 -28 17 q -40 63 -40 44 q -31 100 -39 81 q -1 156 -18 131 q 32 210 15 182 q 75 273 51 239 q 123 343 99 307 q 172 415 147 379 q 218 482 197 450 q 172 463 194 479 q 122 440 150 447 q 89 441 100 435 q 65 479 78 447 q 63 502 63 489 q 67 524 64 515 q 115 533 93 528 q 159 544 138 539 q 203 552 181 549 q 254 556 226 556 q 295 547 275 556 q 328 524 315 539 q 342 491 340 510 q 328 450 343 472 m 44 71 l 42 71 q 44 71 42 71 z "}," ":{"ha":278,"x_min":0,"x_max":0,"o":""},"":{"ha":281,"x_min":-203,"x_max":544,"o":"m 14 793 q 100 849 53 829 q 199 877 147 868 q 305 888 251 886 q 411 892 358 890 q 494 893 460 893 q 531 890 528 893 q 542 866 540 878 q 544 844 544 854 q 539 825 543 833 q 532 813 535 817 q 513 808 528 808 q 477 808 497 807 q 435 809 457 808 q 396 808 413 810 q 357 665 378 743 q 315 508 336 588 q 272 351 293 428 q 233 208 251 274 q 182 26 210 115 q 122 -156 154 -64 q 116 -181 119 -168 q 106 -205 113 -194 q 88 -222 99 -215 q 57 -225 76 -228 q 158 294 101 33 q 292 806 214 556 q 194 794 243 814 q 111 736 144 775 q 67 645 78 697 q 83 538 56 593 q 129 422 118 479 q 133 310 140 365 q 100 199 125 254 q 38 90 75 144 l -140 -169 q -165 -190 -150 -183 q -203 -210 -179 -197 q -87 -6 -140 -101 q 19 186 -33 90 q 60 321 56 257 q 18 447 64 385 q -12 496 3 471 q -38 548 -28 521 q -53 606 -49 575 q -51 669 -58 636 q -27 736 -46 701 q 14 793 -8 771 z "},"*":{"ha":429,"x_min":46,"x_max":394,"o":"m 392 721 q 361 695 390 713 q 283 658 332 678 l 283 657 q 288 585 282 621 q 294 506 294 549 q 247 540 274 521 q 186 585 219 558 q 86 535 115 549 q 46 515 57 521 q 69 565 53 532 q 115 657 85 599 q 98 677 108 668 q 78 693 88 686 q 61 706 68 700 q 54 717 54 711 q 80 733 53 724 q 176 753 107 742 q 190 767 181 753 q 212 799 199 781 q 240 835 225 817 q 271 864 256 854 q 279 806 278 838 q 288 749 281 775 q 370 734 346 736 q 392 721 394 732 z "},"!":{"ha":517,"x_min":54,"x_max":446,"o":"m 417 863 q 446 821 446 843 q 435 781 446 806 q 337 578 389 685 q 240 358 285 472 q 216 292 228 326 q 190 224 204 258 q 181 203 186 215 q 164 193 175 190 q 144 208 146 196 q 143 226 143 221 q 154 318 143 260 q 183 442 165 376 q 222 575 200 508 q 263 692 243 642 q 284 748 271 715 q 312 810 297 781 q 342 860 326 839 q 371 881 357 881 q 391 876 381 881 q 417 863 401 871 m 147 157 q 181 132 175 157 q 179 78 188 107 q 150 24 171 49 q 103 -1 129 -1 q 70 8 81 -1 q 57 38 60 18 q 61 76 54 56 q 81 115 68 97 q 112 145 94 133 q 147 157 129 157 z "},"'":{"ha":233,"x_min":51,"x_max":181,"o":"m 176 701 q 130 645 167 669 q 51 601 93 621 q 66 647 58 621 q 81 697 74 674 q 97 754 89 725 q 113 758 103 757 q 135 757 124 758 q 156 752 146 756 q 171 743 167 749 q 180 724 179 736 q 176 701 181 711 z "},")":{"ha":547,"x_min":49,"x_max":419,"o":"m 393 668 q 419 481 419 576 q 401 308 419 392 q 349 149 382 225 q 272 5 315 72 q 181 -119 228 -62 q 140 -158 161 -142 q 89 -174 118 -174 q 49 -165 69 -174 q 97 -108 74 -133 q 142 -54 121 -82 q 217 69 182 1 q 276 210 251 136 q 315 360 301 283 q 329 510 329 436 q 318 610 329 558 q 285 711 307 661 q 231 807 264 761 q 154 890 197 853 q 170 912 161 906 q 190 918 179 918 q 233 901 210 918 q 334 804 297 865 q 393 668 371 743 z "},"#":{"ha":740,"x_min":113,"x_max":654,"o":"m 626 588 q 646 580 639 588 q 653 563 653 572 q 646 545 653 554 q 622 533 639 536 q 599 529 611 531 q 572 526 586 528 l 506 363 l 557 363 q 576 355 569 363 q 583 338 583 347 q 576 320 583 329 q 553 308 569 311 q 517 303 536 306 q 479 297 499 300 l 438 192 q 400 107 413 147 q 376 76 392 86 q 329 74 361 67 l 399 288 q 327 281 363 285 q 257 275 292 278 l 225 192 q 188 107 200 147 q 164 76 179 86 q 117 74 149 67 l 179 268 q 175 267 176 268 q 171 268 174 267 q 153 267 163 268 q 134 267 143 267 q 119 269 125 267 q 114 279 114 271 q 115 312 113 294 q 129 346 118 329 q 153 352 132 350 q 208 357 175 354 l 253 494 q 247 493 250 494 q 240 493 243 492 q 222 492 232 493 q 203 492 213 492 q 189 494 194 492 q 183 504 183 496 q 185 537 182 519 q 199 571 188 554 q 224 577 201 575 q 281 582 246 579 l 329 731 q 338 750 333 743 q 368 757 343 757 q 399 754 383 757 q 429 744 415 751 q 439 731 436 739 q 432 699 442 722 q 409 642 421 671 q 385 586 397 614 q 440 587 413 586 q 494 588 467 588 l 542 731 q 551 750 546 743 q 581 757 556 757 q 612 754 596 757 q 642 744 628 751 q 651 731 649 739 q 644 699 654 722 l 599 588 l 626 588 m 293 360 q 358 362 325 361 q 422 363 390 363 l 471 514 q 410 508 440 511 q 350 501 381 504 q 321 431 335 465 q 293 360 307 396 z "},"+":{"ha":685,"x_min":108,"x_max":583,"o":"m 281 115 q 263 103 274 104 q 242 107 253 101 q 225 124 232 113 q 221 153 218 136 q 265 278 238 208 q 220 274 242 275 q 179 271 199 272 q 173 269 176 271 q 167 269 169 268 q 149 269 158 271 q 130 268 139 268 q 115 271 121 268 q 110 283 110 274 q 111 322 108 301 q 125 363 114 343 q 183 374 131 371 q 304 381 235 378 q 325 437 315 410 q 343 489 335 464 l 346 500 q 355 516 351 506 q 363 535 358 526 q 372 547 367 543 q 385 547 376 551 q 418 525 400 539 q 450 492 436 511 q 442 455 453 485 q 413 383 432 425 l 557 383 q 576 374 569 383 q 583 354 583 365 q 576 333 583 343 q 553 318 569 322 q 468 304 515 311 q 369 290 421 297 q 318 189 343 238 q 281 115 293 140 z "},"":{"ha":776,"x_min":74,"x_max":704,"o":"m 704 574 q 670 419 703 492 q 584 292 638 347 q 462 206 531 238 q 321 174 393 174 q 139 231 204 174 q 74 407 74 289 q 100 567 74 492 q 171 701 126 643 q 274 796 215 760 q 396 840 332 832 q 533 834 475 850 q 629 783 592 818 q 685 694 667 747 q 704 574 704 640 m 654 529 q 658 556 657 543 q 660 581 660 568 q 647 663 660 624 q 608 730 635 701 q 540 774 582 758 q 439 785 499 789 q 340 756 383 781 q 267 694 297 731 q 215 613 236 657 q 182 528 194 568 q 165 455 169 488 q 160 407 160 422 q 173 317 160 353 q 209 260 186 281 q 262 230 232 239 q 324 221 292 221 q 452 247 396 221 q 549 317 508 274 q 616 416 590 361 q 654 529 642 471 m 464 717 q 509 708 492 717 q 536 685 526 699 q 549 653 546 671 q 553 618 553 636 q 549 577 553 597 q 541 542 546 557 q 530 517 536 526 q 518 507 524 507 q 475 524 506 507 q 485 566 479 543 q 492 608 492 589 q 476 651 492 640 q 435 643 461 663 q 370 539 393 599 q 347 417 347 479 q 365 353 347 367 q 406 349 382 339 q 453 385 429 358 q 492 442 478 411 q 504 442 494 449 q 528 432 514 436 q 501 369 524 397 q 449 322 479 340 q 385 297 419 304 q 323 299 351 290 q 276 332 294 307 q 258 404 257 357 q 271 503 258 450 q 308 603 283 557 q 372 682 333 650 q 464 717 411 714 z "},"%":{"ha":971,"x_min":167,"x_max":885,"o":"m 479 729 q 463 635 479 679 q 420 559 446 592 q 363 506 394 526 q 300 481 331 485 q 199 510 231 471 q 172 611 167 550 q 197 706 176 663 q 249 779 218 749 q 321 824 281 810 q 404 835 361 839 q 459 801 439 832 q 479 729 479 769 m 419 715 q 401 760 415 749 q 369 769 388 772 q 330 749 350 765 q 293 706 310 732 q 265 649 276 681 q 256 586 254 618 q 285 538 257 544 q 346 553 314 532 q 402 616 378 574 q 419 715 426 658 m 471 167 q 447 101 458 135 q 421 32 435 67 q 411 11 417 24 q 394 1 406 -1 q 375 17 376 4 q 374 35 374 29 q 378 92 374 57 q 392 168 383 126 q 419 283 403 221 q 453 406 435 344 q 489 526 471 468 q 524 632 507 585 q 549 704 533 663 q 582 784 564 746 q 619 849 600 822 q 656 875 638 875 q 677 872 668 875 q 714 851 686 868 q 728 830 726 843 q 726 802 731 817 q 716 774 722 788 q 706 751 710 760 q 588 472 644 621 q 472 167 531 322 l 471 167 m 885 361 q 868 267 885 311 q 826 191 851 224 q 768 138 800 158 q 706 113 736 117 q 604 142 636 103 q 578 243 572 182 q 603 338 582 294 q 655 411 624 381 q 726 456 686 442 q 810 467 767 471 q 865 433 844 464 q 885 361 885 401 m 825 347 q 807 392 821 381 q 774 401 793 404 q 735 381 756 397 q 699 338 715 364 q 671 281 682 313 q 661 218 660 250 q 691 170 663 176 q 751 185 719 164 q 808 248 783 206 q 825 347 832 290 z "},"/":{"ha":425,"x_min":50,"x_max":407,"o":"m 147 167 q 123 101 135 135 q 97 32 111 67 q 88 11 93 24 q 71 1 82 -1 q 51 17 53 4 q 50 35 50 29 q 55 92 50 57 q 68 168 60 126 q 95 283 79 221 q 129 406 111 344 q 165 526 147 468 q 200 632 183 585 q 225 704 210 663 q 258 784 240 746 q 295 849 276 822 q 332 875 314 875 q 353 872 344 875 q 390 851 363 868 q 405 830 403 843 q 403 802 407 817 q 392 774 399 788 q 382 751 386 760 q 264 472 321 621 q 149 167 207 322 l 147 167 z "},"]":{"ha":589,"x_min":-97,"x_max":599,"o":"m 528 932 q 587 899 575 917 q 589 843 599 882 q 507 578 553 711 q 407 319 461 444 q 292 78 353 193 q 163 -129 231 -36 q 131 -153 151 -144 q 83 -167 110 -161 q 27 -174 57 -172 q -29 -175 -3 -175 q -76 -165 -56 -176 q -90 -115 -97 -154 q 8 -103 -46 -108 q 106 -93 63 -99 q 166 14 133 -40 q 224 121 199 68 q 360 477 307 297 q 454 851 414 657 q 373 847 414 849 q 292 846 332 846 q 267 848 279 846 q 245 856 254 850 q 232 875 236 863 q 232 907 228 888 q 381 922 311 914 q 528 932 450 929 z "},"&":{"ha":800,"x_min":54,"x_max":779,"o":"m 565 310 q 633 233 610 260 q 669 189 657 206 q 684 160 681 172 q 692 128 688 147 q 686 82 696 107 q 660 36 676 57 q 624 1 643 15 q 588 -10 604 -12 q 586 -5 585 -10 q 590 6 588 0 q 597 19 593 13 q 600 29 600 25 q 585 85 600 53 q 551 145 569 117 q 517 193 532 174 q 504 213 503 213 q 486 197 494 213 q 422 123 457 160 q 347 56 386 86 q 267 6 308 25 q 182 -12 225 -12 q 87 28 119 -12 q 54 126 54 68 q 72 213 54 168 q 118 301 90 258 q 179 381 146 343 q 243 449 213 419 q 266 479 256 460 q 276 510 276 499 q 267 553 276 532 q 258 603 258 575 q 286 699 258 653 q 354 782 314 746 q 442 840 394 818 q 529 863 489 863 q 558 826 551 863 q 555 817 560 818 q 550 808 550 815 q 557 783 550 793 q 572 765 564 774 q 588 749 581 757 q 594 731 594 742 q 577 682 594 710 q 535 624 560 654 q 483 567 511 594 q 435 519 456 539 q 422 505 428 513 q 414 492 417 497 q 429 461 414 476 l 460 425 q 478 402 468 414 q 496 381 488 390 q 511 365 504 371 q 521 360 518 358 q 535 379 525 361 q 557 418 544 397 q 584 456 569 439 q 611 475 599 474 q 681 477 644 478 q 769 476 717 476 q 776 464 774 476 q 778 442 779 451 q 767 417 776 425 q 742 406 758 408 q 701 404 725 404 q 644 404 676 404 q 624 395 636 404 q 601 372 613 386 q 579 342 589 358 q 564 311 569 325 q 565 310 564 310 m 456 251 q 460 263 456 258 q 437 299 454 274 q 399 351 419 324 q 360 399 379 378 q 331 425 340 421 q 277 365 307 401 q 220 287 247 328 q 174 205 193 246 q 156 132 156 164 q 172 78 156 100 q 213 56 188 57 q 281 75 244 54 q 352 126 318 96 q 413 190 386 156 q 456 251 440 225 m 529 776 q 470 759 500 776 q 416 714 440 742 q 376 653 392 686 q 360 586 360 619 q 364 560 360 576 l 389 585 q 426 625 406 601 q 465 675 446 649 q 503 726 485 701 q 532 772 521 751 l 529 776 z "},"{":{"ha":436,"x_min":78,"x_max":636,"o":"m 503 933 q 574 926 546 939 q 617 892 603 914 q 634 840 632 869 q 626 783 636 811 q 601 832 622 811 q 556 858 581 853 q 509 850 532 864 q 478 794 486 836 q 469 706 471 750 q 457 614 468 661 q 411 506 443 551 q 335 429 379 461 q 322 420 328 425 q 311 413 315 415 q 318 343 326 381 q 301 302 317 336 q 267 221 286 268 q 227 121 247 174 q 196 23 207 68 q 187 -51 185 -22 q 214 -81 189 -81 q 278 -55 242 -81 q 372 24 314 -29 q 334 -53 360 -17 q 278 -116 308 -89 q 215 -159 247 -143 q 154 -175 182 -175 q 111 -162 128 -175 q 86 -128 94 -150 q 78 -78 78 -107 q 85 -18 78 -50 q 117 92 96 39 q 167 196 139 144 q 203 267 185 236 q 226 331 221 299 q 228 359 231 349 q 220 379 225 369 q 208 401 215 389 q 196 433 201 413 q 213 444 206 438 q 228 450 221 450 q 316 500 276 453 q 371 619 356 547 q 377 709 381 664 q 383 801 374 754 q 426 892 394 857 q 503 933 458 926 z "},"@":{"ha":763,"x_min":-1,"x_max":842,"o":"m 522 72 q 447 97 469 72 q 422 161 424 121 q 393 129 410 144 q 358 102 376 114 q 322 83 340 90 q 286 76 303 76 q 215 110 240 76 q 190 203 190 144 q 217 342 190 278 q 285 467 243 406 q 322 517 300 489 q 369 569 344 544 q 417 610 393 593 q 463 626 442 626 q 511 606 490 626 q 539 549 532 585 q 576 563 558 557 q 613 569 593 569 q 645 563 625 569 q 665 549 665 556 q 658 533 665 547 q 597 420 624 475 q 551 317 569 365 q 524 231 533 269 q 514 171 514 193 q 517 151 514 160 q 529 143 521 143 q 619 213 578 163 q 689 330 660 264 q 735 467 718 396 q 751 599 751 538 q 740 674 751 639 q 708 737 728 710 q 660 779 688 764 q 599 794 632 794 l 585 794 q 415 726 494 781 q 272 591 335 672 q 164 410 208 510 q 101 206 119 310 q 93 143 96 176 q 95 78 90 110 q 113 15 100 46 q 151 -39 126 -15 q 221 -74 176 -62 q 313 -86 265 -85 q 401 -80 360 -87 q 461 -57 442 -72 q 473 -49 467 -54 q 485 -40 479 -44 q 497 -35 492 -36 q 506 -42 501 -35 q 501 -64 513 -53 q 482 -82 490 -75 q 403 -119 449 -107 q 310 -133 358 -132 q 213 -124 261 -133 q 124 -93 164 -114 q 29 -5 60 -61 q -1 139 -1 51 q 22 322 -1 231 q 85 495 44 413 q 182 649 126 578 q 301 772 238 719 q 435 853 365 824 q 575 882 504 882 q 770 810 706 882 q 840 610 835 739 q 834 517 842 572 q 810 403 826 463 q 768 284 794 343 q 706 178 742 225 q 625 101 671 131 q 522 72 579 72 m 433 283 q 482 410 458 346 q 529 540 506 475 q 452 503 494 540 q 373 412 410 467 q 311 295 336 357 q 286 183 286 233 q 311 143 286 143 q 352 157 333 143 q 386 192 371 171 q 413 238 401 214 q 433 283 425 263 z "},"?":{"ha":643,"x_min":82,"x_max":600,"o":"m 154 639 q 179 738 154 693 q 244 813 204 782 q 331 859 283 843 q 425 875 379 875 q 530 841 489 875 q 585 758 571 807 q 588 655 600 710 q 532 557 575 600 q 479 510 511 536 q 411 454 447 483 q 339 392 375 425 q 273 326 303 360 q 225 260 243 293 q 207 196 207 226 q 203 183 207 189 q 196 176 199 176 q 164 197 172 178 q 156 233 156 217 q 181 324 156 282 q 243 403 206 367 q 325 475 281 440 q 408 543 369 510 q 472 610 446 576 q 501 683 499 644 q 486 740 504 721 q 440 762 468 758 q 378 756 411 765 q 315 725 344 746 q 264 675 285 704 q 242 611 243 646 q 242 594 242 604 q 242 574 243 585 q 238 557 242 564 q 226 550 235 550 q 197 558 210 550 q 174 580 183 567 q 159 609 164 593 q 154 639 154 625 m 175 157 q 209 132 203 157 q 207 78 215 107 q 178 24 199 49 q 131 -1 157 -1 q 98 8 108 -1 q 85 38 88 18 q 89 76 82 56 q 109 115 96 97 q 140 145 122 133 q 175 157 157 157 z "},"":{"ha":292,"x_min":49,"x_max":257,"o":"m 254 824 q 253 795 257 808 q 238 786 249 782 q 224 794 233 788 q 204 808 215 800 q 182 822 193 815 q 163 832 171 829 q 117 833 139 839 q 72 828 96 828 q 56 831 64 828 q 51 846 49 833 q 63 863 53 854 q 90 881 74 871 q 123 900 106 890 q 157 918 140 910 q 181 927 172 925 q 206 914 190 929 q 224 890 215 904 q 239 863 232 876 q 250 839 246 850 q 254 824 254 828 z "},"`":{"ha":322,"x_min":82,"x_max":221,"o":"m 156 901 q 180 877 169 893 q 198 841 190 861 q 211 799 206 821 q 221 754 217 776 q 181 779 204 765 q 135 807 157 793 q 83 840 110 822 q 85 856 82 846 q 92 876 88 865 q 103 895 97 886 q 115 908 108 904 q 137 911 125 914 q 156 901 149 908 z "},"":{"ha":717,"x_min":203,"x_max":718,"o":"m 708 851 q 715 840 718 851 q 665 708 692 778 q 610 575 638 638 q 592 560 603 560 q 561 560 581 560 q 554 583 547 560 q 572 631 560 599 q 596 692 585 663 q 613 740 607 722 q 614 742 619 757 l 610 731 q 574 685 594 713 q 535 631 554 657 q 497 585 515 604 q 469 565 479 565 q 463 583 464 565 q 462 625 461 601 q 464 672 463 649 q 467 707 465 696 q 434 636 450 674 q 407 571 418 599 q 389 557 400 554 q 363 560 378 560 q 349 562 351 560 q 350 571 347 564 q 363 605 353 581 q 387 660 374 629 q 415 726 400 692 q 444 788 431 760 q 467 833 457 815 q 482 851 478 851 l 515 851 q 524 832 524 851 q 521 785 524 813 q 515 727 518 757 q 513 676 513 697 q 572 751 543 715 q 629 825 601 788 q 670 851 647 850 q 708 851 693 851 m 436 858 q 458 853 451 858 q 460 832 465 847 q 449 813 456 819 q 433 805 443 807 q 406 802 422 803 q 361 800 389 801 l 276 590 q 258 567 269 571 q 231 563 246 563 q 212 566 221 563 q 206 575 203 569 l 292 794 l 232 794 q 221 801 224 794 q 219 815 218 807 q 223 833 221 824 q 228 847 225 842 q 236 856 231 854 q 247 858 242 858 q 313 858 279 858 q 378 857 346 857 q 407 858 393 857 q 436 858 421 858 z "},"":{"ha":564,"x_min":4,"x_max":499,"o":"m 413 663 q 453 635 438 653 q 480 598 469 618 q 494 557 490 578 q 499 521 499 536 q 488 458 499 492 q 460 396 478 424 q 417 349 442 368 q 365 331 393 331 q 351 335 358 331 q 344 346 344 339 q 349 358 344 353 q 357 369 354 364 q 396 446 376 403 q 415 525 415 489 q 410 556 415 543 q 394 571 406 569 q 374 561 382 571 q 363 539 367 551 q 278 316 322 432 q 196 93 235 200 l 196 92 q 226 88 210 88 q 280 97 256 88 q 322 117 304 106 q 352 137 340 128 q 369 146 364 146 q 383 133 376 146 q 386 114 389 121 q 316 53 360 74 q 225 33 272 33 q 199 34 214 33 q 172 38 183 35 q 167 22 171 31 q 158 3 163 13 q 147 -12 153 -6 q 138 -18 142 -18 q 117 -12 126 -18 q 108 0 108 -6 q 117 19 108 7 q 126 38 126 31 q 124 46 126 43 q 35 136 61 82 q 7 253 10 190 q 31 399 4 328 q 103 525 58 469 q 206 617 149 581 q 322 658 264 653 l 324 658 q 347 706 336 688 q 367 735 357 725 q 388 749 376 746 q 413 753 399 753 q 435 750 429 753 q 442 740 442 747 q 438 727 442 738 q 429 703 435 717 q 419 678 424 690 q 413 663 414 667 m 153 103 q 222 330 189 217 q 299 557 256 443 q 231 510 264 543 q 170 435 197 478 q 125 343 143 392 q 102 249 107 294 q 109 164 97 203 q 153 103 121 125 z "},"":{"ha":586,"x_min":71,"x_max":731,"o":"m 518 397 q 553 361 553 397 q 544 335 553 342 q 517 328 536 328 l 440 328 q 403 319 414 328 q 378 278 393 311 q 383 277 381 278 q 390 276 386 276 q 424 272 403 272 q 467 272 446 272 q 503 268 488 271 q 518 254 518 265 q 499 218 518 233 q 461 203 481 203 l 371 203 q 349 201 357 203 q 334 194 340 200 q 323 178 328 189 q 311 149 318 167 l 293 100 q 273 46 285 76 q 250 -7 261 15 q 233 -16 247 -14 q 202 -17 218 -18 q 173 -12 186 -17 q 160 -1 160 -8 q 164 15 160 7 q 190 78 178 46 q 211 138 201 110 l 236 208 l 169 208 q 142 208 158 208 q 110 208 125 207 q 83 214 94 208 q 71 232 71 219 q 76 264 71 251 q 104 276 82 276 l 156 276 q 181 276 168 275 q 208 278 194 278 l 246 278 q 246 302 246 292 q 242 319 246 313 q 226 328 238 325 q 193 331 215 331 q 178 330 186 331 q 163 329 169 329 l 131 329 q 107 334 117 329 q 97 357 97 339 q 103 387 97 371 q 132 406 108 403 l 203 406 q 215 406 210 406 q 219 414 219 407 q 218 424 219 419 q 183 578 199 499 q 146 732 168 657 q 144 741 144 738 q 143 747 143 744 q 160 765 143 763 q 200 767 178 767 l 235 767 q 255 764 249 767 q 263 752 261 761 q 267 726 265 743 q 275 679 268 708 l 290 575 q 296 534 292 563 q 305 477 300 506 q 316 426 310 449 q 328 404 322 404 l 335 404 q 340 403 338 404 q 346 403 343 403 q 382 433 367 403 l 415 485 q 474 574 442 524 q 537 668 507 624 q 589 743 567 713 q 618 774 611 774 l 626 774 q 649 776 638 775 q 668 776 660 776 q 715 770 700 776 q 731 757 731 764 q 730 755 731 756 q 729 753 729 754 q 602 575 669 668 q 471 397 535 482 l 518 397 l 518 397 z "},"":{"ha":732,"x_min":-6,"x_max":703,"o":"m 219 282 q 207 282 217 282 q 185 282 197 282 q 162 282 174 282 q 143 282 150 282 q 130 286 136 282 q 124 304 124 290 q 133 344 124 328 q 179 361 143 361 l 199 361 q 229 363 218 361 q 247 370 240 364 q 256 389 253 376 q 263 422 260 401 l 224 422 q 209 422 217 422 q 194 421 201 421 q 167 456 167 421 q 176 491 167 479 q 203 508 186 503 q 244 513 221 513 q 296 513 268 513 q 322 581 304 543 q 362 656 339 619 q 413 722 385 692 q 468 764 440 751 q 547 781 506 781 q 672 735 624 781 q 695 698 688 719 q 703 653 703 676 q 699 619 703 638 q 686 583 694 600 q 666 556 678 567 q 640 544 654 544 q 626 547 633 544 q 613 554 619 550 q 603 562 607 558 q 601 567 600 565 q 619 607 611 583 q 625 652 626 631 q 611 689 624 674 q 569 704 599 704 q 506 686 533 704 q 457 640 478 668 q 422 578 436 611 q 396 515 407 544 l 489 508 q 507 507 497 507 q 517 493 517 507 q 517 476 517 485 q 515 458 517 467 q 507 444 513 450 q 489 438 501 439 q 431 434 464 435 q 375 431 399 433 q 367 424 371 431 q 360 408 364 417 q 355 388 357 399 q 353 369 353 378 q 374 363 353 363 q 419 363 394 363 q 463 359 443 363 q 481 342 482 356 q 470 303 478 314 q 443 289 463 292 q 390 285 422 286 q 331 286 357 285 q 310 233 321 263 q 285 176 299 204 q 256 120 272 147 q 222 74 240 93 l 303 74 q 607 53 454 74 q 629 53 615 53 q 643 38 643 53 q 630 3 643 17 q 593 -11 617 -11 q 565 -8 578 -11 q 536 -6 551 -6 l 414 -6 q 232 -10 322 -6 q 51 -33 142 -14 q 36 -37 44 -35 q 21 -39 28 -39 q 3 -33 13 -39 q -6 -8 -6 -28 q 6 32 -6 11 q 32 56 17 53 q 96 76 69 60 q 141 115 122 92 q 174 166 160 138 q 200 224 188 194 q 210 252 204 235 q 219 281 217 269 l 219 282 l 219 282 z "},"":{"ha":735,"x_min":82,"x_max":610,"o":"m 607 701 q 601 626 610 663 q 578 554 593 590 q 552 529 567 533 q 518 532 538 525 q 505 542 508 536 q 501 555 501 547 q 503 569 501 563 q 506 583 506 576 q 520 642 511 613 q 524 710 529 672 q 462 658 489 689 q 415 595 435 628 q 381 532 394 563 q 358 479 367 501 q 424 476 388 476 q 492 468 460 475 q 496 429 507 464 q 483 406 490 414 q 461 401 476 397 q 431 406 449 404 q 395 408 414 407 q 360 409 376 410 q 332 407 343 408 q 316 364 324 386 q 313 340 308 342 q 366 340 336 340 q 419 339 396 339 q 436 336 428 339 q 443 324 444 333 q 438 299 444 313 q 419 285 431 285 q 360 281 396 283 q 294 269 325 278 q 288 240 292 258 q 281 201 285 222 q 276 159 278 181 q 274 119 274 138 q 278 83 274 101 q 297 57 282 64 q 326 58 314 50 q 356 82 339 67 q 425 199 401 128 q 436 216 431 208 q 453 219 442 224 q 465 209 460 217 q 471 190 471 201 q 455 129 468 161 q 421 69 442 97 q 376 22 400 42 q 326 -4 351 1 q 223 16 264 -18 q 181 128 182 50 q 182 190 179 154 q 194 257 185 226 q 151 244 175 251 q 117 232 126 238 q 95 242 101 225 q 85 274 89 260 q 85 295 82 289 q 103 310 89 301 q 120 317 107 313 q 150 325 133 321 q 183 333 167 329 q 210 339 199 336 q 219 376 213 354 q 231 414 225 399 q 185 408 204 413 q 143 401 165 404 q 132 399 138 401 q 122 397 126 397 q 115 401 118 397 q 110 415 111 404 q 117 453 107 435 q 144 475 126 471 q 169 478 154 476 q 201 483 185 481 q 233 487 218 485 q 260 490 249 489 q 322 613 285 550 q 400 722 360 675 q 451 763 424 746 q 511 782 479 779 q 575 765 547 786 q 607 701 603 743 z "},"(":{"ha":392,"x_min":115,"x_max":622,"o":"m 289 672 q 405 808 342 747 q 547 906 468 869 q 574 917 563 913 q 596 922 585 922 q 615 916 607 922 q 619 894 622 910 q 510 811 561 857 q 415 715 458 765 q 340 614 372 665 q 286 514 307 563 q 240 388 260 454 q 213 251 221 322 q 208 105 204 181 q 233 -50 213 29 q 258 -103 246 -78 q 281 -161 269 -129 q 239 -169 257 -169 q 194 -153 210 -169 q 168 -115 178 -137 q 130 9 144 -58 q 115 153 115 76 q 131 313 115 229 q 183 485 146 396 q 230 578 204 532 q 289 672 256 625 z "},"}":{"ha":414,"x_min":-58,"x_max":500,"o":"m 75 -172 q 3 -165 32 -178 q -40 -131 -25 -153 q -56 -79 -54 -108 q -49 -22 -58 -50 q -24 -71 -44 -50 q 22 -97 -3 -92 q 69 -89 46 -103 q 100 -33 92 -75 q 108 56 107 11 q 121 147 110 100 q 167 255 135 210 q 243 332 199 300 q 256 341 250 336 q 267 349 263 346 q 260 418 251 381 q 276 459 261 425 q 311 540 292 493 q 351 640 331 588 q 382 738 371 693 q 390 813 393 783 q 364 842 388 842 q 300 816 336 842 q 206 738 264 790 q 244 814 218 778 q 300 877 269 850 q 363 920 331 904 q 424 936 396 936 q 467 924 450 936 q 492 890 483 911 q 500 840 500 868 q 493 779 500 811 q 460 669 482 722 q 411 565 439 617 q 375 494 393 525 q 351 431 357 463 q 349 402 347 413 q 357 382 351 392 q 369 360 363 372 q 382 328 376 349 q 365 317 372 324 q 350 311 357 311 q 262 261 301 308 q 207 142 222 214 q 201 52 197 97 q 194 -40 204 7 q 151 -131 183 -96 q 75 -172 119 -165 z "},"[":{"ha":460,"x_min":-12,"x_max":685,"o":"m 60 -176 q -1 -145 11 -162 q -1 -87 -12 -128 q 81 178 35 44 q 181 437 126 311 q 296 676 235 563 q 425 885 357 790 q 457 908 436 899 q 504 922 478 917 q 560 929 531 928 q 617 931 589 931 q 664 921 643 932 q 678 871 685 910 q 579 859 633 864 q 482 849 525 854 q 422 742 454 796 q 364 635 389 688 q 227 278 281 458 q 133 -96 174 99 q 215 -92 174 -93 q 296 -90 256 -90 q 343 -101 322 -90 q 356 -151 364 -112 q 207 -166 276 -158 q 60 -176 138 -174 z "},"-":{"ha":742,"x_min":125,"x_max":600,"o":"m 574 383 q 593 374 586 383 q 600 354 600 365 q 593 333 600 343 q 569 318 586 322 q 486 304 533 311 q 388 291 439 297 q 288 279 338 285 q 196 271 238 274 q 190 269 193 271 q 183 269 186 268 q 165 269 175 271 q 147 268 156 268 q 132 271 138 268 q 126 283 126 274 q 128 322 125 301 q 142 363 131 343 q 172 372 144 368 q 239 378 199 375 q 328 381 279 381 q 424 383 376 382 q 510 383 471 383 q 574 383 550 383 z "},"=":{"ha":732,"x_min":125,"x_max":601,"o":"m 574 300 q 593 291 586 300 q 600 271 600 282 q 593 249 600 260 q 569 235 586 239 q 486 221 533 228 q 388 208 439 214 q 288 196 338 201 q 196 188 238 190 q 190 186 193 188 q 183 186 186 185 q 165 186 175 188 q 147 185 156 185 q 132 188 138 185 q 126 200 126 190 q 128 239 125 218 q 142 279 131 260 q 172 288 144 285 q 239 294 199 292 q 328 298 279 297 q 424 299 376 299 q 510 300 471 300 q 574 300 550 300 m 575 468 q 594 459 588 468 q 601 439 601 450 q 594 417 601 428 q 571 403 588 407 q 488 389 535 396 q 390 376 440 382 q 289 364 339 369 q 197 356 239 358 q 191 354 194 356 q 185 354 188 353 q 167 354 176 356 q 148 353 157 353 q 133 356 139 353 q 128 368 128 358 q 129 407 126 386 q 143 447 132 428 q 173 456 146 453 q 240 463 200 460 q 329 466 281 465 q 425 467 378 467 q 512 468 472 468 q 575 468 551 468 z "},"":{"ha":747,"x_min":125,"x_max":658,"o":"m 632 383 q 651 374 644 383 q 658 354 658 365 q 651 333 658 343 q 628 318 644 322 q 535 304 592 311 q 417 291 478 297 q 297 279 356 285 q 196 271 238 274 q 190 269 193 271 q 183 269 186 268 q 165 269 175 271 q 147 268 156 268 q 132 271 138 268 q 126 283 126 274 q 128 322 125 301 q 142 363 131 343 q 176 372 144 368 q 254 378 207 375 q 358 381 301 381 q 467 383 414 382 q 564 383 519 383 q 632 383 608 383 z "},"":{"ha":810,"x_min":96,"x_max":735,"o":"m 708 383 q 728 374 721 383 q 735 354 735 365 q 728 333 735 343 q 704 318 721 322 q 639 309 681 314 q 547 299 597 304 q 440 290 496 294 q 333 283 385 286 q 238 276 282 279 q 167 271 194 272 q 160 269 164 271 q 154 269 157 268 q 136 269 146 271 q 117 268 126 268 q 103 271 108 268 q 97 283 97 274 q 99 322 96 301 q 113 363 101 343 q 155 372 115 368 q 253 378 194 375 q 381 381 311 381 q 515 383 450 382 q 633 383 581 383 q 708 383 685 383 z "},"_":{"ha":851,"x_min":56,"x_max":808,"o":"m 782 -196 q 801 -205 794 -196 q 808 -225 808 -214 q 801 -247 808 -236 q 778 -261 794 -257 q 703 -270 753 -265 q 591 -280 654 -275 q 458 -289 528 -285 q 323 -297 388 -293 q 206 -303 258 -300 q 126 -308 154 -307 q 120 -310 124 -308 q 114 -310 117 -311 q 96 -310 106 -308 q 77 -311 86 -311 q 63 -308 68 -311 q 57 -296 57 -306 q 58 -257 56 -278 q 72 -217 61 -236 q 123 -208 75 -211 q 242 -201 171 -204 q 397 -198 313 -199 q 560 -197 482 -197 q 698 -196 638 -196 q 782 -196 758 -196 z "},".":{"ha":210,"x_min":50,"x_max":182,"o":"m 92 0 q 57 23 64 -1 q 58 77 50 47 q 87 131 67 107 q 133 156 107 156 q 166 149 156 158 q 179 121 176 139 q 176 81 182 103 q 157 42 169 60 q 127 12 144 24 q 92 0 110 0 z "},":":{"ha":333,"x_min":40,"x_max":250,"o":"m 160 369 q 125 392 132 368 q 126 447 118 417 q 155 501 135 476 q 201 525 175 525 q 234 518 224 528 q 247 490 244 508 q 244 451 250 472 q 225 411 238 429 q 195 381 213 393 q 160 369 178 369 m 82 0 q 47 23 54 -1 q 49 77 40 47 q 77 131 57 107 q 124 156 97 156 q 156 149 146 158 q 169 121 167 139 q 166 81 172 103 q 147 42 160 60 q 117 12 135 24 q 82 0 100 0 z "},";":{"ha":249,"x_min":0,"x_max":261,"o":"m 171 369 q 136 392 143 368 q 138 447 129 417 q 166 501 146 476 q 213 525 186 525 q 245 518 235 528 q 258 490 256 508 q 255 451 261 472 q 236 411 249 429 q 206 381 224 393 q 171 369 189 369 m 125 88 q 78 31 115 56 q 0 -12 42 7 q 15 33 7 7 q 29 83 22 60 q 46 140 38 111 q 62 144 51 143 q 83 143 72 144 q 105 138 94 142 q 119 129 115 135 q 128 110 128 122 q 125 88 129 97 z "},"":{"ha":297,"x_min":81,"x_max":219,"o":"m 146 901 q 165 911 153 908 q 186 908 176 914 q 198 895 192 904 q 209 876 204 886 q 217 856 214 865 q 218 840 219 846 q 165 807 190 822 q 120 779 143 793 q 81 754 97 765 q 90 799 85 776 q 103 841 96 821 q 122 877 111 861 q 146 901 132 893 z "},",":{"ha":265,"x_min":46,"x_max":175,"o":"m 171 86 q 124 30 161 54 q 46 -14 88 6 q 60 32 53 6 q 75 82 68 58 q 92 139 83 110 q 108 142 97 142 q 129 142 118 143 q 151 137 140 140 q 165 128 161 133 q 174 108 174 121 q 171 86 175 96 z "},"\"":{"ha":406,"x_min":72,"x_max":333,"o":"m 197 688 q 151 631 188 656 q 72 588 114 607 q 87 633 79 607 q 101 683 94 660 q 118 740 110 711 q 134 744 124 743 q 156 743 144 744 q 177 738 167 742 q 192 729 188 735 q 201 710 200 722 q 197 688 201 697 m 329 701 q 283 646 319 669 q 204 603 246 622 q 219 647 211 621 q 233 697 226 674 q 250 756 242 725 q 266 758 256 758 q 288 757 276 758 q 310 752 300 756 q 325 743 321 749 q 333 724 332 736 q 329 701 333 713 z "},"":{"ha":468,"x_min":139,"x_max":400,"o":"m 264 688 q 217 631 254 656 q 139 588 181 607 q 153 633 146 607 q 168 683 161 660 q 185 740 176 711 q 201 744 190 743 q 222 743 211 744 q 244 738 233 742 q 258 729 254 735 q 267 710 267 722 q 264 688 268 697 m 396 701 q 349 646 386 669 q 271 603 313 622 q 285 647 278 621 q 300 697 293 674 q 317 756 308 725 q 333 758 322 758 q 355 757 343 758 q 377 752 367 756 q 392 743 388 749 q 399 724 399 736 q 396 701 400 713 z "},"":{"ha":558,"x_min":150,"x_max":411,"o":"m 286 658 q 333 715 296 690 q 411 758 369 739 q 397 713 404 739 q 382 663 389 686 q 365 606 374 635 q 349 602 360 603 q 327 603 339 601 q 306 608 315 604 q 292 617 296 611 q 283 636 283 624 q 286 658 282 649 m 154 644 q 201 700 164 676 q 279 743 238 724 q 265 698 272 724 q 250 649 257 672 q 233 590 242 621 q 217 588 228 588 q 195 589 207 588 q 173 594 183 590 q 158 603 163 597 q 151 622 151 610 q 154 644 150 633 z "},"":{"ha":213,"x_min":51,"x_max":181,"o":"m 176 701 q 130 645 167 669 q 51 601 93 621 q 66 647 58 621 q 81 697 74 674 q 97 754 89 725 q 113 758 103 757 q 135 757 124 758 q 156 752 146 756 q 171 743 167 749 q 180 724 179 736 q 176 701 181 711 z "},"":{"ha":321,"x_min":81,"x_max":210,"o":"m 85 658 q 131 715 94 690 q 210 758 168 739 q 195 713 203 739 q 181 663 188 686 q 164 606 172 635 q 148 602 158 603 q 126 603 138 601 q 104 608 114 604 q 90 617 94 611 q 81 636 82 624 q 85 658 81 649 z "},"":{"ha":535,"x_min":24,"x_max":468,"o":"m 65 0 q 31 23 38 -1 q 32 77 24 47 q 60 131 40 107 q 107 156 81 156 q 140 149 129 158 q 153 121 150 139 q 149 81 156 103 q 131 42 143 60 q 101 12 118 24 q 65 0 83 0 m 222 0 q 188 23 194 -1 q 189 77 181 47 q 217 131 197 107 q 264 156 238 156 q 297 149 286 158 q 310 121 307 139 q 306 81 313 103 q 288 42 300 60 q 258 12 275 24 q 222 0 240 0 m 378 0 q 343 23 350 -1 q 344 77 336 47 q 373 131 353 107 q 419 156 393 156 q 452 149 442 158 q 465 121 463 139 q 462 81 468 103 q 443 42 456 60 q 413 12 431 24 q 378 0 396 0 z "},"\\":{"ha":550,"x_min":65,"x_max":422,"o":"m 324 167 q 208 472 265 322 q 90 751 151 621 q 80 774 86 760 q 69 802 74 788 q 67 830 65 817 q 82 851 69 843 q 119 872 110 868 q 140 875 128 875 q 177 849 158 875 q 213 784 196 822 q 246 704 231 746 q 272 632 261 663 q 307 526 289 585 q 343 406 325 468 q 377 283 361 344 q 404 168 393 221 q 417 92 413 126 q 422 35 422 57 q 421 17 422 29 q 401 1 419 4 q 385 11 390 -1 q 375 32 379 24 q 349 101 361 67 q 325 167 338 135 l 324 167 z "},"|":{"ha":264,"x_min":65,"x_max":208,"o":"m 158 190 q 154 119 156 156 q 151 46 153 83 q 147 24 149 36 q 135 10 146 11 q 119 12 125 8 q 111 19 114 15 q 107 28 108 24 q 104 35 106 32 q 92 90 97 56 q 82 168 86 125 q 74 285 78 222 q 69 412 71 347 q 66 538 67 476 q 65 649 65 599 q 69 726 67 682 q 76 813 71 771 q 92 885 82 854 q 119 921 103 917 q 130 923 125 922 q 141 924 135 924 q 157 922 147 924 q 182 917 167 921 q 201 901 196 914 q 208 874 207 889 q 206 843 208 858 q 204 818 204 828 q 176 515 186 675 q 160 190 167 354 l 158 190 z "},"":{"ha":278,"x_min":89,"x_max":446,"o":"m 186 163 q 162 97 174 131 q 136 28 150 63 q 126 7 132 19 q 110 -3 121 -6 q 90 13 92 0 q 89 31 89 25 q 94 88 89 53 q 107 164 99 122 q 134 278 118 217 q 168 402 150 340 q 204 522 186 464 q 239 628 222 581 q 264 700 249 658 q 297 780 279 742 q 334 844 315 818 q 371 871 353 871 q 392 867 383 871 q 429 847 401 864 q 444 826 442 839 q 442 798 446 813 q 431 769 438 783 q 421 747 425 756 q 303 467 360 617 q 188 163 246 318 l 186 163 z "},"":{"ha":1010,"x_min":104,"x_max":917,"o":"m 417 729 q 400 635 417 679 q 358 559 383 592 q 300 506 332 526 q 238 481 268 485 q 136 510 168 471 q 110 611 104 550 q 135 706 114 663 q 187 779 156 749 q 258 824 218 810 q 342 835 299 839 q 397 801 376 832 q 417 729 417 769 m 357 715 q 339 760 353 749 q 306 769 325 772 q 267 749 288 765 q 231 706 247 732 q 203 649 214 681 q 193 586 192 618 q 223 538 194 544 q 283 553 251 532 q 340 616 315 574 q 357 715 364 658 m 796 301 q 779 208 796 251 q 737 131 763 164 q 679 78 711 99 q 617 53 647 57 q 515 83 547 43 q 489 183 483 122 q 514 278 493 235 q 566 351 535 321 q 638 397 597 382 q 721 407 678 411 q 776 373 756 404 q 796 301 796 342 m 736 288 q 718 333 732 321 q 685 341 704 344 q 647 321 667 338 q 610 278 626 304 q 582 222 593 253 q 572 158 571 190 q 602 110 574 117 q 663 125 631 104 q 719 188 694 146 q 736 288 743 231 m 917 663 q 900 569 917 613 q 858 492 883 525 q 800 439 832 460 q 738 414 768 418 q 636 444 668 404 q 610 544 604 483 q 635 639 614 596 q 687 713 656 682 q 758 758 718 743 q 842 768 799 772 q 897 734 876 765 q 917 663 917 703 m 857 649 q 839 694 853 682 q 806 702 825 706 q 767 682 788 699 q 731 640 747 665 q 703 583 714 614 q 693 519 692 551 q 723 472 694 478 q 783 486 751 465 q 840 549 815 507 q 857 649 864 592 m 407 163 q 383 97 394 131 q 357 28 371 63 q 347 7 353 19 q 331 -3 342 -6 q 311 13 313 0 q 310 31 310 25 q 315 88 310 53 q 328 164 319 122 q 355 278 339 217 q 389 402 371 340 q 425 522 407 464 q 460 628 443 581 q 485 700 469 658 q 518 780 500 742 q 555 844 536 818 q 592 871 574 871 q 613 867 604 871 q 650 847 622 864 q 665 826 663 839 q 663 798 667 813 q 652 769 658 783 q 642 747 646 756 q 524 467 581 617 q 408 163 467 318 l 407 163 z "},"":{"ha":764,"x_min":79,"x_max":710,"o":"m 710 574 q 676 419 708 492 q 590 292 643 347 q 467 206 536 238 q 326 174 399 174 q 144 231 210 174 q 79 407 79 289 q 106 567 79 492 q 176 701 132 643 q 279 796 221 760 q 401 840 338 832 q 539 834 481 850 q 635 783 597 818 q 691 694 672 747 q 710 574 710 640 m 660 529 q 664 556 663 543 q 665 581 665 568 q 653 663 665 624 q 614 730 640 701 q 546 774 588 758 q 444 785 504 789 q 345 756 388 781 q 272 694 303 731 q 221 613 242 657 q 188 528 200 568 q 170 455 175 488 q 165 407 165 422 q 178 317 165 353 q 215 260 192 281 q 267 230 238 239 q 329 221 297 221 q 458 247 401 221 q 555 317 514 274 q 622 416 596 361 q 660 529 647 471 m 447 711 q 527 695 492 710 q 583 656 563 681 q 608 599 604 632 q 593 528 613 565 q 520 458 569 479 q 404 429 471 436 l 408 429 q 444 397 431 408 q 468 378 457 386 q 490 360 479 369 q 517 338 500 351 q 528 327 526 332 q 526 315 529 322 q 516 308 522 307 q 506 313 510 310 q 459 339 478 328 q 423 362 440 350 q 387 386 406 374 q 340 415 368 399 q 293 329 308 356 q 268 293 278 303 q 261 288 264 289 q 249 288 258 286 q 241 296 239 290 q 244 308 243 301 q 258 360 247 326 q 279 428 268 394 q 260 437 274 431 q 232 450 247 443 q 215 463 218 457 q 215 481 213 469 q 227 498 218 492 q 247 501 236 504 q 272 491 263 499 q 297 479 282 483 q 326 568 308 519 q 358 664 343 617 q 335 660 349 663 q 304 654 321 658 q 290 655 293 651 q 288 669 286 658 q 294 691 289 685 q 314 703 299 697 q 369 711 333 710 q 447 711 406 713 m 367 467 q 424 468 396 465 q 478 481 453 471 q 522 513 503 492 q 549 572 540 535 q 552 606 553 589 q 544 638 551 624 q 522 660 536 651 q 483 669 507 669 q 460 668 472 669 q 446 658 449 667 q 405 560 425 614 q 367 467 385 507 z "},"":{"ha":390,"x_min":63,"x_max":326,"o":"m 324 833 q 322 808 326 826 q 308 772 318 789 q 296 756 304 765 q 275 741 288 747 q 244 735 263 735 q 203 746 226 735 q 169 764 183 754 q 143 780 156 774 q 116 788 131 786 q 83 781 101 789 q 67 782 71 775 q 65 801 63 789 q 73 828 67 814 q 88 850 79 842 q 144 875 115 881 q 208 836 174 869 q 249 817 228 817 q 290 832 271 818 q 309 843 301 839 q 324 833 317 847 z "},"":{"ha":703,"x_min":111,"x_max":586,"o":"m 560 383 q 579 374 572 383 q 586 354 586 365 q 579 333 586 343 q 556 318 572 322 q 472 304 519 311 q 374 291 425 297 q 274 279 324 285 q 182 271 224 274 q 176 269 179 271 q 169 269 172 268 q 151 269 161 271 q 133 268 142 268 q 118 271 124 268 q 113 283 113 274 q 114 322 111 301 q 128 363 117 343 q 158 372 131 368 q 225 378 185 375 q 314 381 265 381 q 410 383 363 382 q 497 383 457 383 q 560 383 536 383 z "},"":{"ha":183,"x_min":21,"x_max":193,"o":"m 190 865 q 156 788 183 817 q 81 758 129 758 q 33 778 46 758 q 29 828 21 797 q 78 903 42 878 q 156 922 115 928 q 182 908 171 921 q 190 865 193 894 m 151 867 q 146 894 153 890 q 128 890 139 899 q 108 862 118 881 q 96 821 99 843 q 101 795 93 800 q 119 797 108 790 q 141 822 131 804 q 151 867 151 840 z "},"":{"ha":494,"x_min":119,"x_max":406,"o":"m 161 717 q 126 740 133 715 q 128 794 119 764 q 156 848 136 824 q 203 872 176 872 q 235 865 225 875 q 249 838 246 856 q 245 798 251 819 q 226 758 239 776 q 197 728 214 740 q 161 717 179 717 m 315 717 q 281 740 288 715 q 282 794 274 764 q 310 848 290 824 q 357 872 331 872 q 390 865 379 875 q 403 838 400 856 q 399 798 406 819 q 381 758 393 776 q 351 728 368 740 q 315 717 333 717 z "},"":{"ha":643,"x_min":124,"x_max":642,"o":"m 569 236 q 544 138 569 182 q 480 63 519 93 q 392 16 440 32 q 299 0 344 0 q 194 34 235 0 q 138 117 153 68 q 136 220 124 165 q 192 318 149 275 q 244 365 213 339 q 313 421 276 392 q 385 483 349 450 q 451 549 421 515 q 499 615 481 582 q 517 679 517 649 q 521 692 517 686 q 528 699 525 699 q 560 678 551 697 q 568 642 568 658 q 543 551 568 593 q 481 472 518 508 q 399 400 443 435 q 316 332 354 365 q 251 265 278 299 q 222 192 225 231 q 238 135 219 154 q 284 113 256 117 q 346 119 313 110 q 409 150 379 129 q 460 200 439 171 q 482 264 481 229 q 481 281 482 271 q 481 301 481 290 q 485 318 482 311 q 497 325 489 325 q 527 317 514 325 q 550 295 540 308 q 565 266 560 282 q 569 236 569 250 m 549 718 q 515 743 521 718 q 517 797 508 768 q 546 851 525 826 q 593 876 567 876 q 626 867 615 876 q 639 838 636 857 q 635 799 642 819 q 615 760 628 778 q 584 730 601 742 q 549 718 567 718 z "},"":{"ha":761,"x_min":-3,"x_max":935,"o":"m 300 347 q 409 468 356 407 q 518 588 463 529 q 632 702 574 647 q 756 803 690 757 q 798 830 782 822 q 842 838 814 838 q 888 835 858 838 q 935 825 918 832 l 729 344 q 760 344 744 344 q 792 343 776 343 q 806 343 799 344 q 818 339 814 342 q 832 315 829 328 q 811 297 835 301 l 707 283 q 642 112 671 197 q 578 -67 614 26 q 556 -92 572 -86 q 525 -99 540 -99 q 510 -87 514 -96 q 506 -68 506 -79 q 507 -57 506 -61 l 596 271 q 486 260 546 265 q 356 253 426 256 q 270 151 315 206 q 187 49 225 96 q 124 -31 149 1 q 99 -62 99 -62 q 56 -69 75 -72 q 24 -56 38 -65 q 4 -35 11 -46 q -1 -19 -3 -25 q 60 60 1 -4 q 218 247 118 124 q 219 250 218 247 q 172 249 196 249 q 121 250 147 250 q 82 258 101 253 q 58 285 63 263 q 63 315 56 300 q 74 342 69 331 l 300 347 m 631 568 q 533 460 582 517 q 438 347 485 404 q 527 347 482 347 q 619 346 572 347 l 753 699 l 631 568 m 757 703 q 756 701 757 701 q 757 701 756 696 l 757 703 m 851 1018 q 876 994 865 1010 q 894 958 886 978 q 907 915 901 938 q 917 871 913 893 q 876 896 900 882 q 831 924 853 910 q 779 957 806 939 q 781 972 778 963 q 788 992 783 982 q 799 1012 793 1003 q 811 1025 804 1021 q 833 1028 821 1031 q 851 1018 844 1025 z "},"":{"ha":761,"x_min":-3,"x_max":1015,"o":"m 300 347 q 409 468 356 407 q 518 588 463 529 q 632 702 574 647 q 756 803 690 757 q 798 830 782 822 q 842 838 814 838 q 888 835 858 838 q 935 825 918 832 l 729 344 q 760 344 744 344 q 792 343 776 343 q 806 343 799 344 q 818 339 814 342 q 832 315 829 328 q 811 297 835 301 l 707 283 q 642 112 671 197 q 578 -67 614 26 q 556 -92 572 -86 q 525 -99 540 -99 q 510 -87 514 -96 q 506 -68 506 -79 q 507 -57 506 -61 l 596 271 q 486 260 546 265 q 356 253 426 256 q 270 151 315 206 q 187 49 225 96 q 124 -31 149 1 q 99 -62 99 -62 q 56 -69 75 -72 q 24 -56 38 -65 q 4 -35 11 -46 q -1 -19 -3 -25 q 60 60 1 -4 q 218 247 118 124 q 219 250 218 247 q 172 249 196 249 q 121 250 147 250 q 82 258 101 253 q 58 285 63 263 q 63 315 56 300 q 74 342 69 331 l 300 347 m 631 568 q 533 460 582 517 q 438 347 485 404 q 527 347 482 347 q 619 346 572 347 l 753 699 l 631 568 m 757 703 q 756 701 757 701 q 757 701 756 696 l 757 703 m 942 1021 q 960 1031 949 1028 q 982 1028 972 1033 q 994 1015 988 1024 q 1005 995 1000 1006 q 1013 975 1010 985 q 1014 960 1015 965 q 961 926 986 942 q 916 899 939 913 q 876 874 893 885 q 886 918 881 896 q 899 960 892 940 q 917 997 907 981 q 942 1021 928 1013 z "},"":{"ha":761,"x_min":-3,"x_max":979,"o":"m 300 347 q 409 468 356 407 q 518 588 463 529 q 632 702 574 647 q 756 803 690 757 q 798 830 782 822 q 842 838 814 838 q 888 835 858 838 q 935 825 918 832 l 729 344 q 760 344 744 344 q 792 343 776 343 q 806 343 799 344 q 818 339 814 342 q 832 315 829 328 q 811 297 835 301 l 707 283 q 642 112 671 197 q 578 -67 614 26 q 556 -92 572 -86 q 525 -99 540 -99 q 510 -87 514 -96 q 506 -68 506 -79 q 507 -57 506 -61 l 596 271 q 486 260 546 265 q 356 253 426 256 q 270 151 315 206 q 187 49 225 96 q 124 -31 149 1 q 99 -62 99 -62 q 56 -69 75 -72 q 24 -56 38 -65 q 4 -35 11 -46 q -1 -19 -3 -25 q 60 60 1 -4 q 218 247 118 124 q 219 250 218 247 q 172 249 196 249 q 121 250 147 250 q 82 258 101 253 q 58 285 63 263 q 63 315 56 300 q 74 342 69 331 l 300 347 m 631 568 q 533 460 582 517 q 438 347 485 404 q 527 347 482 347 q 619 346 572 347 l 753 699 l 631 568 m 757 703 q 756 701 757 701 q 757 701 756 696 l 757 703 m 976 888 q 975 859 979 872 q 960 850 971 846 q 947 858 956 851 q 926 872 938 864 q 904 886 915 879 q 885 896 893 893 q 840 897 861 903 q 794 892 818 892 q 778 894 786 892 q 774 910 771 897 q 785 926 775 918 q 812 944 796 935 q 845 964 828 954 q 879 982 863 974 q 903 991 894 989 q 928 978 913 993 q 946 954 938 968 q 961 927 954 940 q 972 903 968 914 q 976 888 976 892 z "},"":{"ha":761,"x_min":-3,"x_max":1026,"o":"m 300 347 q 409 468 356 407 q 518 588 463 529 q 632 702 574 647 q 756 803 690 757 q 798 830 782 822 q 842 838 814 838 q 888 835 858 838 q 935 825 918 832 l 729 344 q 760 344 744 344 q 792 343 776 343 q 806 343 799 344 q 818 339 814 342 q 832 315 829 328 q 811 297 835 301 l 707 283 q 642 112 671 197 q 578 -67 614 26 q 556 -92 572 -86 q 525 -99 540 -99 q 510 -87 514 -96 q 506 -68 506 -79 q 507 -57 506 -61 l 596 271 q 486 260 546 265 q 356 253 426 256 q 270 151 315 206 q 187 49 225 96 q 124 -31 149 1 q 99 -62 99 -62 q 56 -69 75 -72 q 24 -56 38 -65 q 4 -35 11 -46 q -1 -19 -3 -25 q 60 60 1 -4 q 218 247 118 124 q 219 250 218 247 q 172 249 196 249 q 121 250 147 250 q 82 258 101 253 q 58 285 63 263 q 63 315 56 300 q 74 342 69 331 l 300 347 m 631 568 q 533 460 582 517 q 438 347 485 404 q 527 347 482 347 q 619 346 572 347 l 753 699 l 631 568 m 757 703 q 756 701 757 701 q 757 701 756 696 l 757 703 m 1024 972 q 1022 947 1026 965 q 1008 911 1018 928 q 996 895 1004 904 q 975 880 988 886 q 944 874 963 874 q 903 885 926 874 q 869 903 883 893 q 843 919 856 913 q 816 926 831 925 q 783 919 801 928 q 767 921 771 914 q 765 940 763 928 q 773 967 767 953 q 788 989 779 981 q 844 1014 815 1019 q 908 975 874 1008 q 949 956 928 956 q 990 971 971 957 q 1009 982 1001 978 q 1024 972 1017 986 z "},"":{"ha":761,"x_min":-3,"x_max":1026,"o":"m 300 347 q 409 468 356 407 q 518 588 463 529 q 632 702 574 647 q 756 803 690 757 q 798 830 782 822 q 842 838 814 838 q 888 835 858 838 q 935 825 918 832 l 729 344 q 760 344 744 344 q 792 343 776 343 q 806 343 799 344 q 818 339 814 342 q 832 315 829 328 q 811 297 835 301 l 707 283 q 642 112 671 197 q 578 -67 614 26 q 556 -92 572 -86 q 525 -99 540 -99 q 510 -87 514 -96 q 506 -68 506 -79 q 507 -57 506 -61 l 596 271 q 486 260 546 265 q 356 253 426 256 q 270 151 315 206 q 187 49 225 96 q 124 -31 149 1 q 99 -62 99 -62 q 56 -69 75 -72 q 24 -56 38 -65 q 4 -35 11 -46 q -1 -19 -3 -25 q 60 60 1 -4 q 218 247 118 124 q 219 250 218 247 q 172 249 196 249 q 121 250 147 250 q 82 258 101 253 q 58 285 63 263 q 63 315 56 300 q 74 342 69 331 l 300 347 m 631 568 q 533 460 582 517 q 438 347 485 404 q 527 347 482 347 q 619 346 572 347 l 753 699 l 631 568 m 757 703 q 756 701 757 701 q 757 701 756 696 l 757 703 m 782 869 q 747 892 754 868 q 749 947 740 917 q 777 1001 757 976 q 824 1025 797 1025 q 856 1018 846 1028 q 869 990 867 1008 q 866 951 872 972 q 847 911 860 929 q 817 881 835 893 q 782 869 800 869 m 936 869 q 901 892 908 868 q 903 947 894 917 q 931 1001 911 976 q 978 1025 951 1025 q 1010 1018 1000 1028 q 1024 990 1021 1008 q 1020 951 1026 972 q 1001 911 1014 929 q 972 881 989 893 q 936 869 954 869 z "},"":{"ha":761,"x_min":-3,"x_max":1004,"o":"m 300 347 q 409 468 356 407 q 518 588 463 529 q 632 702 574 647 q 756 803 690 757 q 798 830 782 822 q 842 838 814 838 q 888 835 858 838 q 935 825 918 832 l 729 344 q 760 344 744 344 q 792 343 776 343 q 806 343 799 344 q 818 339 814 342 q 832 315 829 328 q 811 297 835 301 l 707 283 q 642 112 671 197 q 578 -67 614 26 q 556 -92 572 -86 q 525 -99 540 -99 q 510 -87 514 -96 q 506 -68 506 -79 q 507 -57 506 -61 l 596 271 q 486 260 546 265 q 356 253 426 256 q 270 151 315 206 q 187 49 225 96 q 124 -31 149 1 q 99 -62 99 -62 q 56 -69 75 -72 q 24 -56 38 -65 q 4 -35 11 -46 q -1 -19 -3 -25 q 60 60 1 -4 q 218 247 118 124 q 219 250 218 247 q 172 249 196 249 q 121 250 147 250 q 82 258 101 253 q 58 285 63 263 q 63 315 56 300 q 74 342 69 331 l 300 347 m 631 568 q 533 460 582 517 q 438 347 485 404 q 527 347 482 347 q 619 346 572 347 l 753 699 l 631 568 m 757 703 q 756 701 757 701 q 757 701 756 696 l 757 703 m 1001 981 q 967 903 994 932 q 892 874 940 874 q 844 893 857 874 q 840 943 832 913 q 890 1018 853 993 q 967 1038 926 1043 q 993 1023 982 1036 q 1001 981 1004 1010 m 963 982 q 957 1010 964 1006 q 940 1005 950 1014 q 919 977 929 996 q 907 936 910 958 q 912 910 904 915 q 931 913 919 906 q 952 938 942 919 q 963 982 963 956 z "},"":{"ha":1207,"x_min":-3,"x_max":1274,"o":"m 300 347 q 409 468 356 407 q 518 588 463 529 q 632 702 574 647 q 756 803 690 757 q 798 830 782 822 q 842 838 814 838 q 888 835 858 838 q 935 825 918 832 l 729 344 q 760 344 744 344 q 792 343 776 343 q 806 343 799 344 q 818 339 814 342 q 832 315 829 328 q 811 297 835 301 l 707 283 q 642 112 671 197 q 578 -67 614 26 q 556 -92 572 -86 q 525 -99 540 -99 q 510 -87 514 -96 q 506 -68 506 -79 q 507 -57 506 -61 l 596 271 q 486 260 546 265 q 356 253 426 256 q 270 151 315 206 q 187 49 225 96 q 124 -31 149 1 q 99 -62 99 -62 q 56 -69 75 -72 q 24 -56 38 -65 q 4 -35 11 -46 q -1 -19 -3 -25 q 60 60 1 -4 q 218 247 118 124 q 219 250 218 247 q 172 249 196 249 q 121 250 147 250 q 82 258 101 253 q 58 285 63 263 q 63 315 56 300 q 74 342 69 331 l 300 347 m 631 568 q 533 460 582 517 q 438 347 485 404 q 527 347 482 347 q 619 346 572 347 l 753 699 l 631 568 m 757 703 q 756 701 757 701 q 757 701 756 696 l 757 703 m 938 -26 q 1035 -4 989 -25 q 1119 51 1081 17 q 1188 131 1157 86 q 1240 225 1218 176 q 1267 224 1260 225 q 1271 217 1274 224 q 1144 19 1221 96 q 958 -78 1067 -58 q 822 -82 883 -90 q 716 -48 760 -74 q 647 17 672 -22 q 619 107 622 57 q 650 238 615 178 q 740 347 685 299 q 862 429 794 394 q 992 483 929 464 q 935 557 956 519 q 915 643 915 594 q 932 713 915 678 q 976 774 949 747 q 1040 818 1004 801 q 1113 835 1075 835 q 1177 818 1149 835 q 1225 774 1206 801 q 1255 714 1244 747 q 1265 646 1265 681 q 1263 613 1265 631 q 1254 578 1260 594 q 1241 549 1249 561 q 1224 536 1233 538 q 1201 540 1213 533 q 1176 551 1190 546 q 1197 601 1190 572 q 1199 658 1204 631 q 1176 706 1194 686 q 1122 725 1158 725 q 1088 715 1103 725 q 1063 691 1074 706 q 1047 658 1053 676 q 1042 624 1042 640 q 1057 572 1042 596 q 1097 525 1072 547 q 1151 483 1121 503 q 1210 442 1181 463 q 1160 425 1182 431 q 1119 415 1139 419 q 1076 405 1099 411 q 1025 389 1054 399 q 930 344 983 374 q 829 276 876 315 q 750 192 782 238 q 719 101 718 147 q 733 51 719 75 q 772 10 746 28 q 837 -17 797 -7 q 929 -26 876 -28 l 938 -26 z "},"":{"ha":588,"x_min":-4,"x_max":654,"o":"m 318 -26 q 415 -4 369 -25 q 499 51 461 17 q 568 131 538 86 q 621 225 599 176 q 647 224 640 225 q 651 217 654 224 q 524 19 601 96 q 339 -78 447 -58 q 202 -82 264 -90 q 97 -48 140 -74 q 28 17 53 -22 q 0 107 3 57 q 31 238 -4 178 q 120 347 65 299 q 242 429 175 394 q 372 483 310 464 q 316 557 336 519 q 296 643 296 594 q 313 713 296 678 q 357 774 329 747 q 420 818 385 801 q 493 835 456 835 q 558 818 529 835 q 606 774 586 801 q 635 714 625 747 q 646 646 646 681 q 643 613 646 631 q 635 578 640 594 q 622 549 629 561 q 604 536 614 538 q 582 540 593 533 q 557 551 571 546 q 578 601 571 572 q 580 658 585 631 q 557 706 575 686 q 503 725 539 725 q 469 715 483 725 q 444 691 454 706 q 428 658 433 676 q 422 624 422 640 q 438 572 422 596 q 477 525 453 547 q 531 483 501 503 q 590 442 561 463 q 541 425 563 431 q 499 415 519 419 q 457 405 479 411 q 406 389 435 399 q 310 344 364 374 q 210 276 257 315 q 131 192 163 238 q 100 101 99 147 q 113 51 100 75 q 152 10 126 28 q 217 -17 178 -7 q 310 -26 257 -28 l 318 -26 m 550 1018 q 574 994 564 1010 q 592 958 585 978 q 606 915 600 938 q 615 871 611 893 q 575 896 599 882 q 529 924 551 910 q 478 957 504 939 q 479 972 476 963 q 487 992 482 982 q 497 1012 492 1003 q 510 1025 503 1021 q 531 1028 519 1031 q 550 1018 543 1025 z "},"":{"ha":588,"x_min":-4,"x_max":654,"o":"m 318 -26 q 415 -4 369 -25 q 499 51 461 17 q 568 131 538 86 q 621 225 599 176 q 647 224 640 225 q 651 217 654 224 q 524 19 601 96 q 339 -78 447 -58 q 202 -82 264 -90 q 97 -48 140 -74 q 28 17 53 -22 q 0 107 3 57 q 31 238 -4 178 q 120 347 65 299 q 242 429 175 394 q 372 483 310 464 q 316 557 336 519 q 296 643 296 594 q 313 713 296 678 q 357 774 329 747 q 420 818 385 801 q 493 835 456 835 q 558 818 529 835 q 606 774 586 801 q 635 714 625 747 q 646 646 646 681 q 643 613 646 631 q 635 578 640 594 q 622 549 629 561 q 604 536 614 538 q 582 540 593 533 q 557 551 571 546 q 578 601 571 572 q 580 658 585 631 q 557 706 575 686 q 503 725 539 725 q 469 715 483 725 q 444 691 454 706 q 428 658 433 676 q 422 624 422 640 q 438 572 422 596 q 477 525 453 547 q 531 483 501 503 q 590 442 561 463 q 541 425 563 431 q 499 415 519 419 q 457 405 479 411 q 406 389 435 399 q 310 344 364 374 q 210 276 257 315 q 131 192 163 238 q 100 101 99 147 q 113 51 100 75 q 152 10 126 28 q 217 -17 178 -7 q 310 -26 257 -28 l 318 -26 m 613 867 q 611 838 615 851 q 596 829 607 825 q 583 837 592 831 q 563 851 574 843 q 540 865 551 858 q 521 875 529 872 q 476 876 497 882 q 431 871 454 871 q 415 874 422 871 q 410 889 407 876 q 422 906 411 897 q 448 924 432 914 q 481 943 464 933 q 515 961 499 953 q 540 970 531 968 q 564 957 549 972 q 582 933 574 947 q 597 906 590 919 q 608 882 604 893 q 613 867 613 871 z "},"":{"ha":588,"x_min":-4,"x_max":654,"o":"m 318 -26 q 415 -4 369 -25 q 499 51 461 17 q 568 131 538 86 q 621 225 599 176 q 647 224 640 225 q 651 217 654 224 q 524 19 601 96 q 339 -78 447 -58 q 202 -82 264 -90 q 97 -48 140 -74 q 28 17 53 -22 q 0 107 3 57 q 31 238 -4 178 q 120 347 65 299 q 242 429 175 394 q 372 483 310 464 q 316 557 336 519 q 296 643 296 594 q 313 713 296 678 q 357 774 329 747 q 420 818 385 801 q 493 835 456 835 q 558 818 529 835 q 606 774 586 801 q 635 714 625 747 q 646 646 646 681 q 643 613 646 631 q 635 578 640 594 q 622 549 629 561 q 604 536 614 538 q 582 540 593 533 q 557 551 571 546 q 578 601 571 572 q 580 658 585 631 q 557 706 575 686 q 503 725 539 725 q 469 715 483 725 q 444 691 454 706 q 428 658 433 676 q 422 624 422 640 q 438 572 422 596 q 477 525 453 547 q 531 483 501 503 q 590 442 561 463 q 541 425 563 431 q 499 415 519 419 q 457 405 479 411 q 406 389 435 399 q 310 344 364 374 q 210 276 257 315 q 131 192 163 238 q 100 101 99 147 q 113 51 100 75 q 152 10 126 28 q 217 -17 178 -7 q 310 -26 257 -28 l 318 -26 m 558 1018 q 577 1028 565 1025 q 599 1025 589 1031 q 610 1012 604 1021 q 622 992 617 1003 q 629 972 626 982 q 631 957 632 963 q 578 924 603 939 q 533 896 556 910 q 493 871 510 882 q 503 915 497 893 q 516 958 508 938 q 534 994 524 978 q 558 1018 544 1010 z "},"":{"ha":588,"x_min":-4,"x_max":667,"o":"m 318 -26 q 415 -4 369 -25 q 499 51 461 17 q 568 131 538 86 q 621 225 599 176 q 647 224 640 225 q 651 217 654 224 q 524 19 601 96 q 339 -78 447 -58 q 202 -82 264 -90 q 97 -48 140 -74 q 28 17 53 -22 q 0 107 3 57 q 31 238 -4 178 q 120 347 65 299 q 242 429 175 394 q 372 483 310 464 q 316 557 336 519 q 296 643 296 594 q 313 713 296 678 q 357 774 329 747 q 420 818 385 801 q 493 835 456 835 q 558 818 529 835 q 606 774 586 801 q 635 714 625 747 q 646 646 646 681 q 643 613 646 631 q 635 578 640 594 q 622 549 629 561 q 604 536 614 538 q 582 540 593 533 q 557 551 571 546 q 578 601 571 572 q 580 658 585 631 q 557 706 575 686 q 503 725 539 725 q 469 715 483 725 q 444 691 454 706 q 428 658 433 676 q 422 624 422 640 q 438 572 422 596 q 477 525 453 547 q 531 483 501 503 q 590 442 561 463 q 541 425 563 431 q 499 415 519 419 q 457 405 479 411 q 406 389 435 399 q 310 344 364 374 q 210 276 257 315 q 131 192 163 238 q 100 101 99 147 q 113 51 100 75 q 152 10 126 28 q 217 -17 178 -7 q 310 -26 257 -28 l 318 -26 m 422 869 q 388 892 394 868 q 389 947 381 917 q 417 1001 397 976 q 464 1025 438 1025 q 497 1018 486 1028 q 510 990 507 1008 q 506 951 513 972 q 488 911 500 929 q 458 881 475 893 q 422 869 440 869 m 576 869 q 542 892 549 868 q 543 947 535 917 q 572 1001 551 976 q 618 1025 592 1025 q 651 1018 640 1028 q 664 990 661 1008 q 660 951 667 972 q 642 911 654 929 q 612 881 629 893 q 576 869 594 869 z "},"":{"ha":206,"x_min":19,"x_max":389,"o":"m 65 -69 q 46 -70 54 -69 q 31 -67 38 -71 q 19 -46 19 -60 q 22 -21 19 -32 q 47 90 31 22 q 82 233 63 157 q 123 388 101 310 q 165 532 144 467 q 196 638 181 579 q 226 744 211 697 q 205 750 219 751 q 189 756 190 749 q 200 791 192 775 q 215 826 208 807 q 224 833 218 831 q 238 835 231 835 q 343 835 289 836 q 380 817 371 835 q 376 771 389 799 q 293 563 335 667 q 213 353 251 458 q 138 147 174 250 q 65 -60 101 44 l 65 -69 m 301 1015 q 326 991 315 1007 q 344 955 336 975 q 357 913 351 935 q 367 868 363 890 q 326 893 350 879 q 281 921 303 907 q 229 954 256 936 q 231 969 228 960 q 238 990 233 979 q 249 1009 243 1000 q 261 1022 254 1018 q 283 1025 271 1028 q 301 1015 294 1022 z "},"":{"ha":206,"x_min":19,"x_max":469,"o":"m 65 -69 q 46 -70 54 -69 q 31 -67 38 -71 q 19 -46 19 -60 q 22 -21 19 -32 q 47 90 31 22 q 82 233 63 157 q 123 388 101 310 q 165 532 144 467 q 196 638 181 579 q 226 744 211 697 q 205 750 219 751 q 189 756 190 749 q 200 791 192 775 q 215 826 208 807 q 224 833 218 831 q 238 835 231 835 q 343 835 289 836 q 380 817 371 835 q 376 771 389 799 q 293 563 335 667 q 213 353 251 458 q 138 147 174 250 q 65 -60 101 44 l 65 -69 m 396 1019 q 415 1029 403 1026 q 436 1026 426 1032 q 448 1013 442 1022 q 459 994 454 1004 q 467 974 464 983 q 468 958 469 964 q 415 925 440 940 q 370 897 393 911 q 331 872 347 883 q 340 917 335 894 q 353 959 346 939 q 372 995 361 979 q 396 1019 382 1011 z "},"":{"ha":206,"x_min":19,"x_max":446,"o":"m 65 -69 q 46 -70 54 -69 q 31 -67 38 -71 q 19 -46 19 -60 q 22 -21 19 -32 q 47 90 31 22 q 82 233 63 157 q 123 388 101 310 q 165 532 144 467 q 196 638 181 579 q 226 744 211 697 q 205 750 219 751 q 189 756 190 749 q 200 791 192 775 q 215 826 208 807 q 224 833 218 831 q 238 835 231 835 q 343 835 289 836 q 380 817 371 835 q 376 771 389 799 q 293 563 335 667 q 213 353 251 458 q 138 147 174 250 q 65 -60 101 44 l 65 -69 m 443 892 q 442 863 446 876 q 426 854 438 850 q 413 862 422 856 q 393 876 404 868 q 371 890 382 883 q 351 900 360 897 q 306 901 328 907 q 261 896 285 896 q 245 899 253 896 q 240 914 238 901 q 252 931 242 922 q 278 949 263 939 q 312 968 294 958 q 346 986 329 978 q 370 995 361 993 q 394 982 379 997 q 413 958 404 972 q 428 931 421 944 q 439 907 435 918 q 443 892 443 896 z "},"":{"ha":206,"x_min":19,"x_max":507,"o":"m 65 -69 q 46 -70 54 -69 q 31 -67 38 -71 q 19 -46 19 -60 q 22 -21 19 -32 q 47 90 31 22 q 82 233 63 157 q 123 388 101 310 q 165 532 144 467 q 196 638 181 579 q 226 744 211 697 q 205 750 219 751 q 189 756 190 749 q 200 791 192 775 q 215 826 208 807 q 224 833 218 831 q 238 835 231 835 q 343 835 289 836 q 380 817 371 835 q 376 771 389 799 q 293 563 335 667 q 213 353 251 458 q 138 147 174 250 q 65 -60 101 44 l 65 -69 m 263 875 q 228 898 235 874 q 229 952 221 922 q 258 1006 238 982 q 304 1031 278 1031 q 337 1024 326 1033 q 350 996 347 1014 q 347 956 353 978 q 328 917 340 935 q 298 887 315 899 q 263 875 281 875 m 417 875 q 382 898 389 874 q 383 952 375 922 q 412 1006 392 982 q 458 1031 432 1031 q 491 1024 481 1033 q 504 996 501 1014 q 501 956 507 978 q 482 917 494 935 q 452 887 469 899 q 417 875 435 875 z "},"":{"ha":769,"x_min":-1,"x_max":829,"o":"m 538 475 q 557 466 550 475 q 564 446 564 457 q 557 424 564 435 q 533 410 550 414 q 450 396 497 403 q 353 382 403 389 q 295 256 324 318 q 242 136 267 194 q 221 96 231 113 q 182 79 211 79 q 157 82 167 79 q 149 96 147 85 q 153 114 147 101 q 199 242 176 179 q 246 369 222 306 q 201 365 222 367 q 160 363 179 364 q 153 361 157 363 q 147 361 150 360 q 129 361 139 363 q 110 360 119 360 q 96 363 101 360 q 90 375 90 365 q 92 414 89 393 q 106 454 94 435 q 163 466 111 463 q 283 472 214 469 q 322 578 303 525 q 361 686 342 632 l 388 746 q 207 665 289 711 l 140 622 q 122 612 133 618 q 100 619 111 606 q 83 665 79 644 l 83 668 q 85 671 83 668 q 100 695 88 685 q 132 717 113 706 q 201 758 160 736 q 293 797 242 779 q 403 824 344 814 q 528 833 463 835 q 648 815 590 833 q 758 751 706 797 q 809 675 794 717 q 826 585 824 633 q 813 438 829 513 q 763 292 797 363 q 679 158 729 221 q 565 49 629 96 q 424 -26 501 1 q 258 -56 346 -54 q 160 -49 206 -56 q 79 -35 114 -43 q 25 -17 44 -26 q 4 -3 6 -8 q 16 33 -1 18 q 56 49 33 47 q 71 47 65 49 q 161 26 115 36 q 253 17 207 15 q 383 44 321 18 q 499 115 446 71 q 596 215 553 158 q 669 335 639 272 q 717 462 700 397 q 735 586 733 526 q 726 655 735 621 q 697 714 717 689 q 644 752 676 739 q 568 758 613 765 q 531 747 546 756 q 504 714 515 738 q 451 597 479 657 q 394 475 424 538 l 538 475 l 538 475 z "},"":{"ha":561,"x_min":-15,"x_max":735,"o":"m 289 799 q 323 824 306 819 q 365 833 340 828 q 427 822 422 839 q 406 754 432 806 q 334 609 369 686 q 264 453 299 532 q 195 295 229 374 q 129 146 161 217 q 185 226 147 178 q 282 344 224 275 q 419 501 340 413 q 597 704 497 590 q 629 740 615 729 q 656 752 643 751 q 683 746 669 753 q 711 726 696 739 q 718 676 735 707 l 636 529 q 581 419 608 476 q 532 306 554 363 q 492 194 510 249 q 467 96 475 140 q 463 60 464 79 q 466 25 461 40 q 483 1 471 10 q 519 0 496 -7 q 488 -28 507 -19 q 451 -33 469 -36 q 417 -16 432 -31 q 394 26 401 -1 q 387 135 382 76 q 406 252 392 194 q 441 363 421 310 q 479 454 461 415 q 369 353 426 408 q 258 236 313 297 q 155 110 204 175 q 67 -19 106 46 q 56 -35 63 -26 q 40 -51 49 -44 q 23 -60 32 -57 q 4 -57 14 -62 q -11 -28 -15 -46 q -1 4 -7 -10 l 204 578 l 289 799 m 706 919 q 704 894 708 913 q 690 858 700 875 q 678 842 686 851 q 657 827 669 833 q 626 821 644 821 q 585 832 608 821 q 551 850 565 840 q 525 866 538 860 q 498 874 513 872 q 465 867 483 875 q 449 868 453 861 q 447 888 444 875 q 455 914 449 900 q 469 936 461 928 q 526 961 497 967 q 590 922 556 956 q 631 903 610 903 q 672 918 653 904 q 691 929 683 925 q 706 919 699 933 z "},"":{"ha":647,"x_min":4,"x_max":800,"o":"m 800 374 q 763 299 782 332 q 718 242 744 267 q 656 200 692 217 q 569 175 621 183 q 567 172 567 175 q 389 -35 482 33 q 199 -93 296 -104 q 121 -65 156 -87 q 61 -4 86 -42 q 22 81 36 33 q 7 185 8 129 q 20 340 4 260 q 63 495 36 419 q 124 638 89 571 q 194 753 158 704 l 194 757 l 126 715 q 108 717 118 713 q 89 728 99 721 q 73 743 79 735 q 67 756 67 751 q 71 765 67 761 q 164 826 114 804 q 275 851 214 849 q 358 840 315 854 q 374 831 372 836 q 364 811 376 826 q 187 535 253 675 q 103 224 121 396 q 101 157 100 197 q 113 77 103 117 q 146 7 124 38 q 208 -31 168 -24 q 283 -21 243 -37 q 362 27 324 -4 q 433 101 400 58 q 485 192 465 144 q 395 224 436 201 q 323 278 354 246 q 272 352 292 311 q 247 439 253 393 q 262 570 240 500 q 327 697 283 640 q 433 787 371 754 q 572 807 496 819 q 657 762 628 797 q 695 676 686 726 q 697 565 704 625 q 674 442 690 504 q 635 324 657 381 q 592 226 613 268 q 637 233 613 224 q 685 261 661 242 q 733 310 710 281 q 772 378 756 340 l 800 374 m 536 718 q 474 699 507 718 q 413 646 442 679 q 366 566 385 613 q 346 465 347 519 q 353 402 346 433 q 378 341 360 371 q 427 285 396 311 q 504 238 458 258 l 504 236 q 538 312 521 265 q 567 412 554 358 q 587 520 579 465 q 592 619 594 575 q 577 690 590 663 q 536 718 564 718 m 449 1019 q 473 995 463 1011 q 491 959 483 979 q 504 917 499 939 q 514 872 510 894 q 474 897 497 883 q 428 925 450 911 q 376 958 403 940 q 378 974 375 964 q 385 994 381 983 q 396 1013 390 1004 q 408 1026 401 1022 q 430 1029 418 1032 q 449 1019 442 1026 z "},"":{"ha":647,"x_min":4,"x_max":800,"o":"m 800 374 q 763 299 782 332 q 718 242 744 267 q 656 200 692 217 q 569 175 621 183 q 567 172 567 175 q 389 -35 482 33 q 199 -93 296 -104 q 121 -65 156 -87 q 61 -4 86 -42 q 22 81 36 33 q 7 185 8 129 q 20 340 4 260 q 63 495 36 419 q 124 638 89 571 q 194 753 158 704 l 194 757 l 126 715 q 108 717 118 713 q 89 728 99 721 q 73 743 79 735 q 67 756 67 751 q 71 765 67 761 q 164 826 114 804 q 275 851 214 849 q 358 840 315 854 q 374 831 372 836 q 364 811 376 826 q 187 535 253 675 q 103 224 121 396 q 101 157 100 197 q 113 77 103 117 q 146 7 124 38 q 208 -31 168 -24 q 283 -21 243 -37 q 362 27 324 -4 q 433 101 400 58 q 485 192 465 144 q 395 224 436 201 q 323 278 354 246 q 272 352 292 311 q 247 439 253 393 q 262 570 240 500 q 327 697 283 640 q 433 787 371 754 q 572 807 496 819 q 657 762 628 797 q 695 676 686 726 q 697 565 704 625 q 674 442 690 504 q 635 324 657 381 q 592 226 613 268 q 637 233 613 224 q 685 261 661 242 q 733 310 710 281 q 772 378 756 340 l 800 374 m 536 718 q 474 699 507 718 q 413 646 442 679 q 366 566 385 613 q 346 465 347 519 q 353 402 346 433 q 378 341 360 371 q 427 285 396 311 q 504 238 458 258 l 504 236 q 538 312 521 265 q 567 412 554 358 q 587 520 579 465 q 592 619 594 575 q 577 690 590 663 q 536 718 564 718 m 533 1015 q 552 1025 540 1022 q 574 1022 564 1028 q 585 1009 579 1018 q 597 990 592 1000 q 604 969 601 979 q 606 954 607 960 q 553 921 578 936 q 508 893 531 907 q 468 868 485 879 q 478 913 472 890 q 491 955 483 935 q 509 991 499 975 q 533 1015 519 1007 z "},"":{"ha":647,"x_min":4,"x_max":800,"o":"m 800 374 q 763 299 782 332 q 718 242 744 267 q 656 200 692 217 q 569 175 621 183 q 567 172 567 175 q 389 -35 482 33 q 199 -93 296 -104 q 121 -65 156 -87 q 61 -4 86 -42 q 22 81 36 33 q 7 185 8 129 q 20 340 4 260 q 63 495 36 419 q 124 638 89 571 q 194 753 158 704 l 194 757 l 126 715 q 108 717 118 713 q 89 728 99 721 q 73 743 79 735 q 67 756 67 751 q 71 765 67 761 q 164 826 114 804 q 275 851 214 849 q 358 840 315 854 q 374 831 372 836 q 364 811 376 826 q 187 535 253 675 q 103 224 121 396 q 101 157 100 197 q 113 77 103 117 q 146 7 124 38 q 208 -31 168 -24 q 283 -21 243 -37 q 362 27 324 -4 q 433 101 400 58 q 485 192 465 144 q 395 224 436 201 q 323 278 354 246 q 272 352 292 311 q 247 439 253 393 q 262 570 240 500 q 327 697 283 640 q 433 787 371 754 q 572 807 496 819 q 657 762 628 797 q 695 676 686 726 q 697 565 704 625 q 674 442 690 504 q 635 324 657 381 q 592 226 613 268 q 637 233 613 224 q 685 261 661 242 q 733 310 710 281 q 772 378 756 340 l 800 374 m 536 718 q 474 699 507 718 q 413 646 442 679 q 366 566 385 613 q 346 465 347 519 q 353 402 346 433 q 378 341 360 371 q 427 285 396 311 q 504 238 458 258 l 504 236 q 538 312 521 265 q 567 412 554 358 q 587 520 579 465 q 592 619 594 575 q 577 690 590 663 q 536 718 564 718 m 582 900 q 581 872 585 885 q 565 863 576 858 q 552 870 561 864 q 532 884 543 876 q 510 899 521 892 q 490 908 499 906 q 445 910 467 915 q 400 904 424 904 q 384 907 392 904 q 379 922 376 910 q 391 939 381 931 q 417 957 401 947 q 451 976 433 967 q 485 994 468 986 q 509 1003 500 1001 q 533 990 518 1006 q 551 967 543 981 q 567 940 560 953 q 578 915 574 926 q 582 900 582 904 z "},"":{"ha":647,"x_min":4,"x_max":800,"o":"m 800 374 q 763 299 782 332 q 718 242 744 267 q 656 200 692 217 q 569 175 621 183 q 567 172 567 175 q 389 -35 482 33 q 199 -93 296 -104 q 121 -65 156 -87 q 61 -4 86 -42 q 22 81 36 33 q 7 185 8 129 q 20 340 4 260 q 63 495 36 419 q 124 638 89 571 q 194 753 158 704 l 194 757 l 126 715 q 108 717 118 713 q 89 728 99 721 q 73 743 79 735 q 67 756 67 751 q 71 765 67 761 q 164 826 114 804 q 275 851 214 849 q 358 840 315 854 q 374 831 372 836 q 364 811 376 826 q 187 535 253 675 q 103 224 121 396 q 101 157 100 197 q 113 77 103 117 q 146 7 124 38 q 208 -31 168 -24 q 283 -21 243 -37 q 362 27 324 -4 q 433 101 400 58 q 485 192 465 144 q 395 224 436 201 q 323 278 354 246 q 272 352 292 311 q 247 439 253 393 q 262 570 240 500 q 327 697 283 640 q 433 787 371 754 q 572 807 496 819 q 657 762 628 797 q 695 676 686 726 q 697 565 704 625 q 674 442 690 504 q 635 324 657 381 q 592 226 613 268 q 637 233 613 224 q 685 261 661 242 q 733 310 710 281 q 772 378 756 340 l 800 374 m 536 718 q 474 699 507 718 q 413 646 442 679 q 366 566 385 613 q 346 465 347 519 q 353 402 346 433 q 378 341 360 371 q 427 285 396 311 q 504 238 458 258 l 504 236 q 538 312 521 265 q 567 412 554 358 q 587 520 579 465 q 592 619 594 575 q 577 690 590 663 q 536 718 564 718 m 628 954 q 626 928 631 947 q 613 893 622 910 q 600 877 608 886 q 579 862 592 868 q 549 856 567 856 q 507 867 531 856 q 474 885 488 875 q 447 901 460 894 q 420 908 435 907 q 388 901 406 910 q 371 903 375 896 q 369 922 367 910 q 377 949 371 935 q 392 971 383 963 q 449 996 419 1001 q 513 957 478 990 q 553 938 532 938 q 594 953 575 939 q 613 964 606 960 q 628 954 621 968 z "},"":{"ha":647,"x_min":4,"x_max":800,"o":"m 800 374 q 763 299 782 332 q 718 242 744 267 q 656 200 692 217 q 569 175 621 183 q 567 172 567 175 q 389 -35 482 33 q 199 -93 296 -104 q 121 -65 156 -87 q 61 -4 86 -42 q 22 81 36 33 q 7 185 8 129 q 20 340 4 260 q 63 495 36 419 q 124 638 89 571 q 194 753 158 704 l 194 757 l 126 715 q 108 717 118 713 q 89 728 99 721 q 73 743 79 735 q 67 756 67 751 q 71 765 67 761 q 164 826 114 804 q 275 851 214 849 q 358 840 315 854 q 374 831 372 836 q 364 811 376 826 q 187 535 253 675 q 103 224 121 396 q 101 157 100 197 q 113 77 103 117 q 146 7 124 38 q 208 -31 168 -24 q 283 -21 243 -37 q 362 27 324 -4 q 433 101 400 58 q 485 192 465 144 q 395 224 436 201 q 323 278 354 246 q 272 352 292 311 q 247 439 253 393 q 262 570 240 500 q 327 697 283 640 q 433 787 371 754 q 572 807 496 819 q 657 762 628 797 q 695 676 686 726 q 697 565 704 625 q 674 442 690 504 q 635 324 657 381 q 592 226 613 268 q 637 233 613 224 q 685 261 661 242 q 733 310 710 281 q 772 378 756 340 l 800 374 m 536 718 q 474 699 507 718 q 413 646 442 679 q 366 566 385 613 q 346 465 347 519 q 353 402 346 433 q 378 341 360 371 q 427 285 396 311 q 504 238 458 258 l 504 236 q 538 312 521 265 q 567 412 554 358 q 587 520 579 465 q 592 619 594 575 q 577 690 590 663 q 536 718 564 718 m 413 869 q 378 892 385 868 q 379 947 371 917 q 408 1001 388 976 q 454 1025 428 1025 q 487 1018 476 1028 q 500 990 497 1008 q 497 951 503 972 q 478 911 490 929 q 448 881 465 893 q 413 869 431 869 m 567 869 q 532 892 539 868 q 533 947 525 917 q 562 1001 542 976 q 608 1025 582 1025 q 641 1018 631 1028 q 654 990 651 1008 q 651 951 657 972 q 632 911 644 929 q 602 881 619 893 q 567 869 585 869 z "},"":{"ha":568,"x_min":-1,"x_max":721,"o":"m 624 742 q 635 742 631 742 q 647 743 640 743 q 670 744 657 743 q 695 743 683 744 q 714 737 707 742 q 718 722 721 732 q 641 528 676 622 q 572 342 606 433 q 506 160 539 250 q 435 -24 472 69 q 422 -42 429 -32 q 408 -50 415 -51 q 389 -36 392 -49 q 388 -17 386 -24 q 393 30 388 -4 q 408 106 399 64 q 427 190 417 147 q 447 263 438 233 q 402 176 433 228 q 329 76 371 124 q 238 -7 288 28 q 135 -42 188 -42 q 71 -24 97 -42 q 28 26 44 -6 q 6 102 13 58 q 1 196 -1 146 q 21 338 4 257 q 63 505 38 419 q 119 671 88 590 q 182 810 150 751 q 217 835 194 835 q 265 828 238 835 q 311 799 292 822 q 243 655 279 733 q 175 491 207 576 q 119 315 143 406 q 89 135 96 224 q 90 101 88 119 q 98 66 92 82 q 115 38 104 50 q 144 26 126 26 q 223 56 183 25 q 298 131 263 86 q 363 227 333 176 q 415 318 393 278 q 505 509 467 411 q 588 711 543 607 q 602 731 590 721 q 624 742 614 742 m 421 1014 q 445 990 435 1006 q 463 953 456 974 q 476 911 471 933 q 486 867 482 889 q 446 892 469 878 q 400 919 422 906 q 349 953 375 935 q 350 968 347 958 q 358 988 353 978 q 368 1008 363 999 q 381 1021 374 1017 q 402 1024 390 1026 q 421 1014 414 1021 z "},"":{"ha":568,"x_min":-1,"x_max":721,"o":"m 624 742 q 635 742 631 742 q 647 743 640 743 q 670 744 657 743 q 695 743 683 744 q 714 737 707 742 q 718 722 721 732 q 641 528 676 622 q 572 342 606 433 q 506 160 539 250 q 435 -24 472 69 q 422 -42 429 -32 q 408 -50 415 -51 q 389 -36 392 -49 q 388 -17 386 -24 q 393 30 388 -4 q 408 106 399 64 q 427 190 417 147 q 447 263 438 233 q 402 176 433 228 q 329 76 371 124 q 238 -7 288 28 q 135 -42 188 -42 q 71 -24 97 -42 q 28 26 44 -6 q 6 102 13 58 q 1 196 -1 146 q 21 338 4 257 q 63 505 38 419 q 119 671 88 590 q 182 810 150 751 q 217 835 194 835 q 265 828 238 835 q 311 799 292 822 q 243 655 279 733 q 175 491 207 576 q 119 315 143 406 q 89 135 96 224 q 90 101 88 119 q 98 66 92 82 q 115 38 104 50 q 144 26 126 26 q 223 56 183 25 q 298 131 263 86 q 363 227 333 176 q 415 318 393 278 q 505 509 467 411 q 588 711 543 607 q 602 731 590 721 q 624 742 614 742 m 489 1014 q 508 1024 496 1021 q 529 1021 519 1026 q 541 1008 535 1017 q 552 988 547 999 q 560 968 557 978 q 561 953 563 958 q 508 919 533 935 q 463 892 486 906 q 424 867 440 878 q 433 911 428 889 q 447 953 439 933 q 465 990 454 974 q 489 1014 475 1006 z "},"":{"ha":568,"x_min":-1,"x_max":721,"o":"m 624 742 q 635 742 631 742 q 647 743 640 743 q 670 744 657 743 q 695 743 683 744 q 714 737 707 742 q 718 722 721 732 q 641 528 676 622 q 572 342 606 433 q 506 160 539 250 q 435 -24 472 69 q 422 -42 429 -32 q 408 -50 415 -51 q 389 -36 392 -49 q 388 -17 386 -24 q 393 30 388 -4 q 408 106 399 64 q 427 190 417 147 q 447 263 438 233 q 402 176 433 228 q 329 76 371 124 q 238 -7 288 28 q 135 -42 188 -42 q 71 -24 97 -42 q 28 26 44 -6 q 6 102 13 58 q 1 196 -1 146 q 21 338 4 257 q 63 505 38 419 q 119 671 88 590 q 182 810 150 751 q 217 835 194 835 q 265 828 238 835 q 311 799 292 822 q 243 655 279 733 q 175 491 207 576 q 119 315 143 406 q 89 135 96 224 q 90 101 88 119 q 98 66 92 82 q 115 38 104 50 q 144 26 126 26 q 223 56 183 25 q 298 131 263 86 q 363 227 333 176 q 415 318 393 278 q 505 509 467 411 q 588 711 543 607 q 602 731 590 721 q 624 742 614 742 m 554 872 q 553 844 557 857 q 538 835 549 831 q 524 842 533 836 q 504 856 515 849 q 482 871 493 864 q 463 881 471 878 q 417 882 439 888 q 372 876 396 876 q 356 879 364 876 q 351 894 349 882 q 363 911 353 903 q 390 929 374 919 q 423 949 406 939 q 457 967 440 958 q 481 976 472 974 q 506 963 490 978 q 524 939 515 953 q 539 912 532 925 q 550 888 546 899 q 554 872 554 876 z "},"":{"ha":568,"x_min":-1,"x_max":721,"o":"m 624 742 q 635 742 631 742 q 647 743 640 743 q 670 744 657 743 q 695 743 683 744 q 714 737 707 742 q 718 722 721 732 q 641 528 676 622 q 572 342 606 433 q 506 160 539 250 q 435 -24 472 69 q 422 -42 429 -32 q 408 -50 415 -51 q 389 -36 392 -49 q 388 -17 386 -24 q 393 30 388 -4 q 408 106 399 64 q 427 190 417 147 q 447 263 438 233 q 402 176 433 228 q 329 76 371 124 q 238 -7 288 28 q 135 -42 188 -42 q 71 -24 97 -42 q 28 26 44 -6 q 6 102 13 58 q 1 196 -1 146 q 21 338 4 257 q 63 505 38 419 q 119 671 88 590 q 182 810 150 751 q 217 835 194 835 q 265 828 238 835 q 311 799 292 822 q 243 655 279 733 q 175 491 207 576 q 119 315 143 406 q 89 135 96 224 q 90 101 88 119 q 98 66 92 82 q 115 38 104 50 q 144 26 126 26 q 223 56 183 25 q 298 131 263 86 q 363 227 333 176 q 415 318 393 278 q 505 509 467 411 q 588 711 543 607 q 602 731 590 721 q 624 742 614 742 m 367 876 q 332 899 339 875 q 333 953 325 924 q 362 1008 342 983 q 408 1032 382 1032 q 441 1025 431 1035 q 454 997 451 1015 q 451 958 457 979 q 432 918 444 936 q 402 888 419 900 q 367 876 385 876 m 521 876 q 486 899 493 875 q 488 953 479 924 q 516 1008 496 983 q 563 1032 536 1032 q 595 1025 585 1035 q 608 997 606 1015 q 605 958 611 979 q 586 918 599 936 q 556 888 574 900 q 521 876 539 876 z "},"":{"ha":607,"x_min":-181,"x_max":676,"o":"m 582 758 q 593 759 589 758 q 604 760 597 760 q 626 760 613 760 q 650 759 639 760 q 669 755 661 758 q 674 743 676 751 q 586 490 622 610 q 510 249 550 371 l 511 247 l 478 146 l 463 106 q 511 102 486 104 q 581 96 536 100 q 637 81 619 92 q 643 35 654 71 q 625 19 636 17 q 603 22 614 21 l 451 47 q 373 -55 418 -15 q 276 -117 328 -94 q 169 -147 224 -139 q 61 -156 114 -156 q 11 -152 36 -156 q -37 -140 -14 -149 q -119 -105 -90 -124 q -161 -68 -147 -86 q -177 -35 -175 -50 q -181 -10 -179 -19 l -181 -4 q -127 69 -181 44 q 10 100 -74 93 q 190 109 96 107 q 369 106 283 111 l 424 300 q 380 237 406 269 q 324 178 354 204 q 257 134 293 151 q 182 117 221 117 q 72 172 108 117 q 29 311 35 228 q 34 428 25 361 q 60 565 43 494 q 100 700 76 635 q 149 814 124 765 q 179 835 157 835 q 226 830 199 835 q 274 806 254 825 q 221 688 249 751 q 170 553 193 624 q 133 409 147 483 q 121 261 118 335 q 124 233 121 249 q 135 205 128 218 q 156 182 143 192 q 185 172 168 172 q 257 196 222 171 q 322 258 292 221 q 377 337 353 294 q 419 411 401 379 q 488 567 460 488 q 549 733 517 647 q 562 749 551 740 q 582 758 572 758 m -69 -64 q 75 -99 -6 -99 q 160 -88 117 -99 q 242 -58 204 -78 q 308 -12 279 -39 q 347 47 336 14 q 201 48 281 47 q 51 44 121 49 q -66 27 -19 40 q -112 -12 -112 14 q -69 -64 -112 -42 m 460 1015 q 478 1025 467 1022 q 500 1022 490 1028 q 512 1009 506 1018 q 523 990 518 1000 q 531 969 528 979 q 532 954 533 960 q 479 921 504 936 q 434 893 457 907 q 394 868 411 879 q 404 913 399 890 q 417 955 410 935 q 435 991 425 975 q 460 1015 446 1007 z "},"":{"ha":413,"x_min":-21,"x_max":474,"o":"m 218 49 q 216 67 217 54 q 215 85 215 79 q 178 47 200 65 q 135 17 157 29 q 81 1 107 1 q 35 12 56 0 q 0 47 14 24 q -15 101 -14 69 q 6 254 -21 185 q 78 390 33 324 q 206 531 131 468 q 244 550 224 547 q 283 544 265 553 q 315 517 301 536 q 332 472 328 499 q 390 492 361 486 q 447 482 419 497 q 458 472 458 475 q 451 457 458 469 q 377 317 408 385 q 328 197 346 250 q 308 108 311 143 q 317 68 304 74 q 348 75 331 61 q 381 108 365 89 q 410 149 397 128 q 426 178 422 169 q 435 171 426 179 q 444 161 444 163 l 444 158 q 419 105 435 133 q 383 53 403 76 q 340 15 363 31 q 297 -1 318 -1 q 249 6 268 -3 q 219 44 231 15 q 219 47 219 46 q 218 49 218 47 m 226 207 q 275 334 251 269 q 322 464 299 399 q 251 433 290 467 q 175 348 211 399 q 113 238 139 297 q 81 129 86 178 q 84 79 76 93 q 107 67 92 65 q 147 83 129 68 q 180 117 165 97 q 206 162 194 138 q 226 207 218 186 m 408 725 q 433 701 422 717 q 451 665 443 685 q 464 622 458 644 q 474 578 469 600 q 433 603 457 589 q 388 631 410 617 q 336 664 363 646 q 338 679 335 669 q 345 699 340 689 q 356 719 350 710 q 368 732 361 728 q 390 735 378 738 q 408 725 401 732 z "},"":{"ha":417,"x_min":-17,"x_max":463,"o":"m 222 49 q 220 67 221 54 q 219 85 219 79 q 183 47 204 65 q 139 17 161 29 q 85 1 111 1 q 39 12 60 0 q 4 47 18 24 q -11 101 -10 69 q 10 254 -17 185 q 82 390 38 324 q 210 531 135 468 q 249 550 228 547 q 288 544 269 553 q 319 517 306 536 q 336 472 332 499 q 394 492 365 486 q 451 482 424 497 q 463 472 463 475 q 456 457 463 469 q 381 317 413 385 q 333 197 350 250 q 312 108 315 143 q 321 68 308 74 q 352 75 335 61 q 385 108 369 89 q 414 149 401 128 q 431 178 426 169 q 440 171 431 179 q 449 161 449 163 l 449 158 q 423 105 439 133 q 387 53 407 76 q 344 15 367 31 q 301 -1 322 -1 q 253 6 272 -3 q 224 44 235 15 q 223 47 224 46 q 222 49 222 47 m 231 207 q 279 334 256 269 q 326 464 303 399 q 255 433 294 467 q 179 348 215 399 q 117 238 143 297 q 85 129 90 178 q 88 79 81 93 q 111 67 96 65 q 151 83 133 68 q 184 117 169 97 q 210 162 199 138 q 231 207 222 186 m 357 733 q 376 743 364 740 q 397 740 388 746 q 409 727 403 736 q 420 708 415 718 q 428 688 425 697 q 429 672 431 678 q 376 639 401 654 q 331 611 354 625 q 292 586 308 597 q 301 631 296 608 q 315 673 307 653 q 333 709 322 693 q 357 733 343 725 z "},"":{"ha":413,"x_min":-21,"x_max":458,"o":"m 218 49 q 216 67 217 54 q 215 85 215 79 q 178 47 200 65 q 135 17 157 29 q 81 1 107 1 q 35 12 56 0 q 0 47 14 24 q -15 101 -14 69 q 6 254 -21 185 q 78 390 33 324 q 206 531 131 468 q 244 550 224 547 q 283 544 265 553 q 315 517 301 536 q 332 472 328 499 q 390 492 361 486 q 447 482 419 497 q 458 472 458 475 q 451 457 458 469 q 377 317 408 385 q 328 197 346 250 q 308 108 311 143 q 317 68 304 74 q 348 75 331 61 q 381 108 365 89 q 410 149 397 128 q 426 178 422 169 q 435 171 426 179 q 444 161 444 163 l 444 158 q 419 105 435 133 q 383 53 403 76 q 340 15 363 31 q 297 -1 318 -1 q 249 6 268 -3 q 219 44 231 15 q 219 47 219 46 q 218 49 218 47 m 226 207 q 275 334 251 269 q 322 464 299 399 q 251 433 290 467 q 175 348 211 399 q 113 238 139 297 q 81 129 86 178 q 84 79 76 93 q 107 67 92 65 q 147 83 129 68 q 180 117 165 97 q 206 162 194 138 q 226 207 218 186 m 428 590 q 426 562 431 575 q 411 553 422 549 q 398 560 407 554 q 378 574 389 567 q 356 589 367 582 q 336 599 344 596 q 291 600 313 606 q 246 594 269 594 q 230 597 238 594 q 225 613 222 600 q 237 629 226 621 q 263 647 247 638 q 297 667 279 657 q 331 685 314 676 q 355 694 346 692 q 379 681 364 696 q 397 657 389 671 q 413 630 406 643 q 424 606 419 617 q 428 590 428 594 z "},"":{"ha":411,"x_min":-22,"x_max":483,"o":"m 217 49 q 215 67 215 54 q 214 85 214 79 q 177 47 199 65 q 133 17 156 29 q 80 1 106 1 q 33 12 54 0 q -1 47 13 24 q -17 101 -15 69 q 5 254 -22 185 q 76 390 32 324 q 204 531 129 468 q 243 550 222 547 q 282 544 264 553 q 313 517 300 536 q 331 472 326 499 q 389 492 360 486 q 446 482 418 497 q 457 472 457 475 q 450 457 457 469 q 376 317 407 385 q 327 197 344 250 q 306 108 310 143 q 315 68 303 74 q 347 75 329 61 q 380 108 364 89 q 408 149 396 128 q 425 178 421 169 q 434 171 425 179 q 443 161 443 163 l 443 158 q 417 105 433 133 q 381 53 401 76 q 339 15 361 31 q 296 -1 317 -1 q 248 6 267 -3 q 218 44 229 15 q 217 47 218 46 q 217 49 217 47 m 225 207 q 274 334 250 269 q 321 464 297 399 q 249 433 289 467 q 174 348 210 399 q 111 238 138 297 q 79 129 85 178 q 83 79 75 93 q 106 67 90 65 q 146 83 128 68 q 178 117 164 97 q 205 162 193 138 q 225 207 217 186 m 481 653 q 479 627 483 646 q 465 592 475 608 q 453 576 461 585 q 432 560 444 567 q 401 554 419 554 q 360 565 383 554 q 326 583 340 574 q 300 599 313 593 q 273 607 288 606 q 240 600 258 608 q 224 601 228 594 q 222 621 219 608 q 230 647 224 633 q 244 669 236 661 q 301 694 272 700 q 365 656 331 689 q 406 637 385 636 q 447 651 428 638 q 466 663 458 658 q 481 653 474 667 z "},"":{"ha":418,"x_min":-15,"x_max":535,"o":"m 224 49 q 222 67 222 54 q 221 85 221 79 q 184 47 206 65 q 140 17 163 29 q 87 1 113 1 q 40 12 61 0 q 6 47 19 24 q -10 101 -8 69 q 12 254 -15 185 q 83 390 39 324 q 211 531 136 468 q 250 550 229 547 q 289 544 271 553 q 320 517 307 536 q 338 472 333 499 q 396 492 367 486 q 453 482 425 497 q 464 472 464 475 q 457 457 464 469 q 383 317 414 385 q 334 197 351 250 q 313 108 317 143 q 322 68 310 74 q 353 75 336 61 q 387 108 371 89 q 415 149 403 128 q 432 178 428 169 q 441 171 432 179 q 450 161 450 163 l 450 158 q 424 105 440 133 q 388 53 408 76 q 346 15 368 31 q 303 -1 324 -1 q 255 6 274 -3 q 225 44 236 15 q 224 47 225 46 q 224 49 224 47 m 232 207 q 281 334 257 269 q 328 464 304 399 q 256 433 296 467 q 181 348 217 399 q 118 238 144 297 q 86 129 92 178 q 90 79 82 93 q 113 67 97 65 q 153 83 135 68 q 185 117 171 97 q 212 162 200 138 q 232 207 224 186 m 290 588 q 256 610 263 586 q 257 665 249 635 q 285 719 265 694 q 332 743 306 743 q 365 736 354 746 q 378 708 375 726 q 374 669 381 690 q 356 629 368 647 q 326 599 343 611 q 290 588 308 588 m 444 588 q 410 610 417 586 q 411 665 403 635 q 440 719 419 694 q 486 743 460 743 q 519 736 508 746 q 532 708 529 726 q 528 669 535 690 q 510 629 522 647 q 480 599 497 611 q 444 588 463 588 z "},"":{"ha":418,"x_min":-15,"x_max":469,"o":"m 224 49 q 222 67 222 54 q 221 85 221 79 q 184 47 206 65 q 140 17 163 29 q 87 1 113 1 q 40 12 61 0 q 6 47 19 24 q -10 101 -8 69 q 12 254 -15 185 q 83 390 39 324 q 211 531 136 468 q 250 550 229 547 q 289 544 271 553 q 320 517 307 536 q 338 472 333 499 q 396 492 367 486 q 453 482 425 497 q 464 472 464 475 q 457 457 464 469 q 383 317 414 385 q 334 197 351 250 q 313 108 317 143 q 322 68 310 74 q 353 75 336 61 q 387 108 371 89 q 415 149 403 128 q 432 178 428 169 q 441 171 432 179 q 450 161 450 163 l 450 158 q 424 105 440 133 q 388 53 408 76 q 346 15 368 31 q 303 -1 324 -1 q 255 6 274 -3 q 225 44 236 15 q 224 47 225 46 q 224 49 224 47 m 232 207 q 281 334 257 269 q 328 464 304 399 q 256 433 296 467 q 181 348 217 399 q 118 238 144 297 q 86 129 92 178 q 90 79 82 93 q 113 67 97 65 q 153 83 135 68 q 185 117 171 97 q 212 162 200 138 q 232 207 224 186 m 467 688 q 433 610 460 639 q 357 581 406 581 q 310 600 322 581 q 306 650 297 619 q 355 725 318 700 q 432 744 392 750 q 458 730 447 743 q 467 688 469 717 m 428 689 q 422 717 429 713 q 405 712 415 721 q 385 684 394 703 q 372 643 375 665 q 377 617 369 622 q 396 619 385 613 q 417 644 407 626 q 428 689 428 663 z "},"":{"ha":676,"x_min":-19,"x_max":711,"o":"m 506 -1 q 439 8 467 -1 q 392 33 411 17 q 363 72 374 50 q 349 117 353 93 q 343 162 343 139 q 346 208 343 185 q 322 133 331 167 q 313 76 313 100 q 322 39 313 51 q 354 26 332 26 q 342 10 350 15 q 326 1 335 4 q 310 -1 318 -1 q 299 -1 303 -1 q 238 23 263 -3 q 217 85 214 49 q 180 47 201 65 q 136 17 158 29 q 83 1 108 1 q 36 12 57 0 q 1 47 15 24 q -14 101 -12 69 q 8 254 -19 185 q 79 390 35 324 q 207 531 132 468 q 246 550 225 547 q 285 544 267 553 q 316 517 303 536 q 333 472 329 499 q 392 492 363 486 q 449 482 421 497 q 460 472 460 475 q 453 457 460 469 l 433 417 q 451 439 442 428 q 469 461 460 450 q 526 518 494 490 q 653 536 593 575 q 697 478 683 517 q 700 403 711 440 q 617 273 676 315 q 453 226 558 231 q 442 115 429 160 q 504 67 456 71 q 608 92 557 63 q 686 178 658 122 q 695 171 686 179 q 704 161 704 163 l 704 158 q 630 46 682 92 q 506 -1 578 0 m 228 207 q 276 334 253 269 q 324 464 300 399 q 252 433 292 467 q 176 348 213 399 q 114 238 140 297 q 82 129 88 178 q 85 79 78 93 q 108 67 93 65 q 149 83 131 68 q 181 117 167 97 q 208 162 196 138 q 228 207 219 186 m 597 468 q 533 397 569 453 q 460 249 497 340 q 533 283 503 260 q 581 336 564 306 q 601 401 597 367 q 597 468 606 435 z "},"":{"ha":329,"x_min":-6,"x_max":367,"o":"m 161 -1 q 94 8 122 -1 q 48 33 67 17 q 19 72 29 50 q 4 117 8 93 q -1 208 -6 161 q 18 302 3 256 q 57 391 33 349 q 111 469 81 433 q 149 507 128 488 q 196 538 171 526 q 249 551 221 550 q 308 536 278 553 q 353 480 340 519 q 356 403 367 440 q 269 273 332 315 q 100 226 206 231 q 88 171 89 199 q 95 121 88 143 q 119 83 103 99 q 160 67 136 68 q 263 92 213 63 q 342 178 314 122 q 351 171 342 179 q 360 161 360 163 l 360 158 q 285 46 338 92 q 161 -1 233 0 m 253 468 q 214 435 236 460 q 171 379 192 411 q 132 313 150 347 q 106 249 114 278 q 181 283 149 260 q 231 336 213 306 q 256 401 250 367 q 253 468 261 435 m 211 725 q 235 701 225 717 q 253 665 246 685 q 267 622 261 644 q 276 578 272 600 q 236 603 260 589 q 190 631 213 617 q 139 664 165 646 q 140 679 138 669 q 148 699 143 689 q 158 719 153 710 q 171 732 164 728 q 192 735 181 738 q 211 725 204 732 z "},"":{"ha":329,"x_min":-6,"x_max":382,"o":"m 161 -1 q 94 8 122 -1 q 48 33 67 17 q 19 72 29 50 q 4 117 8 93 q -1 208 -6 161 q 18 302 3 256 q 57 391 33 349 q 111 469 81 433 q 149 507 128 488 q 196 538 171 526 q 249 551 221 550 q 308 536 278 553 q 353 480 340 519 q 356 403 367 440 q 269 273 332 315 q 100 226 206 231 q 88 171 89 199 q 95 121 88 143 q 119 83 103 99 q 160 67 136 68 q 263 92 213 63 q 342 178 314 122 q 351 171 342 179 q 360 161 360 163 l 360 158 q 285 46 338 92 q 161 -1 233 0 m 253 468 q 214 435 236 460 q 171 379 192 411 q 132 313 150 347 q 106 249 114 278 q 181 283 149 260 q 231 336 213 306 q 256 401 250 367 q 253 468 261 435 m 308 728 q 327 738 315 735 q 349 735 339 740 q 360 722 354 731 q 372 702 367 713 q 379 682 376 692 q 381 667 382 672 q 328 633 353 649 q 283 606 306 619 q 243 581 260 592 q 253 625 247 603 q 266 667 258 647 q 284 703 274 688 q 308 728 294 719 z "},"":{"ha":329,"x_min":-6,"x_max":375,"o":"m 161 -1 q 94 8 122 -1 q 48 33 67 17 q 19 72 29 50 q 4 117 8 93 q -1 208 -6 161 q 18 302 3 256 q 57 391 33 349 q 111 469 81 433 q 149 507 128 488 q 196 538 171 526 q 249 551 221 550 q 308 536 278 553 q 353 480 340 519 q 356 403 367 440 q 269 273 332 315 q 100 226 206 231 q 88 171 89 199 q 95 121 88 143 q 119 83 103 99 q 160 67 136 68 q 263 92 213 63 q 342 178 314 122 q 351 171 342 179 q 360 161 360 163 l 360 158 q 285 46 338 92 q 161 -1 233 0 m 253 468 q 214 435 236 460 q 171 379 192 411 q 132 313 150 347 q 106 249 114 278 q 181 283 149 260 q 231 336 213 306 q 256 401 250 367 q 253 468 261 435 m 372 582 q 371 553 375 567 q 356 544 367 540 q 342 552 351 546 q 322 566 333 558 q 300 581 311 574 q 281 590 289 588 q 235 592 257 597 q 190 586 214 586 q 174 589 182 586 q 169 604 167 592 q 181 621 171 613 q 208 639 192 629 q 241 658 224 649 q 275 676 258 668 q 299 685 290 683 q 324 672 308 688 q 342 649 333 663 q 357 622 350 635 q 368 597 364 608 q 372 582 372 586 z "},"":{"ha":329,"x_min":-6,"x_max":433,"o":"m 161 -1 q 94 8 122 -1 q 48 33 67 17 q 19 72 29 50 q 4 117 8 93 q -1 208 -6 161 q 18 302 3 256 q 57 391 33 349 q 111 469 81 433 q 149 507 128 488 q 196 538 171 526 q 249 551 221 550 q 308 536 278 553 q 353 480 340 519 q 356 403 367 440 q 269 273 332 315 q 100 226 206 231 q 88 171 89 199 q 95 121 88 143 q 119 83 103 99 q 160 67 136 68 q 263 92 213 63 q 342 178 314 122 q 351 171 342 179 q 360 161 360 163 l 360 158 q 285 46 338 92 q 161 -1 233 0 m 253 468 q 214 435 236 460 q 171 379 192 411 q 132 313 150 347 q 106 249 114 278 q 181 283 149 260 q 231 336 213 306 q 256 401 250 367 q 253 468 261 435 m 189 582 q 154 605 161 581 q 156 659 147 629 q 184 713 164 689 q 231 738 204 738 q 263 731 253 740 q 276 703 274 721 q 273 663 279 685 q 254 624 267 642 q 224 594 242 606 q 189 582 207 582 m 343 582 q 308 605 315 581 q 310 659 301 629 q 338 713 318 689 q 385 738 358 738 q 417 731 407 740 q 431 703 428 721 q 427 663 433 685 q 408 624 421 642 q 378 594 396 606 q 343 582 361 582 z "},"":{"ha":185,"x_min":-6,"x_max":233,"o":"m 88 425 l 96 446 q 122 465 103 460 q 157 472 142 469 q 190 474 172 475 q 225 461 208 472 q 233 453 233 457 q 228 443 233 450 q 189 375 207 408 q 156 310 171 342 q 120 221 136 265 q 97 128 104 176 q 104 71 90 76 q 135 77 118 64 q 169 110 153 90 q 197 151 185 131 q 214 179 210 171 q 223 172 214 181 q 232 163 232 164 l 232 160 q 206 107 222 135 q 171 56 190 79 q 129 17 151 32 q 86 0 107 1 q 61 0 75 -3 q 13 28 28 4 q -3 85 -1 51 q 1 157 -6 118 q 18 229 8 196 q 19 231 18 231 q 19 235 19 232 l 24 246 q 38 288 29 264 q 54 335 46 311 q 70 382 63 360 q 85 419 78 404 l 88 425 m 160 692 q 184 667 174 683 q 202 631 194 651 q 215 589 210 611 q 225 544 221 567 q 185 569 208 556 q 139 597 161 583 q 88 631 114 613 q 89 646 86 636 q 97 666 92 656 q 107 685 101 676 q 119 699 113 694 q 141 701 129 704 q 160 692 153 699 z "},"":{"ha":185,"x_min":-6,"x_max":315,"o":"m 88 425 l 96 446 q 122 465 103 460 q 157 472 142 469 q 190 474 172 475 q 225 461 208 472 q 233 453 233 457 q 228 443 233 450 q 189 375 207 408 q 156 310 171 342 q 120 221 136 265 q 97 128 104 176 q 104 71 90 76 q 135 77 118 64 q 169 110 153 90 q 197 151 185 131 q 214 179 210 171 q 223 172 214 181 q 232 163 232 164 l 232 160 q 206 107 222 135 q 171 56 190 79 q 129 17 151 32 q 86 0 107 1 q 61 0 75 -3 q 13 28 28 4 q -3 85 -1 51 q 1 157 -6 118 q 18 229 8 196 q 19 231 18 231 q 19 235 19 232 l 24 246 q 38 288 29 264 q 54 335 46 311 q 70 382 63 360 q 85 419 78 404 l 88 425 m 242 688 q 260 697 249 694 q 282 694 272 700 q 294 681 288 690 q 305 662 300 672 q 313 642 310 651 q 314 626 315 632 q 261 593 286 608 q 216 565 239 579 q 176 540 193 551 q 186 585 181 563 q 199 627 192 607 q 217 663 207 647 q 242 688 228 679 z "},"":{"ha":185,"x_min":-6,"x_max":293,"o":"m 88 425 l 96 446 q 122 465 103 460 q 157 472 142 469 q 190 474 172 475 q 225 461 208 472 q 233 453 233 457 q 228 443 233 450 q 189 375 207 408 q 156 310 171 342 q 120 221 136 265 q 97 128 104 176 q 104 71 90 76 q 135 77 118 64 q 169 110 153 90 q 197 151 185 131 q 214 179 210 171 q 223 172 214 181 q 232 163 232 164 l 232 160 q 206 107 222 135 q 171 56 190 79 q 129 17 151 32 q 86 0 107 1 q 61 0 75 -3 q 13 28 28 4 q -3 85 -1 51 q 1 157 -6 118 q 18 229 8 196 q 19 231 18 231 q 19 235 19 232 l 24 246 q 38 288 29 264 q 54 335 46 311 q 70 382 63 360 q 85 419 78 404 l 88 425 m 290 539 q 289 510 293 524 q 274 501 285 497 q 260 509 269 503 q 240 523 251 515 q 218 538 229 531 q 199 547 207 544 q 153 549 175 554 q 108 543 132 543 q 92 546 100 543 q 88 561 85 549 q 99 578 89 569 q 126 596 110 586 q 159 615 142 606 q 193 633 176 625 q 217 642 208 640 q 242 629 226 644 q 260 606 251 619 q 275 578 268 592 q 286 554 282 565 q 290 539 290 543 z "},"":{"ha":185,"x_min":-6,"x_max":361,"o":"m 88 425 l 96 446 q 122 465 103 460 q 157 472 142 469 q 190 474 172 475 q 225 461 208 472 q 233 453 233 457 q 228 443 233 450 q 189 375 207 408 q 156 310 171 342 q 120 221 136 265 q 97 128 104 176 q 104 71 90 76 q 135 77 118 64 q 169 110 153 90 q 197 151 185 131 q 214 179 210 171 q 223 172 214 181 q 232 163 232 164 l 232 160 q 206 107 222 135 q 171 56 190 79 q 129 17 151 32 q 86 0 107 1 q 61 0 75 -3 q 13 28 28 4 q -3 85 -1 51 q 1 157 -6 118 q 18 229 8 196 q 19 231 18 231 q 19 235 19 232 l 24 246 q 38 288 29 264 q 54 335 46 311 q 70 382 63 360 q 85 419 78 404 l 88 425 m 117 529 q 82 552 89 528 q 83 606 75 576 q 112 660 92 636 q 158 685 132 685 q 191 678 181 688 q 204 650 201 668 q 201 610 207 632 q 182 571 194 589 q 152 541 169 553 q 117 529 135 529 m 271 529 q 236 552 243 528 q 238 606 229 576 q 266 660 246 636 q 313 685 286 685 q 345 678 335 688 q 358 650 356 668 q 355 610 361 632 q 336 571 349 589 q 306 541 324 553 q 271 529 289 529 z "},"":{"ha":458,"x_min":-11,"x_max":492,"o":"m 344 -1 q 294 8 313 -1 q 267 37 275 18 q 258 81 258 56 q 261 139 257 107 q 278 214 267 172 q 303 298 289 256 q 331 381 317 340 q 358 454 346 422 q 306 426 335 444 q 248 381 278 408 q 188 313 218 353 q 132 222 158 274 q 110 162 121 200 q 90 88 100 124 q 66 25 79 51 q 35 -1 53 -1 q 0 10 8 0 q -11 38 -8 19 q -10 53 -10 43 q 113 503 19 285 q 136 526 119 518 q 172 532 153 533 q 193 529 181 532 q 216 519 206 526 q 231 502 226 513 q 231 479 236 492 q 201 422 215 450 q 172 363 186 393 q 219 422 190 389 q 281 482 247 454 q 351 529 315 510 q 421 550 388 549 q 462 538 446 551 q 481 504 478 525 q 472 474 478 489 q 421 335 449 410 q 374 196 393 260 q 366 169 371 189 q 358 126 361 149 q 355 87 354 104 q 364 67 356 69 q 397 76 379 63 q 429 108 414 89 q 457 148 444 128 q 475 176 469 168 q 483 169 475 175 q 492 161 492 163 l 492 158 q 466 105 482 133 q 430 53 450 76 q 388 15 410 31 q 344 -1 365 -1 m 474 665 q 472 640 476 658 q 458 604 468 621 q 446 588 454 597 q 425 573 438 579 q 394 567 413 567 q 353 578 376 567 q 319 596 333 586 q 293 612 306 606 q 266 619 281 618 q 233 613 251 621 q 217 614 221 607 q 215 633 213 621 q 223 660 217 646 q 238 682 229 674 q 294 707 265 713 q 358 668 324 701 q 399 649 378 649 q 440 664 421 650 q 459 675 451 671 q 474 665 467 679 z "},"":{"ha":381,"x_min":0,"x_max":483,"o":"m 482 353 q 471 321 479 339 q 447 286 463 303 q 408 256 432 269 q 350 239 383 243 q 310 157 335 203 q 254 72 286 111 q 181 10 222 33 q 93 -4 140 -14 q 22 53 43 6 q 0 175 0 101 q 18 292 0 226 q 67 417 36 358 q 137 517 97 476 q 217 558 176 558 q 243 554 232 558 q 269 546 254 550 q 342 506 319 535 q 369 439 364 476 q 369 362 375 401 q 357 289 364 322 q 394 294 376 288 q 429 310 413 300 q 459 333 446 321 q 481 357 472 346 q 483 356 481 357 l 482 353 m 126 43 q 156 54 142 42 q 183 83 171 67 q 206 118 196 100 q 219 146 215 136 q 260 250 244 194 q 208 279 226 260 q 181 320 189 299 q 173 364 172 342 q 178 401 174 386 q 118 269 144 339 q 90 139 92 199 q 99 76 90 108 q 126 43 107 44 m 268 453 q 253 451 261 457 q 238 424 244 446 q 234 392 233 411 q 239 354 235 372 q 252 322 243 336 q 274 306 261 307 q 278 386 278 343 q 268 453 278 429 m 219 732 q 244 708 233 724 q 262 672 254 692 q 275 629 269 651 q 285 585 281 607 q 244 610 268 596 q 199 638 221 624 q 147 671 174 653 q 149 686 146 676 q 156 706 151 696 q 167 726 161 717 q 179 739 172 735 q 201 742 189 744 q 219 732 213 739 z "},"":{"ha":381,"x_min":0,"x_max":483,"o":"m 482 353 q 471 321 479 339 q 447 286 463 303 q 408 256 432 269 q 350 239 383 243 q 310 157 335 203 q 254 72 286 111 q 181 10 222 33 q 93 -4 140 -14 q 22 53 43 6 q 0 175 0 101 q 18 292 0 226 q 67 417 36 358 q 137 517 97 476 q 217 558 176 558 q 243 554 232 558 q 269 546 254 550 q 342 506 319 535 q 369 439 364 476 q 369 362 375 401 q 357 289 364 322 q 394 294 376 288 q 429 310 413 300 q 459 333 446 321 q 481 357 472 346 q 483 356 481 357 l 482 353 m 126 43 q 156 54 142 42 q 183 83 171 67 q 206 118 196 100 q 219 146 215 136 q 260 250 244 194 q 208 279 226 260 q 181 320 189 299 q 173 364 172 342 q 178 401 174 386 q 118 269 144 339 q 90 139 92 199 q 99 76 90 108 q 126 43 107 44 m 268 453 q 253 451 261 457 q 238 424 244 446 q 234 392 233 411 q 239 354 235 372 q 252 322 243 336 q 274 306 261 307 q 278 386 278 343 q 268 453 278 429 m 321 726 q 340 736 328 733 q 361 733 351 739 q 373 720 367 729 q 384 701 379 711 q 392 681 389 690 q 393 665 394 671 q 340 632 365 647 q 295 604 318 618 q 256 579 272 590 q 265 624 260 601 q 278 666 271 646 q 297 702 286 686 q 321 726 307 718 z "},"":{"ha":381,"x_min":0,"x_max":483,"o":"m 482 353 q 471 321 479 339 q 447 286 463 303 q 408 256 432 269 q 350 239 383 243 q 310 157 335 203 q 254 72 286 111 q 181 10 222 33 q 93 -4 140 -14 q 22 53 43 6 q 0 175 0 101 q 18 292 0 226 q 67 417 36 358 q 137 517 97 476 q 217 558 176 558 q 243 554 232 558 q 269 546 254 550 q 342 506 319 535 q 369 439 364 476 q 369 362 375 401 q 357 289 364 322 q 394 294 376 288 q 429 310 413 300 q 459 333 446 321 q 481 357 472 346 q 483 356 481 357 l 482 353 m 126 43 q 156 54 142 42 q 183 83 171 67 q 206 118 196 100 q 219 146 215 136 q 260 250 244 194 q 208 279 226 260 q 181 320 189 299 q 173 364 172 342 q 178 401 174 386 q 118 269 144 339 q 90 139 92 199 q 99 76 90 108 q 126 43 107 44 m 268 453 q 253 451 261 457 q 238 424 244 446 q 234 392 233 411 q 239 354 235 372 q 252 322 243 336 q 274 306 261 307 q 278 386 278 343 q 268 453 278 429 m 381 596 q 379 567 383 581 q 364 558 375 554 q 351 566 360 560 q 331 580 342 572 q 308 594 319 588 q 289 604 297 601 q 244 606 265 611 q 199 600 222 600 q 183 603 190 600 q 178 618 175 606 q 190 635 179 626 q 216 653 200 643 q 249 672 232 663 q 283 690 267 682 q 308 699 299 697 q 332 686 317 701 q 350 663 342 676 q 365 635 358 649 q 376 611 372 622 q 381 596 381 600 z "},"":{"ha":381,"x_min":0,"x_max":483,"o":"m 482 353 q 471 321 479 339 q 447 286 463 303 q 408 256 432 269 q 350 239 383 243 q 310 157 335 203 q 254 72 286 111 q 181 10 222 33 q 93 -4 140 -14 q 22 53 43 6 q 0 175 0 101 q 18 292 0 226 q 67 417 36 358 q 137 517 97 476 q 217 558 176 558 q 243 554 232 558 q 269 546 254 550 q 342 506 319 535 q 369 439 364 476 q 369 362 375 401 q 357 289 364 322 q 394 294 376 288 q 429 310 413 300 q 459 333 446 321 q 481 357 472 346 q 483 356 481 357 l 482 353 m 126 43 q 156 54 142 42 q 183 83 171 67 q 206 118 196 100 q 219 146 215 136 q 260 250 244 194 q 208 279 226 260 q 181 320 189 299 q 173 364 172 342 q 178 401 174 386 q 118 269 144 339 q 90 139 92 199 q 99 76 90 108 q 126 43 107 44 m 268 453 q 253 451 261 457 q 238 424 244 446 q 234 392 233 411 q 239 354 235 372 q 252 322 243 336 q 274 306 261 307 q 278 386 278 343 q 268 453 278 429 m 413 675 q 411 649 415 668 q 397 614 407 631 q 385 598 393 607 q 364 583 376 589 q 333 576 351 576 q 292 588 315 576 q 258 606 272 596 q 232 622 244 615 q 205 629 219 628 q 172 622 190 631 q 156 624 160 617 q 153 643 151 631 q 162 669 156 656 q 176 692 168 683 q 233 717 204 722 q 297 678 263 711 q 338 659 317 658 q 379 674 360 660 q 398 685 390 681 q 413 675 406 689 z "},"":{"ha":381,"x_min":0,"x_max":483,"o":"m 482 353 q 471 321 479 339 q 447 286 463 303 q 408 256 432 269 q 350 239 383 243 q 310 157 335 203 q 254 72 286 111 q 181 10 222 33 q 93 -4 140 -14 q 22 53 43 6 q 0 175 0 101 q 18 292 0 226 q 67 417 36 358 q 137 517 97 476 q 217 558 176 558 q 243 554 232 558 q 269 546 254 550 q 342 506 319 535 q 369 439 364 476 q 369 362 375 401 q 357 289 364 322 q 394 294 376 288 q 429 310 413 300 q 459 333 446 321 q 481 357 472 346 q 483 356 481 357 l 482 353 m 126 43 q 156 54 142 42 q 183 83 171 67 q 206 118 196 100 q 219 146 215 136 q 260 250 244 194 q 208 279 226 260 q 181 320 189 299 q 173 364 172 342 q 178 401 174 386 q 118 269 144 339 q 90 139 92 199 q 99 76 90 108 q 126 43 107 44 m 268 453 q 253 451 261 457 q 238 424 244 446 q 234 392 233 411 q 239 354 235 372 q 252 322 243 336 q 274 306 261 307 q 278 386 278 343 q 268 453 278 429 m 181 588 q 146 610 153 586 q 147 665 139 635 q 176 719 156 694 q 222 743 196 743 q 255 736 244 746 q 268 708 265 726 q 265 669 271 690 q 246 629 258 647 q 216 599 233 611 q 181 588 199 588 m 335 588 q 300 610 307 586 q 301 665 293 635 q 330 719 310 694 q 376 743 350 743 q 409 736 399 746 q 422 708 419 726 q 419 669 425 690 q 400 629 413 647 q 370 599 388 611 q 335 588 353 588 z "},"":{"ha":442,"x_min":-1,"x_max":475,"o":"m 229 486 q 199 435 218 475 q 162 349 181 396 q 126 258 143 301 q 104 194 110 214 q 97 167 101 186 q 88 128 92 149 q 86 91 85 108 q 99 68 88 74 q 152 80 124 56 q 207 143 181 104 q 253 226 233 182 q 282 294 274 269 l 293 331 l 336 481 q 344 500 338 492 q 361 513 351 508 q 380 521 371 518 q 394 524 389 524 q 435 512 419 525 q 454 478 451 499 q 446 447 451 463 q 399 322 422 383 q 357 196 376 260 q 349 169 354 189 q 341 126 344 149 q 338 87 338 104 q 347 67 339 69 q 380 76 363 63 q 413 108 397 89 q 440 148 428 128 q 458 176 453 168 q 467 169 458 175 q 475 161 475 163 l 475 158 q 449 105 465 133 q 413 53 433 76 q 371 15 393 31 q 328 -1 349 -1 q 252 29 269 -3 q 238 114 235 61 q 208 68 228 93 q 162 24 188 43 q 106 -1 136 6 q 47 11 76 -7 q 9 55 19 28 q 1 111 -1 82 q 10 185 6 153 q 23 249 15 218 q 40 310 31 279 q 64 381 50 342 l 67 386 l 81 424 l 100 469 q 133 499 110 492 q 179 504 157 506 q 217 497 201 503 q 229 486 233 490 m 240 726 q 265 702 254 718 q 283 666 275 686 q 296 624 290 646 q 306 579 301 601 q 265 604 289 590 q 219 632 242 618 q 168 665 194 647 q 169 681 167 671 q 177 701 172 690 q 188 720 182 711 q 200 733 193 729 q 222 736 210 739 q 240 726 233 733 z "},"":{"ha":442,"x_min":-1,"x_max":475,"o":"m 229 486 q 199 435 218 475 q 162 349 181 396 q 126 258 143 301 q 104 194 110 214 q 97 167 101 186 q 88 128 92 149 q 86 91 85 108 q 99 68 88 74 q 152 80 124 56 q 207 143 181 104 q 253 226 233 182 q 282 294 274 269 l 293 331 l 336 481 q 344 500 338 492 q 361 513 351 508 q 380 521 371 518 q 394 524 389 524 q 435 512 419 525 q 454 478 451 499 q 446 447 451 463 q 399 322 422 383 q 357 196 376 260 q 349 169 354 189 q 341 126 344 149 q 338 87 338 104 q 347 67 339 69 q 380 76 363 63 q 413 108 397 89 q 440 148 428 128 q 458 176 453 168 q 467 169 458 175 q 475 161 475 163 l 475 158 q 449 105 465 133 q 413 53 433 76 q 371 15 393 31 q 328 -1 349 -1 q 252 29 269 -3 q 238 114 235 61 q 208 68 228 93 q 162 24 188 43 q 106 -1 136 6 q 47 11 76 -7 q 9 55 19 28 q 1 111 -1 82 q 10 185 6 153 q 23 249 15 218 q 40 310 31 279 q 64 381 50 342 l 67 386 l 81 424 l 100 469 q 133 499 110 492 q 179 504 157 506 q 217 497 201 503 q 229 486 233 490 m 335 722 q 353 732 342 729 q 375 729 365 735 q 387 716 381 725 q 398 697 393 707 q 406 676 403 686 q 407 661 408 667 q 354 628 379 643 q 309 600 332 614 q 269 575 286 586 q 279 619 274 597 q 292 662 285 642 q 310 698 300 682 q 335 722 321 714 z "},"":{"ha":442,"x_min":-1,"x_max":475,"o":"m 229 486 q 199 435 218 475 q 162 349 181 396 q 126 258 143 301 q 104 194 110 214 q 97 167 101 186 q 88 128 92 149 q 86 91 85 108 q 99 68 88 74 q 152 80 124 56 q 207 143 181 104 q 253 226 233 182 q 282 294 274 269 l 293 331 l 336 481 q 344 500 338 492 q 361 513 351 508 q 380 521 371 518 q 394 524 389 524 q 435 512 419 525 q 454 478 451 499 q 446 447 451 463 q 399 322 422 383 q 357 196 376 260 q 349 169 354 189 q 341 126 344 149 q 338 87 338 104 q 347 67 339 69 q 380 76 363 63 q 413 108 397 89 q 440 148 428 128 q 458 176 453 168 q 467 169 458 175 q 475 161 475 163 l 475 158 q 449 105 465 133 q 413 53 433 76 q 371 15 393 31 q 328 -1 349 -1 q 252 29 269 -3 q 238 114 235 61 q 208 68 228 93 q 162 24 188 43 q 106 -1 136 6 q 47 11 76 -7 q 9 55 19 28 q 1 111 -1 82 q 10 185 6 153 q 23 249 15 218 q 40 310 31 279 q 64 381 50 342 l 67 386 l 81 424 l 100 469 q 133 499 110 492 q 179 504 157 506 q 217 497 201 503 q 229 486 233 490 m 388 592 q 386 563 390 576 q 371 554 382 550 q 358 562 367 556 q 338 576 349 568 q 315 590 326 583 q 296 600 304 597 q 251 601 272 607 q 206 596 229 596 q 190 599 197 596 q 185 614 182 601 q 197 631 186 622 q 223 649 207 639 q 256 668 239 658 q 290 686 274 678 q 315 695 306 693 q 339 682 324 697 q 357 658 349 672 q 372 631 365 644 q 383 607 379 618 q 388 592 388 596 z "},"":{"ha":442,"x_min":-353,"x_max":803,"o":"m 481 483 q 415 328 468 454 q 288 -21 363 203 q 462 -33 371 -28 q 644 -49 553 -37 l 654 -50 q 692 -56 674 -53 q 729 -61 710 -58 q 785 -79 768 -64 q 792 -131 803 -94 q 774 -147 785 -149 q 751 -143 763 -144 l 689 -129 q 493 -103 593 -117 q 275 -76 393 -90 q 123 -228 215 -183 q -111 -275 31 -274 q -186 -266 -144 -275 q -265 -238 -228 -257 q -328 -191 -303 -219 q -353 -124 -353 -162 q -299 -51 -353 -75 q -162 -19 -246 -26 q 17 -13 -76 -12 q 197 -19 111 -14 l 208 17 q 212 32 210 25 q 217 46 214 39 l 217 49 l 229 88 q 201 57 217 72 q 166 29 185 42 q 126 8 147 17 q 86 0 106 0 q 33 20 58 0 q 3 79 8 40 q 11 214 -6 139 q 55 357 28 289 q 111 473 82 425 q 158 526 140 521 q 178 527 165 528 q 205 523 190 526 q 233 514 219 519 q 257 503 247 508 q 217 435 242 478 q 166 341 192 393 q 119 231 140 289 q 90 118 99 174 q 99 69 85 76 q 137 72 114 61 q 183 106 160 83 q 219 144 207 128 q 276 241 254 192 q 313 339 297 290 q 338 412 325 375 q 361 478 350 449 q 381 528 372 508 q 393 550 389 547 q 422 553 406 556 q 452 542 438 550 q 476 524 467 535 q 486 506 486 514 q 481 483 486 496 m -242 -183 q -83 -218 -171 -222 q 85 -169 6 -214 q 140 -126 117 -150 q 175 -72 164 -101 q 28 -72 108 -72 q -122 -75 -51 -71 q -238 -92 -192 -79 q -285 -132 -285 -106 q -242 -183 -285 -161 m 358 732 q 377 742 365 739 q 399 739 389 744 q 410 726 404 735 q 422 706 417 717 q 429 686 426 696 q 431 671 432 676 q 378 638 403 653 q 333 610 356 624 q 293 585 310 596 q 303 629 297 607 q 316 672 308 651 q 334 708 324 692 q 358 732 344 724 z "},"":{"ha":442,"x_min":-1,"x_max":475,"o":"m 229 486 q 199 435 218 475 q 162 349 181 396 q 126 258 143 301 q 104 194 110 214 q 97 167 101 186 q 88 128 92 149 q 86 91 85 108 q 99 68 88 74 q 152 80 124 56 q 207 143 181 104 q 253 226 233 182 q 282 294 274 269 l 293 331 l 336 481 q 344 500 338 492 q 361 513 351 508 q 380 521 371 518 q 394 524 389 524 q 435 512 419 525 q 454 478 451 499 q 446 447 451 463 q 399 322 422 383 q 357 196 376 260 q 349 169 354 189 q 341 126 344 149 q 338 87 338 104 q 347 67 339 69 q 380 76 363 63 q 413 108 397 89 q 440 148 428 128 q 458 176 453 168 q 467 169 458 175 q 475 161 475 163 l 475 158 q 449 105 465 133 q 413 53 433 76 q 371 15 393 31 q 328 -1 349 -1 q 252 29 269 -3 q 238 114 235 61 q 208 68 228 93 q 162 24 188 43 q 106 -1 136 6 q 47 11 76 -7 q 9 55 19 28 q 1 111 -1 82 q 10 185 6 153 q 23 249 15 218 q 40 310 31 279 q 64 381 50 342 l 67 386 l 81 424 l 100 469 q 133 499 110 492 q 179 504 157 506 q 217 497 201 503 q 229 486 233 490 m 218 592 q 183 615 190 590 q 185 669 176 639 q 213 723 193 699 q 260 747 233 747 q 292 740 282 750 q 306 713 303 731 q 302 673 308 694 q 283 633 296 651 q 253 603 271 615 q 218 592 236 592 m 372 592 q 338 615 344 590 q 339 669 331 639 q 367 723 347 699 q 414 747 388 747 q 447 740 436 750 q 460 713 457 731 q 456 673 463 694 q 438 633 450 651 q 408 603 425 615 q 372 592 390 592 z "},"":{"ha":442,"x_min":-353,"x_max":803,"o":"m 481 483 q 415 328 468 454 q 288 -21 363 203 q 462 -33 371 -28 q 644 -49 553 -37 l 654 -50 q 692 -56 674 -53 q 729 -61 710 -58 q 785 -79 768 -64 q 792 -131 803 -94 q 774 -147 785 -149 q 751 -143 763 -144 l 689 -129 q 493 -103 593 -117 q 275 -76 393 -90 q 123 -228 215 -183 q -111 -275 31 -274 q -186 -266 -144 -275 q -265 -238 -228 -257 q -328 -191 -303 -219 q -353 -124 -353 -162 q -299 -51 -353 -75 q -162 -19 -246 -26 q 17 -13 -76 -12 q 197 -19 111 -14 l 208 17 q 212 32 210 25 q 217 46 214 39 l 217 49 l 229 88 q 201 57 217 72 q 166 29 185 42 q 126 8 147 17 q 86 0 106 0 q 33 20 58 0 q 3 79 8 40 q 11 214 -6 139 q 55 357 28 289 q 111 473 82 425 q 158 526 140 521 q 178 527 165 528 q 205 523 190 526 q 233 514 219 519 q 257 503 247 508 q 217 435 242 478 q 166 341 192 393 q 119 231 140 289 q 90 118 99 174 q 99 69 85 76 q 137 72 114 61 q 183 106 160 83 q 219 144 207 128 q 276 241 254 192 q 313 339 297 290 q 338 412 325 375 q 361 478 350 449 q 381 528 372 508 q 393 550 389 547 q 422 553 406 556 q 452 542 438 550 q 476 524 467 535 q 486 506 486 514 q 481 483 486 496 m -242 -183 q -83 -218 -171 -222 q 85 -169 6 -214 q 140 -126 117 -150 q 175 -72 164 -101 q 28 -72 108 -72 q -122 -75 -51 -71 q -238 -92 -192 -79 q -285 -132 -285 -106 q -242 -183 -285 -161 m 240 589 q 206 612 213 588 q 207 666 199 636 q 235 720 215 696 q 282 744 256 744 q 315 738 304 747 q 328 710 325 728 q 324 670 331 692 q 306 631 318 649 q 276 601 293 613 q 240 589 258 589 m 394 589 q 360 612 367 588 q 361 666 353 636 q 390 720 369 696 q 436 744 410 744 q 469 738 458 747 q 482 710 479 728 q 478 670 485 692 q 460 631 472 649 q 430 601 447 613 q 394 589 413 589 z "},"":{"ha":642,"x_min":0,"x_max":678,"o":"m 472 -1 q 406 8 433 -1 q 359 33 378 17 q 330 72 340 50 q 315 117 319 93 q 312 135 313 126 q 310 154 311 144 q 269 91 292 122 q 219 36 246 60 q 160 1 192 13 q 93 -4 128 -11 q 22 53 43 6 q 0 175 0 101 q 18 292 0 226 q 67 417 36 358 q 137 517 97 476 q 217 558 176 558 q 243 554 232 558 q 269 546 254 550 q 326 519 306 538 q 358 477 347 501 q 370 425 368 453 q 369 369 372 397 q 436 461 399 417 q 493 518 461 490 q 619 536 560 575 q 664 478 650 517 q 667 403 678 440 q 584 273 643 315 q 419 226 525 231 q 409 115 396 160 q 471 67 422 71 q 574 92 524 63 q 653 178 625 122 q 662 171 653 179 q 671 161 671 163 l 671 158 q 597 46 649 92 q 472 -1 544 0 m 126 43 q 156 54 142 42 q 183 83 171 67 q 206 118 196 100 q 219 146 215 136 q 260 250 244 194 q 208 279 226 260 q 181 320 189 299 q 173 364 172 342 q 178 401 174 386 q 118 269 144 339 q 90 139 92 199 q 99 76 90 108 q 126 43 107 44 m 564 468 q 500 397 536 453 q 426 249 464 340 q 500 283 469 260 q 547 336 531 306 q 568 401 564 367 q 564 468 572 435 m 268 453 q 253 451 261 457 q 238 424 244 446 q 234 392 233 411 q 239 354 235 372 q 252 322 243 336 q 274 306 261 307 q 278 386 278 343 q 268 453 278 429 z "},"":{"ha":607,"x_min":-181,"x_max":676,"o":"m 582 758 q 593 759 589 758 q 604 760 597 760 q 626 760 613 760 q 650 759 639 760 q 669 755 661 758 q 674 743 676 751 q 586 490 622 610 q 510 249 550 371 l 511 247 l 478 146 l 463 106 q 511 102 486 104 q 581 96 536 100 q 637 81 619 92 q 643 35 654 71 q 625 19 636 17 q 603 22 614 21 l 451 47 q 373 -55 418 -15 q 276 -117 328 -94 q 169 -147 224 -139 q 61 -156 114 -156 q 11 -152 36 -156 q -37 -140 -14 -149 q -119 -105 -90 -124 q -161 -68 -147 -86 q -177 -35 -175 -50 q -181 -10 -179 -19 l -181 -4 q -127 69 -181 44 q 10 100 -74 93 q 190 109 96 107 q 369 106 283 111 l 424 300 q 380 237 406 269 q 324 178 354 204 q 257 134 293 151 q 182 117 221 117 q 72 172 108 117 q 29 311 35 228 q 34 428 25 361 q 60 565 43 494 q 100 700 76 635 q 149 814 124 765 q 179 835 157 835 q 226 830 199 835 q 274 806 254 825 q 221 688 249 751 q 170 553 193 624 q 133 409 147 483 q 121 261 118 335 q 124 233 121 249 q 135 205 128 218 q 156 182 143 192 q 185 172 168 172 q 257 196 222 171 q 322 258 292 221 q 377 337 353 294 q 419 411 401 379 q 488 567 460 488 q 549 733 517 647 q 562 749 551 740 q 582 758 572 758 m -69 -64 q 75 -99 -6 -99 q 160 -88 117 -99 q 242 -58 204 -78 q 308 -12 279 -39 q 347 47 336 14 q 201 48 281 47 q 51 44 121 49 q -66 27 -19 40 q -112 -12 -112 14 q -69 -64 -112 -42 m 332 878 q 297 901 304 876 q 299 955 290 925 q 327 1009 307 985 q 374 1033 347 1033 q 406 1026 396 1036 q 419 999 417 1017 q 416 959 422 981 q 397 919 410 938 q 367 890 385 901 q 332 878 350 878 m 486 878 q 451 901 458 876 q 453 955 444 925 q 481 1009 461 985 q 528 1033 501 1033 q 560 1026 550 1036 q 574 999 571 1017 q 570 959 576 981 q 551 919 564 938 q 522 890 539 901 q 486 878 504 878 z "},"":{"ha":1065,"x_min":4,"x_max":1135,"o":"m 569 175 q 567 172 567 175 q 389 -35 482 33 q 199 -93 296 -104 q 121 -65 156 -87 q 61 -4 86 -42 q 22 81 36 33 q 7 185 8 129 q 20 340 4 260 q 63 495 36 419 q 124 638 89 571 q 194 753 158 704 l 194 757 l 126 715 q 108 717 118 713 q 89 728 99 721 q 73 743 79 735 q 67 756 67 751 q 71 765 67 761 q 164 826 114 804 q 275 851 214 849 q 358 840 315 854 q 374 833 372 836 q 364 811 375 829 q 272 676 315 743 q 194 536 228 608 q 135 387 160 464 q 103 224 111 310 q 101 157 100 197 q 113 77 103 117 q 146 7 124 38 q 208 -31 168 -24 q 283 -21 243 -37 q 362 27 324 -4 q 433 101 400 58 q 485 192 465 144 q 395 224 436 201 q 323 278 354 246 q 272 352 292 311 q 247 439 253 393 q 262 570 240 500 q 327 697 283 640 q 433 787 371 754 q 572 807 496 819 q 657 762 628 797 q 695 676 686 726 q 697 565 704 625 q 674 442 690 504 q 635 324 657 381 q 592 226 613 268 l 569 175 m 507 708 q 459 660 485 693 q 414 583 433 626 q 384 489 394 539 q 381 392 374 439 q 417 303 389 344 q 504 238 446 263 l 504 236 q 531 308 517 263 q 558 408 546 354 q 579 517 571 461 q 588 617 588 572 q 576 690 588 661 q 536 718 564 718 q 507 708 521 718 m 799 -26 q 896 -4 850 -25 q 980 51 942 17 q 1049 131 1018 86 q 1101 225 1079 176 q 1128 224 1121 225 q 1132 217 1135 224 q 1005 19 1082 96 q 819 -78 928 -58 q 683 -82 744 -90 q 577 -48 621 -74 q 508 17 533 -22 q 481 107 483 57 q 511 238 476 178 q 601 347 546 299 q 723 429 656 394 q 853 483 790 464 q 797 557 817 519 q 776 643 776 594 q 793 713 776 678 q 838 774 810 747 q 901 818 865 801 q 974 835 936 835 q 1038 818 1010 835 q 1086 774 1067 801 q 1116 714 1106 747 q 1126 646 1126 681 q 1124 613 1126 631 q 1115 578 1121 594 q 1102 549 1110 561 q 1085 536 1094 538 q 1063 540 1074 533 q 1038 551 1051 546 q 1058 601 1051 572 q 1060 658 1065 631 q 1038 706 1056 686 q 983 725 1019 725 q 949 715 964 725 q 924 691 935 706 q 908 658 914 676 q 903 624 903 640 q 918 572 903 596 q 958 525 933 547 q 1012 483 982 503 q 1071 442 1042 463 q 1022 425 1043 431 q 980 415 1000 419 q 938 405 960 411 q 886 389 915 399 q 791 344 844 374 q 690 276 738 315 q 611 192 643 238 q 581 101 579 147 q 594 51 581 75 q 633 10 607 28 q 698 -17 658 -7 q 790 -26 738 -28 l 799 -26 z "},"":{"ha":203,"x_min":40,"x_max":142,"o":"m 138 -71 q 127 -93 136 -81 q 106 -112 118 -106 q 69 -124 90 -124 q 40 -117 47 -124 q 58 -60 50 -87 q 73 -10 65 -36 q 86 36 81 17 q 101 31 90 36 q 120 15 111 26 q 135 -18 129 3 q 138 -71 142 -39 z "},"":{"ha":340,"x_min":-10,"x_max":392,"o":"m 185 -71 q 174 -93 183 -81 q 153 -112 165 -106 q 116 -124 138 -124 q 88 -117 94 -124 q 99 -82 93 -100 q 108 -48 103 -67 q 119 -10 114 -29 q 26 38 61 -1 q -10 146 -8 78 q 13 278 -10 207 q 72 410 35 349 q 158 512 110 471 q 256 554 206 553 q 325 521 299 556 q 349 429 351 486 q 340 374 349 407 q 317 311 331 340 q 288 263 304 282 q 254 250 271 244 q 228 264 239 256 q 221 281 218 272 q 231 312 225 293 q 243 352 238 331 q 253 395 249 374 q 258 436 257 417 q 258 449 258 443 q 256 465 258 456 q 196 404 225 440 q 143 325 167 368 q 103 235 119 282 q 86 142 88 189 q 106 78 85 99 q 160 56 126 57 q 286 89 228 53 q 374 181 344 125 q 383 174 374 182 q 392 164 392 165 l 390 161 q 358 101 379 131 q 310 49 338 72 q 251 9 283 25 q 181 -11 218 -7 q 185 -71 189 -33 z "},"":{"ha":558,"x_min":-42,"x_max":654,"o":"m 151 -243 q 108 -263 131 -258 q 63 -262 85 -268 q 22 -240 40 -256 q -11 -201 3 -225 q -37 -117 -33 -160 q -36 -31 -42 -74 q 49 333 -12 160 q 194 674 111 506 q 226 740 210 707 q 263 806 243 774 q 311 832 278 829 q 367 814 344 835 q 375 801 374 807 q 375 789 376 794 q 369 778 374 783 q 363 768 365 774 q 324 690 346 735 q 280 598 303 646 q 235 503 257 550 q 196 421 214 457 l 201 421 q 258 424 222 422 q 331 426 293 425 q 405 429 369 428 q 460 433 440 431 q 487 436 474 436 q 515 438 500 436 q 490 394 510 410 q 440 375 471 379 q 360 360 407 368 q 276 346 313 353 q 338 194 328 278 q 327 29 349 111 q 259 -125 306 -53 q 151 -243 213 -197 m 76 -218 q 144 -171 111 -212 q 202 -69 178 -129 q 238 59 226 -10 q 239 186 249 128 q 212 269 232 228 q 157 335 192 310 q 124 238 140 285 q 97 144 108 192 q 76 49 85 97 q 60 -47 68 1 q 55 -92 57 -67 q 53 -143 53 -118 q 60 -189 54 -168 q 76 -218 65 -210 m 461 425 l 469 446 q 496 465 476 460 q 531 472 515 469 q 564 474 546 475 q 599 461 582 472 q 607 453 607 457 q 601 443 607 450 q 563 375 581 408 q 529 310 544 342 q 494 221 510 265 q 471 128 478 176 q 478 71 464 76 q 509 77 492 64 q 542 110 526 90 q 571 151 558 131 q 588 179 583 171 q 597 172 588 181 q 606 163 606 164 l 606 160 q 580 107 596 135 q 544 56 564 79 q 503 17 525 32 q 460 0 481 1 q 435 0 449 -3 q 387 28 401 4 q 370 85 372 51 q 375 157 368 118 q 392 229 382 196 q 392 231 392 231 q 393 235 393 232 l 397 246 q 411 288 403 264 q 428 335 419 311 q 444 382 436 360 q 458 419 451 404 l 461 425 m 564 518 q 529 541 536 517 q 531 595 522 565 q 559 649 539 625 q 606 674 579 674 q 638 667 628 676 q 651 639 649 657 q 648 599 654 621 q 629 560 642 578 q 599 530 617 542 q 564 518 582 518 z "},"":{"ha":581,"x_min":-42,"x_max":725,"o":"m 151 -243 q 108 -263 131 -258 q 63 -262 85 -268 q 22 -240 40 -256 q -11 -201 3 -225 q -37 -117 -33 -160 q -36 -31 -42 -74 q 49 333 -12 160 q 194 674 111 506 q 226 740 210 707 q 263 806 243 774 q 311 832 278 829 q 367 814 344 835 q 375 801 374 807 q 375 789 376 794 q 369 778 374 783 q 363 768 365 774 q 324 690 346 735 q 280 598 303 646 q 235 503 257 550 q 196 421 214 457 l 201 421 q 258 424 222 422 q 331 426 293 425 q 405 429 369 428 q 460 433 440 431 q 487 436 474 436 q 515 438 500 436 q 490 394 510 410 q 440 375 471 379 q 360 360 407 368 q 276 346 313 353 q 338 194 328 278 q 327 29 349 111 q 259 -125 306 -53 q 151 -243 213 -197 m 76 -218 q 144 -171 111 -212 q 202 -69 178 -129 q 238 59 226 -10 q 239 186 249 128 q 212 269 232 228 q 157 335 192 310 q 124 238 140 285 q 97 144 108 192 q 76 49 85 97 q 60 -47 68 1 q 55 -92 57 -67 q 53 -143 53 -118 q 60 -189 54 -168 q 76 -218 65 -210 m 592 497 q 551 400 571 444 q 511 303 532 356 q 497 264 506 290 q 480 208 488 238 q 467 148 472 178 q 465 97 463 118 q 465 93 465 93 q 466 90 465 90 q 467 86 467 89 q 467 84 467 85 q 468 82 468 83 q 473 74 471 78 q 479 68 475 71 q 510 75 492 63 q 549 107 529 88 q 584 147 568 126 q 607 175 600 167 q 614 168 607 176 q 619 158 621 160 l 618 156 q 586 103 606 131 q 544 52 567 75 q 497 15 521 29 q 449 0 472 0 q 367 83 372 0 q 369 150 364 114 q 383 220 375 186 q 401 284 392 254 q 418 333 411 314 q 471 487 443 415 q 531 642 499 558 q 562 717 550 692 q 585 763 574 743 q 644 813 606 799 q 714 808 683 826 q 724 795 725 801 q 718 776 722 789 q 656 640 692 707 q 592 497 619 572 z "},"":{"ha":581,"x_min":-29,"x_max":704,"o":"m 581 -79 q 542 -76 568 -81 q 481 -64 517 -72 q 401 -44 444 -56 q 313 -19 358 -33 l 283 -46 q 190 -82 243 -81 q 92 -50 136 -83 q 24 17 51 -21 q -19 97 -3 54 q -20 99 -19 99 q -21 101 -21 100 q -26 116 -29 107 q -14 133 -24 125 q 10 144 -4 140 q 42 143 25 149 q 143 114 76 132 q 289 76 210 96 l 294 88 q 391 306 350 190 q 468 535 432 422 l 536 747 q 478 706 504 728 q 438 674 451 685 q 424 672 433 669 q 406 682 415 675 q 389 699 396 689 q 381 717 382 708 q 378 738 378 732 q 386 751 379 744 q 473 812 415 785 q 601 839 531 839 l 631 839 q 692 822 681 836 q 685 767 704 807 q 553 455 618 610 q 418 144 488 300 q 397 99 407 121 q 372 57 386 78 q 513 29 444 42 q 633 14 581 17 q 640 0 640 14 q 633 -31 640 -14 q 612 -62 625 -47 q 581 -79 599 -78 m 111 -7 q 184 -28 153 -35 q 239 3 215 -22 q 110 46 171 24 q 10 86 50 68 q 39 51 26 65 q 63 27 51 38 q 86 9 75 17 q 111 -7 97 1 m 617 379 q 631 370 626 379 q 635 351 635 362 q 631 330 635 340 q 614 316 626 320 q 551 302 590 309 q 470 290 512 296 q 388 278 428 284 q 319 270 347 273 q 314 269 317 270 q 310 269 312 268 q 298 269 305 270 q 285 268 291 268 q 275 270 279 268 q 271 282 271 273 q 272 320 270 300 q 282 359 274 340 q 305 368 284 364 q 359 374 326 371 q 430 377 391 376 q 504 378 468 378 q 571 379 540 379 q 617 379 601 379 z "},"":{"ha":207,"x_min":-10,"x_max":351,"o":"m 218 497 q 178 400 197 444 q 138 303 158 356 q 123 264 132 290 q 106 208 114 238 q 94 148 99 178 q 92 97 89 118 q 92 93 92 93 q 92 90 92 90 q 93 86 93 89 q 94 84 93 85 q 94 82 94 83 q 99 74 97 78 q 106 68 101 71 q 137 75 118 63 q 175 107 156 88 q 210 147 194 126 q 233 175 226 167 q 240 168 233 176 q 246 158 247 160 l 244 156 q 213 103 232 131 q 170 52 193 75 q 123 15 147 29 q 75 0 99 0 q -7 83 -1 0 q -4 150 -10 114 q 10 220 1 186 q 28 284 18 254 q 44 333 38 314 q 97 487 69 415 q 157 642 125 558 q 188 717 176 692 q 211 763 200 743 q 271 813 232 799 q 340 808 310 826 q 350 795 351 801 q 344 776 349 789 q 282 640 318 707 q 218 497 246 572 m 193 383 q 200 375 197 383 q 203 357 203 367 q 200 337 203 347 q 191 324 197 328 q 154 312 177 318 q 107 300 131 305 q 59 289 83 294 q 19 282 36 284 q 17 280 18 282 q 14 280 16 279 q 7 280 11 282 q 0 279 3 279 q -6 282 -4 279 q -8 293 -8 284 q -8 328 -9 309 q -2 364 -7 347 q 11 372 -1 369 q 43 378 24 375 q 84 381 61 380 q 127 382 106 382 q 166 383 148 383 q 193 383 183 383 z "},"":{"ha":235,"x_min":15,"x_max":224,"o":"m 18 892 q 19 920 15 907 q 35 929 24 933 q 48 922 39 928 q 68 908 57 915 q 90 893 79 900 q 110 883 101 886 q 155 882 133 876 q 200 888 176 888 q 216 885 208 888 q 221 869 224 882 q 209 852 219 861 q 183 834 199 843 q 149 815 167 825 q 115 797 132 806 q 91 788 100 790 q 67 801 82 786 q 49 825 57 811 q 33 852 40 839 q 22 876 26 865 q 18 892 18 888 z "},"":{"ha":765,"x_min":-17,"x_max":807,"o":"m 789 793 q 771 713 807 749 q 538 467 653 597 q 306 222 422 338 q 219 126 261 179 q 129 24 178 72 q 218 39 178 29 q 299 54 258 49 q 413 67 353 61 q 531 75 472 72 q 642 77 589 78 q 739 72 696 76 q 756 69 751 71 q 763 64 761 67 q 763 56 764 61 q 763 44 763 51 q 757 16 764 28 q 732 4 750 4 q 595 3 663 3 q 458 -1 528 3 q 353 -11 407 -4 q 247 -28 299 -18 q 147 -52 194 -39 q 61 -81 99 -65 q 25 -81 42 -87 q -4 -56 8 -74 q -11 -20 -17 -36 q 8 11 -6 -4 q 151 185 81 94 q 293 365 221 275 q 440 542 365 456 q 593 706 514 629 l 610 724 q 596 726 601 725 q 585 726 590 726 l 201 714 q 165 721 174 713 q 154 760 157 729 q 160 813 151 800 q 196 828 169 826 l 719 835 q 761 826 743 835 q 789 793 779 818 m 413 982 q 414 1010 410 997 q 429 1019 418 1024 q 442 1012 433 1018 q 463 998 451 1006 q 485 983 474 990 q 504 974 496 976 q 549 972 528 967 q 594 978 571 978 q 610 975 603 978 q 615 960 618 972 q 603 942 614 951 q 577 924 593 933 q 544 906 561 915 q 510 888 526 896 q 485 878 494 881 q 461 892 476 876 q 443 915 451 901 q 428 942 435 929 q 417 967 421 956 q 413 982 413 978 z "},"":{"ha":286,"x_min":-40,"x_max":343,"o":"m 328 450 q 263 360 299 408 q 192 260 228 311 q 119 160 156 210 q 53 69 83 111 l 297 61 q 314 56 304 61 q 321 35 324 51 q 312 22 319 26 q 297 17 304 17 q 153 6 225 10 q 11 0 82 1 q -16 8 -4 0 q -34 31 -28 17 q -40 63 -40 44 q -31 100 -39 81 q -1 156 -18 131 q 32 210 15 182 q 75 273 51 239 q 123 343 99 307 q 172 415 147 379 q 218 482 197 450 q 172 463 194 479 q 122 440 150 447 q 89 441 100 435 q 65 479 78 447 q 63 502 63 489 q 67 524 64 515 q 115 533 93 528 q 159 544 138 539 q 203 552 181 549 q 254 556 226 556 q 295 547 275 556 q 328 524 315 539 q 342 491 340 510 q 328 450 343 472 m 44 71 l 42 71 q 44 71 42 71 m 128 692 q 129 720 125 707 q 144 729 133 733 q 158 722 149 728 q 178 708 167 715 q 200 693 189 700 q 219 683 211 686 q 265 682 243 676 q 310 688 286 688 q 326 685 318 688 q 331 669 333 682 q 319 652 329 661 q 292 634 308 643 q 259 615 276 625 q 225 597 242 606 q 201 588 210 590 q 176 601 192 586 q 158 625 167 611 q 143 652 150 639 q 132 676 136 665 q 128 692 128 688 z "},"$":{"ha":576,"x_min":3,"x_max":664,"o":"m 535 857 q 629 821 594 851 q 664 738 664 790 q 654 675 664 706 q 636 626 647 653 q 611 578 625 600 q 582 540 597 556 q 551 525 567 525 q 523 526 539 525 q 495 531 507 526 q 481 545 483 535 q 493 575 478 556 q 540 647 519 610 q 561 715 561 683 q 500 758 561 758 q 485 758 493 758 q 469 757 478 757 q 424 558 447 657 q 379 358 401 460 q 436 296 408 328 q 485 231 464 264 q 519 163 507 197 q 532 92 532 128 q 508 15 532 47 q 448 -41 485 -18 q 367 -76 411 -64 q 283 -90 324 -89 q 276 -115 281 -101 q 263 -129 272 -128 q 251 -127 254 -131 q 245 -118 247 -124 q 242 -108 243 -112 q 242 -100 242 -103 q 241 -95 242 -97 q 240 -90 240 -93 q 158 -69 200 -86 q 81 -26 115 -53 q 24 33 46 0 q 3 103 3 65 q 10 149 3 125 q 35 194 18 174 q 80 228 53 215 q 147 242 107 242 q 267 221 208 242 l 281 325 q 227 379 253 351 q 181 435 201 407 q 147 495 160 464 q 135 561 135 526 q 156 652 135 608 q 210 732 176 696 q 289 795 244 768 q 382 839 333 822 q 422 900 401 892 q 442 904 433 904 q 475 896 450 904 q 489 883 486 893 q 492 858 492 872 l 496 858 q 515 858 506 858 q 535 857 524 858 m 81 103 q 124 21 81 58 q 242 -26 167 -17 q 244 10 243 -8 q 247 50 244 29 q 250 85 249 67 q 254 124 251 104 q 201 144 229 136 q 146 153 174 153 q 96 138 111 153 q 81 103 81 124 m 319 75 q 307 24 313 50 q 296 -29 301 -1 q 349 -22 324 -28 q 395 -3 375 -15 q 427 30 415 10 q 439 78 439 50 q 413 160 439 114 q 356 244 386 207 q 348 213 351 229 q 342 181 344 196 q 377 141 364 163 q 390 94 390 119 q 381 64 390 76 q 361 51 371 51 q 356 54 358 51 q 341 67 349 60 q 322 82 333 75 q 321 75 321 79 l 319 75 m 233 560 q 278 461 233 506 l 299 440 q 311 520 306 482 q 324 593 317 558 q 335 652 328 619 q 349 721 342 685 q 267 655 300 696 q 233 560 233 614 z "},"<":{"ha":500,"x_min":17,"x_max":481,"o":"m 35 326 q 22 356 17 336 q 46 381 26 375 l 50 383 q 128 419 83 400 q 219 457 172 438 q 313 494 267 476 q 399 526 360 513 q 405 529 401 528 q 411 531 408 531 q 428 535 419 532 q 446 542 438 539 q 460 543 454 544 q 469 532 467 542 q 478 494 475 515 q 475 451 481 474 q 441 432 472 444 q 363 405 410 419 q 263 374 317 390 q 161 346 208 358 q 295 291 226 321 q 418 236 364 261 q 424 233 421 233 q 429 229 426 232 q 444 221 435 225 q 462 213 454 217 q 474 203 469 208 q 472 189 478 197 q 451 157 464 174 q 418 129 438 140 q 388 135 413 125 q 326 164 363 146 q 248 206 290 182 q 165 252 206 229 q 89 295 124 275 q 35 326 54 315 z "},">":{"ha":500,"x_min":19,"x_max":483,"o":"m 465 326 q 411 295 446 315 q 335 252 376 275 q 252 206 294 229 q 174 164 210 182 q 113 135 138 146 q 82 129 88 125 q 49 157 63 140 q 28 189 36 174 q 26 203 22 197 q 38 213 31 208 q 55 221 46 217 q 71 229 64 225 q 76 233 74 232 q 82 236 79 233 q 205 291 136 261 q 339 346 274 321 q 238 374 292 358 q 137 405 183 390 q 58 432 90 419 q 25 451 26 444 q 22 494 19 474 q 31 532 25 515 q 39 543 32 542 q 54 542 46 544 q 72 535 63 539 q 89 531 81 532 q 95 529 92 531 q 101 526 99 528 q 187 494 140 513 q 281 457 233 476 q 372 419 328 438 q 450 383 417 400 l 454 381 q 478 356 474 375 q 465 326 483 336 z "},"":{"ha":576,"x_min":3,"x_max":678,"o":"m 535 857 q 629 821 594 851 q 664 738 664 790 q 654 675 664 706 q 636 627 647 653 q 611 579 625 601 q 582 542 597 557 q 551 525 567 526 q 518 524 535 524 q 491 528 501 524 q 479 544 481 533 q 493 575 478 556 q 540 647 519 610 q 561 715 561 683 q 500 758 561 758 q 410 745 457 758 q 325 706 364 732 q 261 644 286 681 q 236 560 236 607 q 281 461 236 506 q 364 378 319 421 q 447 288 408 335 q 510 192 485 242 q 535 92 535 143 q 508 11 535 46 q 442 -47 482 -24 q 354 -81 401 -69 q 265 -92 307 -92 q 177 -76 224 -92 q 92 -34 131 -61 q 28 28 53 -7 q 3 103 3 63 q 10 149 3 125 q 35 194 18 174 q 80 228 53 215 q 147 242 107 242 q 232 231 189 242 q 310 201 275 221 q 368 155 346 182 q 390 94 390 128 q 381 64 390 76 q 361 51 371 51 q 356 54 358 51 q 321 83 343 67 q 270 115 299 100 q 209 142 242 131 q 146 153 176 153 q 96 138 111 153 q 81 103 81 124 q 95 53 81 78 q 136 11 110 29 q 201 -18 163 -7 q 285 -29 239 -29 q 342 -24 314 -29 q 391 -5 369 -18 q 426 28 413 8 q 439 78 439 49 q 429 124 439 99 q 405 174 419 149 q 372 224 390 200 q 336 268 353 249 q 269 337 304 303 q 204 406 235 371 q 154 479 174 442 q 135 561 135 517 q 169 678 135 624 q 256 772 203 732 q 372 835 308 813 q 496 858 436 858 q 515 858 506 858 q 535 857 524 858 m 472 997 q 474 1026 469 1013 q 489 1035 478 1039 q 502 1027 493 1033 q 522 1013 511 1021 q 544 999 533 1006 q 564 989 556 992 q 609 988 588 982 q 654 993 631 993 q 670 990 663 993 q 675 975 678 988 q 663 958 674 967 q 637 940 653 949 q 603 921 621 931 q 569 903 586 911 q 545 894 554 896 q 521 907 536 892 q 503 931 511 917 q 488 958 494 944 q 476 982 481 971 q 472 997 472 993 z "},"":{"ha":531,"x_min":50,"x_max":514,"o":"m 496 326 q 442 295 476 315 q 366 252 407 275 q 283 206 325 229 q 204 164 240 182 q 143 135 168 146 q 113 129 118 125 q 80 157 93 140 q 58 189 67 174 q 57 203 53 197 q 69 213 61 208 q 85 221 76 217 q 101 229 94 225 q 107 233 104 232 q 113 236 110 233 q 235 291 167 261 q 369 346 304 321 q 268 374 322 358 q 167 405 214 390 q 89 432 121 419 q 56 451 57 444 q 53 494 50 474 q 61 532 56 515 q 69 543 63 542 q 85 542 76 544 q 102 535 93 539 q 119 531 111 532 q 126 529 122 531 q 132 526 129 528 q 217 494 171 513 q 311 457 264 476 q 403 419 358 438 q 481 383 447 400 l 485 381 q 509 356 504 375 q 496 326 514 336 z "},"":{"ha":539,"x_min":17,"x_max":481,"o":"m 35 326 q 22 356 17 336 q 46 381 26 375 l 50 383 q 128 419 83 400 q 219 457 172 438 q 313 494 267 476 q 399 526 360 513 q 405 529 401 528 q 411 531 408 531 q 428 535 419 532 q 446 542 438 539 q 460 543 454 544 q 469 532 467 542 q 478 494 475 515 q 475 451 481 474 q 441 432 472 444 q 363 405 410 419 q 263 374 317 390 q 161 346 208 358 q 295 291 226 321 q 418 236 364 261 q 424 233 421 233 q 429 229 426 232 q 444 221 435 225 q 462 213 454 217 q 474 203 469 208 q 472 189 478 197 q 451 157 464 174 q 418 129 438 140 q 388 135 413 125 q 326 164 363 146 q 248 206 290 182 q 165 252 206 229 q 89 295 124 275 q 35 326 54 315 z "},"":{"ha":315,"x_min":-76,"x_max":410,"o":"m 410 317 q 372 294 393 306 q 326 269 350 282 q 279 244 303 257 q 238 218 256 231 q 240 210 238 217 q 247 195 243 203 q 253 181 250 188 q 256 174 256 175 q 269 135 264 154 q 275 97 275 117 q 260 50 275 72 q 223 11 246 28 q 173 -15 200 -6 q 121 -25 146 -25 q 40 0 65 -25 q 15 61 15 25 q 51 150 18 110 q 125 225 85 190 q 123 248 128 244 q 117 246 118 251 l -58 19 q -68 24 -64 22 q -76 26 -72 25 q 12 170 -36 97 q 104 306 60 243 q 100 369 100 356 q 126 478 100 428 q 197 553 151 529 q 214 558 204 556 q 231 561 224 561 q 268 533 261 561 q 266 467 275 506 q 236 385 257 428 q 190 311 215 342 q 199 286 196 303 q 210 261 203 269 q 311 299 265 285 q 410 339 357 314 l 410 317 m 86 38 q 98 25 88 28 q 124 28 108 22 q 158 57 144 35 q 165 114 171 79 q 158 150 163 133 q 106 84 126 115 q 86 38 85 53 m 192 469 q 169 456 181 468 q 153 421 158 443 q 153 367 146 383 l 192 469 m 161 704 q 163 733 158 719 q 178 742 167 746 q 191 734 182 740 q 211 720 200 728 q 233 706 222 713 q 253 696 244 699 q 298 694 276 689 q 343 700 319 700 q 359 697 351 700 q 364 682 367 694 q 352 665 363 674 q 326 647 342 656 q 292 628 310 638 q 258 610 275 618 q 234 601 243 603 q 210 614 225 599 q 192 638 200 624 q 176 665 183 651 q 165 689 169 678 q 161 704 161 700 z "},"":{"ha":517,"x_min":50,"x_max":442,"o":"m 79 -224 q 50 -182 50 -204 q 61 -142 50 -167 q 159 60 107 -46 q 256 281 211 167 q 280 347 268 313 q 306 415 292 381 q 315 436 310 424 q 332 446 321 449 q 351 431 350 443 q 353 413 353 418 q 342 321 353 379 q 313 197 331 263 q 274 64 296 131 q 233 -53 253 -3 q 212 -109 225 -76 q 184 -171 199 -142 q 154 -221 169 -200 q 125 -242 139 -242 q 105 -237 115 -242 q 79 -224 94 -232 m 349 482 q 315 507 321 482 q 317 561 308 532 q 346 615 325 590 q 393 640 367 640 q 426 631 415 640 q 439 601 436 621 q 435 563 442 583 q 415 524 428 542 q 384 494 401 506 q 349 482 367 482 z "},"":{"ha":647,"x_min":4,"x_max":800,"o":"m 214 47 q 191 -18 203 15 q 167 -85 179 -51 q 157 -106 163 -93 q 143 -115 151 -118 q 127 -100 128 -112 q 128 -82 126 -87 q 134 -26 129 -61 q 147 49 139 8 q 169 131 156 83 q 198 234 182 179 q 232 345 214 289 q 267 455 250 401 q 298 553 283 508 q 324 629 313 599 q 348 701 333 660 q 379 779 363 742 q 413 843 396 817 q 444 869 429 869 q 462 866 456 869 q 492 846 468 863 q 503 825 501 838 q 500 798 504 813 q 490 769 496 783 q 481 747 483 756 q 421 604 456 692 q 349 418 386 517 q 277 222 313 319 q 215 47 242 124 l 214 47 m 800 374 q 763 299 782 332 q 718 242 744 267 q 656 200 692 217 q 569 175 621 183 q 567 172 567 175 q 389 -35 482 33 q 199 -93 296 -104 q 121 -65 156 -87 q 61 -4 86 -42 q 22 81 36 33 q 7 185 8 129 q 20 340 4 260 q 63 495 36 419 q 124 638 89 571 q 194 753 158 704 l 194 757 l 126 715 q 108 717 118 713 q 89 728 99 721 q 73 743 79 735 q 67 756 67 751 q 71 765 67 761 q 164 826 114 804 q 275 851 214 849 q 358 840 315 854 q 374 831 372 836 q 364 811 376 826 q 187 535 253 675 q 103 224 121 396 q 101 157 100 197 q 113 77 103 117 q 146 7 124 38 q 208 -31 168 -24 q 283 -21 243 -37 q 362 27 324 -4 q 433 101 400 58 q 485 192 465 144 q 395 224 436 201 q 323 278 354 246 q 272 352 292 311 q 247 439 253 393 q 262 570 240 500 q 327 697 283 640 q 433 787 371 754 q 572 807 496 819 q 657 762 628 797 q 695 676 686 726 q 697 565 704 625 q 674 442 690 504 q 635 324 657 381 q 592 226 613 268 q 637 233 613 224 q 685 261 661 242 q 733 310 710 281 q 772 378 756 340 l 800 374 m 536 718 q 474 699 507 718 q 413 646 442 679 q 366 566 385 613 q 346 465 347 519 q 353 402 346 433 q 378 341 360 371 q 427 285 396 311 q 504 238 458 258 l 504 236 q 538 312 521 265 q 567 412 554 358 q 587 520 579 465 q 592 619 594 575 q 577 690 590 663 q 536 718 564 718 z "},"":{"ha":388,"x_min":15,"x_max":360,"o":"m 301 126 q 299 105 306 114 q 281 92 292 96 q 256 93 269 89 q 233 110 243 97 q 176 231 207 158 q 147 196 161 213 q 119 164 133 179 q 116 158 117 161 q 113 154 115 156 q 99 142 106 150 q 87 127 93 133 q 74 119 81 121 q 63 124 68 117 q 36 152 49 135 q 17 190 24 169 q 24 208 15 194 q 49 240 33 221 q 86 282 65 258 q 131 331 107 306 q 106 385 118 358 q 82 435 93 411 l 76 444 q 71 462 75 453 q 63 480 67 471 q 60 496 60 489 q 69 506 61 503 q 110 513 88 510 q 156 511 132 515 q 176 480 163 508 q 206 408 189 451 l 308 511 q 328 518 317 519 q 347 509 339 517 q 358 488 356 501 q 351 461 360 475 q 301 391 329 429 q 240 313 272 353 q 276 204 260 256 q 301 126 293 153 z "},"":{"ha":381,"x_min":0,"x_max":483,"o":"m 482 353 q 471 321 479 339 q 447 286 463 303 q 408 256 432 269 q 350 239 383 243 q 310 157 335 203 q 254 72 286 111 q 181 10 222 33 q 93 -4 140 -14 q 22 53 43 6 q 0 175 0 101 q 18 292 0 226 q 67 417 36 358 q 137 517 97 476 q 217 558 176 558 q 243 554 232 558 q 269 546 254 550 q 342 506 319 535 q 369 439 364 476 q 369 362 375 401 q 357 289 364 322 q 394 294 376 288 q 429 310 413 300 q 459 333 446 321 q 481 357 472 346 q 483 356 481 357 l 482 353 m 126 43 q 156 54 142 42 q 183 83 171 67 q 206 118 196 100 q 219 146 215 136 q 260 250 244 194 q 208 279 226 260 q 181 320 189 299 q 173 364 172 342 q 178 401 174 386 q 118 269 144 339 q 90 139 92 199 q 99 76 90 108 q 126 43 107 44 m 268 453 q 253 451 261 457 q 238 424 244 446 q 234 392 233 411 q 239 354 235 372 q 252 322 243 336 q 274 306 261 307 q 278 386 278 343 q 268 453 278 429 m 158 86 q 141 39 149 63 q 122 -11 132 14 q 116 -25 119 -16 q 104 -32 112 -34 q 90 -21 91 -30 q 89 -9 89 -12 q 92 32 89 7 q 102 87 96 57 q 121 169 110 125 q 145 257 132 213 q 171 343 158 301 q 196 418 184 385 q 214 470 203 440 q 238 527 225 500 q 264 573 251 554 q 291 592 278 592 q 306 590 300 592 q 333 575 313 587 q 343 560 342 569 q 342 540 345 550 q 334 520 339 530 q 327 504 330 510 q 242 304 283 410 q 159 86 201 197 l 158 86 z "},"":{"ha":531,"x_min":21,"x_max":496,"o":"m 257 458 q 222 481 229 457 q 224 535 215 506 q 252 590 232 565 q 299 614 272 614 q 331 607 321 617 q 344 579 342 597 q 341 540 347 561 q 322 500 335 518 q 292 470 310 482 q 257 458 275 458 m 179 89 q 144 112 151 88 q 146 166 138 136 q 174 220 154 196 q 221 244 194 244 q 253 238 243 247 q 267 210 264 228 q 263 170 269 192 q 244 131 257 149 q 215 101 232 113 q 179 89 197 89 m 469 383 q 489 374 482 383 q 496 354 496 365 q 489 333 496 343 q 465 318 482 322 q 382 304 429 311 q 284 291 335 297 q 183 279 233 285 q 92 271 133 274 q 85 269 89 271 q 79 269 82 268 q 61 269 71 271 q 42 268 51 268 q 28 271 33 268 q 22 283 22 274 q 24 322 21 301 q 38 363 26 343 q 67 372 40 368 q 135 378 94 375 q 224 381 175 381 q 319 383 272 382 q 406 383 367 383 q 469 383 446 383 z "},"":{"ha":349,"x_min":-71,"x_max":404,"o":"m 40 167 q 16 101 28 135 q -10 32 4 67 q -19 11 -14 24 q -36 1 -25 -1 q -56 17 -54 4 q -57 35 -57 29 q -52 92 -57 57 q -39 168 -47 126 q -12 278 -28 219 q 19 395 3 336 q 53 511 36 454 q 88 615 71 568 q 42 611 64 613 q 0 608 19 610 q -6 607 -3 608 q -12 607 -10 606 q -31 607 -21 608 q -49 606 -40 606 q -64 608 -58 606 q -69 621 -69 611 q -68 660 -71 639 q -54 700 -65 681 q 3 712 -49 708 q 124 718 54 715 q 147 775 135 747 q 173 825 160 803 q 199 861 186 847 q 225 875 213 875 q 247 872 238 875 q 283 851 256 868 q 298 830 296 843 q 296 802 300 817 q 285 774 292 788 q 275 751 279 760 q 267 736 271 744 q 261 721 264 728 l 378 721 q 397 712 390 721 q 404 692 404 703 q 397 670 404 681 q 374 656 390 660 q 303 643 342 649 q 222 632 264 638 q 131 405 175 522 q 42 167 86 288 l 40 167 z "},"":{"ha":443,"x_min":-71,"x_max":511,"o":"m 485 721 q 504 712 497 721 q 511 692 511 703 q 504 670 511 681 q 481 656 497 660 q 410 643 449 649 q 329 632 371 638 q 263 470 296 553 q 199 301 231 388 q 302 303 254 303 q 378 303 350 303 q 397 294 390 303 q 404 274 404 285 q 397 252 404 263 q 374 238 390 242 q 276 221 332 229 q 163 206 221 213 l 149 167 l 147 167 q 123 101 135 135 q 97 32 111 67 q 88 11 93 24 q 71 1 82 -1 q 51 17 53 4 q 50 35 50 29 q 55 92 50 57 q 68 168 60 126 l 74 196 q 35 192 54 193 q 0 190 17 192 q -6 189 -3 190 q -12 189 -10 188 q -31 189 -21 190 q -49 188 -40 188 q -64 190 -58 188 q -69 203 -69 193 q -68 242 -71 221 q -54 282 -65 263 q -6 293 -49 289 q 100 300 38 297 q 147 466 122 383 q 194 615 171 549 q 149 611 171 613 q 107 608 126 610 q 101 607 104 608 q 94 607 97 606 q 76 607 86 608 q 58 606 67 606 q 43 608 49 606 q 38 621 38 611 q 39 660 36 639 q 53 700 42 681 q 110 712 58 708 q 231 718 161 715 q 254 775 242 747 q 280 825 267 803 q 306 861 293 847 q 332 875 319 875 q 353 872 344 875 q 390 851 363 868 q 405 830 403 843 q 403 802 407 817 q 392 774 399 788 q 382 751 386 760 q 374 736 378 744 q 368 721 371 728 l 485 721 l 485 721 z "},"":{"ha":514,"x_min":0,"x_max":639,"o":"m 240 -139 q 230 -161 239 -149 q 208 -181 221 -174 q 172 -192 193 -192 q 143 -185 150 -192 q 151 -156 146 -171 q 160 -126 156 -143 q 171 -93 165 -110 q 92 -68 125 -87 q 40 -19 60 -49 q 11 50 21 11 q 1 133 1 89 q 10 240 0 185 q 38 351 19 296 q 81 462 56 407 q 138 567 107 517 q 201 658 163 607 q 288 755 240 710 q 392 831 336 800 q 506 863 447 863 q 521 863 513 863 q 538 861 529 863 q 618 801 597 850 q 621 679 639 753 q 601 624 615 656 q 569 561 588 592 q 533 508 551 531 q 500 483 514 486 q 469 481 488 481 q 439 485 451 481 q 422 501 426 490 q 433 532 418 513 q 462 571 446 549 q 492 617 478 593 q 516 667 507 642 q 524 717 525 692 q 513 750 519 736 q 481 763 506 764 q 398 728 442 760 q 312 645 354 696 q 231 529 269 594 q 163 397 193 464 q 115 264 133 329 q 96 146 97 199 q 99 83 96 113 q 113 30 101 53 q 144 -8 124 7 q 201 -29 165 -24 q 311 -18 257 -37 q 413 38 365 1 q 497 122 460 74 q 553 218 533 169 q 578 217 572 218 q 582 210 585 217 q 528 101 563 153 q 450 8 494 49 q 352 -60 406 -33 q 240 -93 299 -87 q 240 -139 242 -112 z "},"A":{"ha":761,"x_min":-3,"x_max":935,"o":"m 300 347 q 409 468 356 407 q 518 588 463 529 q 632 702 574 647 q 756 803 690 757 q 798 830 782 822 q 842 838 814 838 q 888 835 858 838 q 935 825 918 832 l 729 344 q 760 344 744 344 q 792 343 776 343 q 806 343 799 344 q 818 339 814 342 q 832 315 829 328 q 811 297 835 301 l 707 283 q 642 112 671 197 q 578 -67 614 26 q 556 -92 572 -86 q 525 -99 540 -99 q 510 -87 514 -96 q 506 -68 506 -79 q 507 -57 506 -61 l 596 271 q 486 260 546 265 q 356 253 426 256 q 270 151 315 206 q 187 49 225 96 q 124 -31 149 1 q 99 -62 99 -62 q 56 -69 75 -72 q 24 -56 38 -65 q 4 -35 11 -46 q -1 -19 -3 -25 q 60 60 1 -4 q 218 247 118 124 q 219 250 218 247 q 172 249 196 249 q 121 250 147 250 q 82 258 101 253 q 58 285 63 263 q 63 315 56 300 q 74 342 69 331 l 300 347 m 631 568 q 533 460 582 517 q 438 347 485 404 q 527 347 482 347 q 619 346 572 347 l 753 699 l 631 568 m 757 703 q 756 701 757 701 q 757 701 756 696 l 757 703 z "}}}
